<?xml version="1.0" encoding="UTF-8" standalone="no"?>
<!-- Created with Inkscape (http://www.inkscape.org/) -->

<svg
   version="1.1"
   id="svg2"
   xml:space="preserve"
   width="404.01334"
   height="262.02667"
   viewBox="0 0 404.01334 262.02667"
   xmlns="http://www.w3.org/2000/svg"
   xmlns:svg="http://www.w3.org/2000/svg"><defs
     id="defs6"><clipPath
       clipPathUnits="userSpaceOnUse"
       id="clipPath124"><path
         d="m 432.574,634.102 h 2575.67 v 1309.19 H 432.574 Z"
         id="path122" /></clipPath></defs><g
     id="g8"
     transform="matrix(1.3333333,0,0,-1.3333333,0,262.02667)"><g
       id="g10"
       transform="scale(0.1)"><path
         d="M 565.688,634.102 V 1943.29 M 979.207,634.102 V 1943.29 M 1392.66,634.102 V 1943.29 M 1939.34,634.102 V 1943.29 M 2352.86,634.102 V 1943.29 M 2766.32,634.102 V 1943.29"
         style="fill:none;stroke:#e4e4e4;stroke-width:3.985;stroke-linecap:butt;stroke-linejoin:miter;stroke-miterlimit:10;stroke-dasharray:none;stroke-opacity:1"
         id="path12" /><path
         d="M 432.574,634.102 H 3008.25 M 432.574,1026.86 H 3008.25 M 432.574,1419.62 H 3008.25 M 432.574,1812.38 H 3008.25"
         style="fill:none;stroke:#e4e4e4;stroke-width:3.985;stroke-linecap:butt;stroke-linejoin:miter;stroke-miterlimit:10;stroke-dasharray:none;stroke-opacity:1"
         id="path14" /><path
         d="m 565.688,634.102 v 42.519 m 413.519,-42.519 v 42.519 m 413.453,-42.519 v 42.519 m 546.68,-42.519 v 42.519 m 413.52,-42.519 v 42.519 m 413.46,-42.519 v 42.519 M 565.688,1943.29 v -42.52 m 413.519,42.52 v -42.52 m 413.453,42.52 v -42.52 m 546.68,42.52 v -42.52 m 413.52,42.52 v -42.52 m 413.46,42.52 v -42.52"
         style="fill:none;stroke:#808080;stroke-width:1.9925;stroke-linecap:butt;stroke-linejoin:miter;stroke-miterlimit:10;stroke-dasharray:none;stroke-opacity:1"
         id="path16" /><path
         d="m 432.574,634.102 h 42.496 m -42.496,392.758 h 42.496 m -42.496,392.76 h 42.496 m -42.496,392.76 H 475.07 M 3008.25,634.102 h -42.5 m 42.5,392.758 h -42.5 m 42.5,392.76 h -42.5 m 42.5,392.76 h -42.5"
         style="fill:none;stroke:#808080;stroke-width:1.9925;stroke-linecap:butt;stroke-linejoin:miter;stroke-miterlimit:10;stroke-dasharray:none;stroke-opacity:1"
         id="path18" /><path
         d="M 432.574,634.102 V 1943.29 H 3008.25 V 634.102 Z"
         style="fill:none;stroke:#000000;stroke-width:3.985;stroke-linecap:butt;stroke-linejoin:miter;stroke-miterlimit:10;stroke-dasharray:none;stroke-opacity:1"
         id="path20" /><path
         d="m 513.125,588.656 c 1.031,-0.312 4.219,-1.109 7.547,-1.109 9.937,0 15.984,7 15.984,8.187 0,0.875 -0.562,1.11 -0.968,1.11 -0.157,0 -0.313,0 -1.032,-0.391 -3.093,-1.187 -6.75,-2.156 -11.047,-2.156 -4.687,0 -8.578,1.203 -11.046,2.156 -0.782,0.391 -0.954,0.391 -1.032,0.391 -1.031,0 -1.031,-0.875 -1.031,-2.297 v -23.281 c 0,-1.438 0,-2.391 1.281,-2.391 0.625,0 0.875,0.313 1.266,0.953 0.953,1.188 3.969,5.25 10.734,5.25 4.438,0 6.594,-3.656 7.297,-5.172 1.36,-2.859 1.516,-6.515 1.516,-9.609 0,-2.953 -0.078,-7.234 -2.297,-10.734 -1.516,-2.391 -4.688,-4.844 -8.906,-4.844 -5.172,0 -10.25,3.25 -12.078,8.422 0.234,-0.078 0.718,-0.078 0.796,-0.078 2.219,0 3.969,1.421 3.969,3.89 0,2.938 -2.297,3.969 -3.89,3.969 -1.438,0 -3.969,-0.797 -3.969,-4.203 0,-7.156 6.187,-14.391 15.328,-14.391 9.937,0 18.359,7.719 18.359,17.563 0,9.218 -6.672,17.406 -16.047,17.406 -3.984,0 -7.718,-1.266 -10.734,-3.969 v 15.328"
         style="fill:#000000;fill-opacity:1;fill-rule:nonzero;stroke:none"
         id="path22" /><path
         d="m 582.859,569.344 c 0,8.515 -0.875,13.672 -3.5,18.765 -3.484,6.985 -9.921,8.735 -14.296,8.735 -10.016,0 -13.672,-7.469 -14.782,-9.688 -2.859,-5.812 -3.015,-13.672 -3.015,-17.812 0,-5.235 0.234,-13.266 4.047,-19.625 3.656,-5.875 9.531,-7.391 13.75,-7.391 3.812,0 10.64,1.188 14.625,9.063 2.937,5.718 3.171,12.797 3.171,17.953 z m -17.796,-24.781 c -2.704,0 -8.188,1.265 -9.86,9.609 -0.875,4.531 -0.875,12 -0.875,16.125 0,5.484 0,11.047 0.875,15.422 1.672,8.109 7.875,8.906 9.86,8.906 2.703,0 8.187,-1.359 9.765,-8.578 0.953,-4.375 0.953,-10.344 0.953,-15.75 0,-4.688 0,-11.828 -0.953,-16.281 -1.656,-8.344 -7.14,-9.453 -9.765,-9.453"
         style="fill:#000000;fill-opacity:1;fill-rule:nonzero;stroke:none"
         id="path24" /><path
         d="m 625.859,569.344 c 0,8.515 -0.875,13.672 -3.5,18.765 -3.484,6.985 -9.921,8.735 -14.296,8.735 -10.016,0 -13.672,-7.469 -14.782,-9.688 -2.859,-5.812 -3.015,-13.672 -3.015,-17.812 0,-5.235 0.234,-13.266 4.047,-19.625 3.656,-5.875 9.531,-7.391 13.75,-7.391 3.812,0 10.64,1.188 14.625,9.063 2.937,5.718 3.171,12.797 3.171,17.953 z m -17.796,-24.781 c -2.704,0 -8.188,1.265 -9.86,9.609 -0.875,4.531 -0.875,12 -0.875,16.125 0,5.484 0,11.047 0.875,15.422 1.672,8.109 7.875,8.906 9.86,8.906 2.703,0 8.187,-1.359 9.765,-8.578 0.953,-4.375 0.953,-10.344 0.953,-15.75 0,-4.688 0,-11.828 -0.953,-16.281 -1.656,-8.344 -7.14,-9.453 -9.765,-9.453"
         style="fill:#000000;fill-opacity:1;fill-rule:nonzero;stroke:none"
         id="path26" /><path
         d="m 907.953,594.625 c 0,2.141 -0.156,2.219 -2.297,2.219 -3.265,-3.172 -7.484,-5.078 -15.031,-5.078 v -2.625 c 2.156,0 6.438,0 11.047,2.14 v -40.765 c 0,-2.938 -0.234,-3.891 -7.781,-3.891 h -2.782 V 544 c 3.25,0.234 10.094,0.234 13.672,0.234 3.563,0 10.485,0 13.735,-0.234 v 2.625 h -2.782 c -7.546,0 -7.781,0.953 -7.781,3.891 v 44.109"
         style="fill:#000000;fill-opacity:1;fill-rule:nonzero;stroke:none"
         id="path28" /><path
         d="m 939.859,545.188 c 0,-2.375 0,-8.891 -6.031,-14.532 -0.25,-0.25 -0.484,-0.406 -0.484,-0.875 0,-0.718 0.719,-1.203 1.109,-1.203 1.031,0 7.641,6.203 7.641,15.735 0,4.375 -1.594,8.515 -5.406,8.515 -2.625,0 -4.375,-2.078 -4.375,-4.375 0,-2.39 1.671,-4.453 4.453,-4.453 1.75,0 2.859,0.953 3.093,1.188"
         style="fill:#000000;fill-opacity:1;fill-rule:nonzero;stroke:none"
         id="path30" /><path
         d="m 987.859,569.344 c 0,8.515 -0.875,13.672 -3.5,18.765 -3.484,6.985 -9.921,8.735 -14.296,8.735 -10.016,0 -13.672,-7.469 -14.782,-9.688 -2.859,-5.812 -3.015,-13.672 -3.015,-17.812 0,-5.235 0.234,-13.266 4.047,-19.625 3.656,-5.875 9.531,-7.391 13.75,-7.391 3.812,0 10.64,1.188 14.625,9.063 2.937,5.718 3.171,12.797 3.171,17.953 z m -17.796,-24.781 c -2.704,0 -8.188,1.265 -9.86,9.609 -0.875,4.531 -0.875,12 -0.875,16.125 0,5.484 0,11.047 0.875,15.422 1.672,8.109 7.875,8.906 9.86,8.906 2.703,0 8.187,-1.359 9.765,-8.578 0.953,-4.375 0.953,-10.344 0.953,-15.75 0,-4.688 0,-11.828 -0.953,-16.281 -1.656,-8.344 -7.14,-9.453 -9.765,-9.453"
         style="fill:#000000;fill-opacity:1;fill-rule:nonzero;stroke:none"
         id="path32" /><path
         d="m 1029.86,569.344 c 0,8.515 -0.88,13.672 -3.5,18.765 -3.48,6.985 -9.92,8.735 -14.3,8.735 -10.01,0 -13.669,-7.469 -14.779,-9.688 -2.859,-5.812 -3.015,-13.672 -3.015,-17.812 0,-5.235 0.234,-13.266 4.047,-19.625 3.657,-5.875 9.527,-7.391 13.747,-7.391 3.82,0 10.64,1.188 14.63,9.063 2.94,5.718 3.17,12.797 3.17,17.953 z m -17.8,-24.781 c -2.7,0 -8.18,1.265 -9.86,9.609 -0.87,4.531 -0.87,12 -0.87,16.125 0,5.484 0,11.047 0.87,15.422 1.68,8.109 7.88,8.906 9.86,8.906 2.71,0 8.19,-1.359 9.77,-8.578 0.95,-4.375 0.95,-10.344 0.95,-15.75 0,-4.688 0,-11.828 -0.95,-16.281 -1.66,-8.344 -7.14,-9.453 -9.77,-9.453"
         style="fill:#000000;fill-opacity:1;fill-rule:nonzero;stroke:none"
         id="path34" /><path
         d="m 1071.86,569.344 c 0,8.515 -0.88,13.672 -3.5,18.765 -3.48,6.985 -9.92,8.735 -14.3,8.735 -10.01,0 -13.67,-7.469 -14.78,-9.688 -2.86,-5.812 -3.01,-13.672 -3.01,-17.812 0,-5.235 0.23,-13.266 4.04,-19.625 3.66,-5.875 9.53,-7.391 13.75,-7.391 3.82,0 10.64,1.188 14.63,9.063 2.94,5.718 3.17,12.797 3.17,17.953 z m -17.8,-24.781 c -2.7,0 -8.18,1.265 -9.86,9.609 -0.87,4.531 -0.87,12 -0.87,16.125 0,5.484 0,11.047 0.87,15.422 1.68,8.109 7.88,8.906 9.86,8.906 2.71,0 8.19,-1.359 9.77,-8.578 0.95,-4.375 0.95,-10.344 0.95,-15.75 0,-4.688 0,-11.828 -0.95,-16.281 -1.66,-8.344 -7.14,-9.453 -9.77,-9.453"
         style="fill:#000000;fill-opacity:1;fill-rule:nonzero;stroke:none"
         id="path36" /><path
         d="m 1318.41,560.219 c 1.28,1.187 4.61,3.812 5.89,4.922 4.92,4.531 9.61,8.906 9.61,16.125 0,9.468 -7.96,15.578 -17.88,15.578 -9.55,0 -15.81,-7.235 -15.81,-14.297 0,-3.891 3.09,-4.453 4.2,-4.453 1.67,0 4.14,1.187 4.14,4.203 0,4.141 -3.98,4.141 -4.93,4.141 2.31,5.796 7.64,7.781 11.53,7.781 7.39,0 11.2,-6.266 11.2,-12.953 0,-8.266 -5.8,-14.297 -15.19,-23.922 l -10,-10.328 c -0.95,-0.875 -0.95,-1.032 -0.95,-3.016 h 31.39 l 2.3,14.219 h -2.47 c -0.24,-1.578 -0.88,-5.563 -1.83,-7.063 -0.47,-0.64 -6.52,-0.64 -7.78,-0.64 h -14.14 l 10.72,9.703"
         style="fill:#000000;fill-opacity:1;fill-rule:nonzero;stroke:none"
         id="path38" /><path
         d="m 1353.86,545.188 c 0,-2.375 0,-8.891 -6.03,-14.532 -0.25,-0.25 -0.49,-0.406 -0.49,-0.875 0,-0.718 0.72,-1.203 1.11,-1.203 1.03,0 7.64,6.203 7.64,15.735 0,4.375 -1.59,8.515 -5.4,8.515 -2.63,0 -4.38,-2.078 -4.38,-4.375 0,-2.39 1.67,-4.453 4.46,-4.453 1.75,0 2.86,0.953 3.09,1.188"
         style="fill:#000000;fill-opacity:1;fill-rule:nonzero;stroke:none"
         id="path40" /><path
         d="m 1400.86,569.344 c 0,8.515 -0.88,13.672 -3.5,18.765 -3.48,6.985 -9.92,8.735 -14.3,8.735 -10.01,0 -13.67,-7.469 -14.78,-9.688 -2.86,-5.812 -3.01,-13.672 -3.01,-17.812 0,-5.235 0.23,-13.266 4.04,-19.625 3.66,-5.875 9.53,-7.391 13.75,-7.391 3.82,0 10.64,1.188 14.63,9.063 2.94,5.718 3.17,12.797 3.17,17.953 z m -17.8,-24.781 c -2.7,0 -8.18,1.265 -9.86,9.609 -0.87,4.531 -0.87,12 -0.87,16.125 0,5.484 0,11.047 0.87,15.422 1.68,8.109 7.88,8.906 9.86,8.906 2.71,0 8.19,-1.359 9.77,-8.578 0.95,-4.375 0.95,-10.344 0.95,-15.75 0,-4.688 0,-11.828 -0.95,-16.281 -1.66,-8.344 -7.14,-9.453 -9.77,-9.453"
         style="fill:#000000;fill-opacity:1;fill-rule:nonzero;stroke:none"
         id="path42" /><path
         d="m 1442.86,569.344 c 0,8.515 -0.88,13.672 -3.5,18.765 -3.48,6.985 -9.92,8.735 -14.3,8.735 -10.01,0 -13.67,-7.469 -14.78,-9.688 -2.86,-5.812 -3.01,-13.672 -3.01,-17.812 0,-5.235 0.23,-13.266 4.04,-19.625 3.66,-5.875 9.53,-7.391 13.75,-7.391 3.82,0 10.64,1.188 14.63,9.063 2.94,5.718 3.17,12.797 3.17,17.953 z m -17.8,-24.781 c -2.7,0 -8.18,1.265 -9.86,9.609 -0.87,4.531 -0.87,12 -0.87,16.125 0,5.484 0,11.047 0.87,15.422 1.68,8.109 7.88,8.906 9.86,8.906 2.71,0 8.19,-1.359 9.77,-8.578 0.95,-4.375 0.95,-10.344 0.95,-15.75 0,-4.688 0,-11.828 -0.95,-16.281 -1.66,-8.344 -7.14,-9.453 -9.77,-9.453"
         style="fill:#000000;fill-opacity:1;fill-rule:nonzero;stroke:none"
         id="path44" /><path
         d="m 1485.86,569.344 c 0,8.515 -0.88,13.672 -3.5,18.765 -3.48,6.985 -9.92,8.735 -14.3,8.735 -10.01,0 -13.67,-7.469 -14.78,-9.688 -2.86,-5.812 -3.01,-13.672 -3.01,-17.812 0,-5.235 0.23,-13.266 4.04,-19.625 3.66,-5.875 9.53,-7.391 13.75,-7.391 3.82,0 10.64,1.188 14.63,9.063 2.94,5.718 3.17,12.797 3.17,17.953 z m -17.8,-24.781 c -2.7,0 -8.18,1.265 -9.86,9.609 -0.87,4.531 -0.87,12 -0.87,16.125 0,5.484 0,11.047 0.87,15.422 1.68,8.109 7.88,8.906 9.86,8.906 2.71,0 8.19,-1.359 9.77,-8.578 0.95,-4.375 0.95,-10.344 0.95,-15.75 0,-4.688 0,-11.828 -0.95,-16.281 -1.66,-8.344 -7.14,-9.453 -9.77,-9.453"
         style="fill:#000000;fill-opacity:1;fill-rule:nonzero;stroke:none"
         id="path46" /><path
         d="m 1854.13,588.656 c 1.03,-0.312 4.21,-1.109 7.54,-1.109 9.94,0 15.99,7 15.99,8.187 0,0.875 -0.57,1.11 -0.97,1.11 -0.16,0 -0.31,0 -1.03,-0.391 -3.1,-1.187 -6.75,-2.156 -11.05,-2.156 -4.69,0 -8.58,1.203 -11.05,2.156 -0.78,0.391 -0.95,0.391 -1.03,0.391 -1.03,0 -1.03,-0.875 -1.03,-2.297 v -23.281 c 0,-1.438 0,-2.391 1.28,-2.391 0.63,0 0.88,0.313 1.27,0.953 0.95,1.188 3.97,5.25 10.73,5.25 4.44,0 6.6,-3.656 7.3,-5.172 1.36,-2.859 1.51,-6.515 1.51,-9.609 0,-2.953 -0.07,-7.234 -2.29,-10.734 -1.52,-2.391 -4.69,-4.844 -8.91,-4.844 -5.17,0 -10.25,3.25 -12.08,8.422 0.24,-0.078 0.72,-0.078 0.8,-0.078 2.22,0 3.97,1.421 3.97,3.89 0,2.938 -2.3,3.969 -3.89,3.969 -1.44,0 -3.97,-0.797 -3.97,-4.203 0,-7.156 6.19,-14.391 15.33,-14.391 9.93,0 18.36,7.719 18.36,17.563 0,9.218 -6.68,17.406 -16.05,17.406 -3.98,0 -7.72,-1.266 -10.73,-3.969 v 15.328"
         style="fill:#000000;fill-opacity:1;fill-rule:nonzero;stroke:none"
         id="path48" /><path
         d="m 1899.86,545.188 c 0,-2.375 0,-8.891 -6.03,-14.532 -0.25,-0.25 -0.49,-0.406 -0.49,-0.875 0,-0.718 0.72,-1.203 1.11,-1.203 1.03,0 7.64,6.203 7.64,15.735 0,4.375 -1.59,8.515 -5.4,8.515 -2.63,0 -4.38,-2.078 -4.38,-4.375 0,-2.39 1.67,-4.453 4.46,-4.453 1.75,0 2.86,0.953 3.09,1.188"
         style="fill:#000000;fill-opacity:1;fill-rule:nonzero;stroke:none"
         id="path50" /><path
         d="m 1947.86,569.344 c 0,8.515 -0.88,13.672 -3.5,18.765 -3.48,6.985 -9.92,8.735 -14.3,8.735 -10.01,0 -13.67,-7.469 -14.78,-9.688 -2.86,-5.812 -3.01,-13.672 -3.01,-17.812 0,-5.235 0.23,-13.266 4.04,-19.625 3.66,-5.875 9.53,-7.391 13.75,-7.391 3.82,0 10.64,1.188 14.63,9.063 2.94,5.718 3.17,12.797 3.17,17.953 z m -17.8,-24.781 c -2.7,0 -8.18,1.265 -9.86,9.609 -0.87,4.531 -0.87,12 -0.87,16.125 0,5.484 0,11.047 0.87,15.422 1.68,8.109 7.88,8.906 9.86,8.906 2.71,0 8.19,-1.359 9.77,-8.578 0.95,-4.375 0.95,-10.344 0.95,-15.75 0,-4.688 0,-11.828 -0.95,-16.281 -1.66,-8.344 -7.14,-9.453 -9.77,-9.453"
         style="fill:#000000;fill-opacity:1;fill-rule:nonzero;stroke:none"
         id="path52" /><path
         d="m 1989.86,569.344 c 0,8.515 -0.88,13.672 -3.5,18.765 -3.48,6.985 -9.92,8.735 -14.3,8.735 -10.01,0 -13.67,-7.469 -14.78,-9.688 -2.86,-5.812 -3.01,-13.672 -3.01,-17.812 0,-5.235 0.23,-13.266 4.04,-19.625 3.66,-5.875 9.53,-7.391 13.75,-7.391 3.82,0 10.64,1.188 14.63,9.063 2.94,5.718 3.17,12.797 3.17,17.953 z m -17.8,-24.781 c -2.7,0 -8.18,1.265 -9.86,9.609 -0.87,4.531 -0.87,12 -0.87,16.125 0,5.484 0,11.047 0.87,15.422 1.68,8.109 7.88,8.906 9.86,8.906 2.71,0 8.19,-1.359 9.77,-8.578 0.95,-4.375 0.95,-10.344 0.95,-15.75 0,-4.688 0,-11.828 -0.95,-16.281 -1.66,-8.344 -7.14,-9.453 -9.77,-9.453"
         style="fill:#000000;fill-opacity:1;fill-rule:nonzero;stroke:none"
         id="path54" /><path
         d="m 2031.86,569.344 c 0,8.515 -0.88,13.672 -3.5,18.765 -3.48,6.985 -9.92,8.735 -14.3,8.735 -10.01,0 -13.67,-7.469 -14.78,-9.688 -2.86,-5.812 -3.01,-13.672 -3.01,-17.812 0,-5.235 0.23,-13.266 4.04,-19.625 3.66,-5.875 9.53,-7.391 13.75,-7.391 3.82,0 10.64,1.188 14.63,9.063 2.94,5.718 3.17,12.797 3.17,17.953 z m -17.8,-24.781 c -2.7,0 -8.18,1.265 -9.86,9.609 -0.87,4.531 -0.87,12 -0.87,16.125 0,5.484 0,11.047 0.87,15.422 1.68,8.109 7.88,8.906 9.86,8.906 2.71,0 8.19,-1.359 9.77,-8.578 0.95,-4.375 0.95,-10.344 0.95,-15.75 0,-4.688 0,-11.828 -0.95,-16.281 -1.66,-8.344 -7.14,-9.453 -9.77,-9.453"
         style="fill:#000000;fill-opacity:1;fill-rule:nonzero;stroke:none"
         id="path56" /><path
         d="m 2259.95,594.625 c 0,2.141 -0.15,2.219 -2.29,2.219 -3.27,-3.172 -7.49,-5.078 -15.03,-5.078 v -2.625 c 2.15,0 6.43,0 11.04,2.14 v -40.765 c 0,-2.938 -0.23,-3.891 -7.78,-3.891 h -2.78 V 544 c 3.25,0.234 10.09,0.234 13.67,0.234 3.56,0 10.49,0 13.74,-0.234 v 2.625 h -2.79 c -7.54,0 -7.78,0.953 -7.78,3.891 v 44.109"
         style="fill:#000000;fill-opacity:1;fill-rule:nonzero;stroke:none"
         id="path58" /><path
         d="m 2316.86,569.344 c 0,8.515 -0.88,13.672 -3.5,18.765 -3.48,6.985 -9.92,8.735 -14.3,8.735 -10.01,0 -13.67,-7.469 -14.78,-9.688 -2.86,-5.812 -3.01,-13.672 -3.01,-17.812 0,-5.235 0.23,-13.266 4.04,-19.625 3.66,-5.875 9.53,-7.391 13.75,-7.391 3.82,0 10.64,1.188 14.63,9.063 2.94,5.718 3.17,12.797 3.17,17.953 z m -17.8,-24.781 c -2.7,0 -8.18,1.265 -9.86,9.609 -0.87,4.531 -0.87,12 -0.87,16.125 0,5.484 0,11.047 0.87,15.422 1.68,8.109 7.88,8.906 9.86,8.906 2.71,0 8.19,-1.359 9.77,-8.578 0.95,-4.375 0.95,-10.344 0.95,-15.75 0,-4.688 0,-11.828 -0.95,-16.281 -1.66,-8.344 -7.14,-9.453 -9.77,-9.453"
         style="fill:#000000;fill-opacity:1;fill-rule:nonzero;stroke:none"
         id="path60" /><path
         d="m 2334.86,545.188 c 0,-2.375 0,-8.891 -6.03,-14.532 -0.25,-0.25 -0.49,-0.406 -0.49,-0.875 0,-0.718 0.72,-1.203 1.11,-1.203 1.03,0 7.64,6.203 7.64,15.735 0,4.375 -1.59,8.515 -5.4,8.515 -2.63,0 -4.38,-2.078 -4.38,-4.375 0,-2.39 1.67,-4.453 4.46,-4.453 1.75,0 2.86,0.953 3.09,1.188"
         style="fill:#000000;fill-opacity:1;fill-rule:nonzero;stroke:none"
         id="path62" /><path
         d="m 2381.86,569.344 c 0,8.515 -0.88,13.672 -3.5,18.765 -3.48,6.985 -9.92,8.735 -14.3,8.735 -10.01,0 -13.67,-7.469 -14.78,-9.688 -2.86,-5.812 -3.01,-13.672 -3.01,-17.812 0,-5.235 0.23,-13.266 4.04,-19.625 3.66,-5.875 9.53,-7.391 13.75,-7.391 3.82,0 10.64,1.188 14.63,9.063 2.94,5.718 3.17,12.797 3.17,17.953 z m -17.8,-24.781 c -2.7,0 -8.18,1.265 -9.86,9.609 -0.87,4.531 -0.87,12 -0.87,16.125 0,5.484 0,11.047 0.87,15.422 1.68,8.109 7.88,8.906 9.86,8.906 2.71,0 8.19,-1.359 9.77,-8.578 0.95,-4.375 0.95,-10.344 0.95,-15.75 0,-4.688 0,-11.828 -0.95,-16.281 -1.66,-8.344 -7.14,-9.453 -9.77,-9.453"
         style="fill:#000000;fill-opacity:1;fill-rule:nonzero;stroke:none"
         id="path64" /><path
         d="m 2424.86,569.344 c 0,8.515 -0.88,13.672 -3.5,18.765 -3.48,6.985 -9.92,8.735 -14.3,8.735 -10.01,0 -13.67,-7.469 -14.78,-9.688 -2.86,-5.812 -3.01,-13.672 -3.01,-17.812 0,-5.235 0.23,-13.266 4.04,-19.625 3.66,-5.875 9.53,-7.391 13.75,-7.391 3.82,0 10.64,1.188 14.63,9.063 2.94,5.718 3.17,12.797 3.17,17.953 z m -17.8,-24.781 c -2.7,0 -8.18,1.265 -9.86,9.609 -0.87,4.531 -0.87,12 -0.87,16.125 0,5.484 0,11.047 0.87,15.422 1.68,8.109 7.88,8.906 9.86,8.906 2.71,0 8.19,-1.359 9.77,-8.578 0.95,-4.375 0.95,-10.344 0.95,-15.75 0,-4.688 0,-11.828 -0.95,-16.281 -1.66,-8.344 -7.14,-9.453 -9.77,-9.453"
         style="fill:#000000;fill-opacity:1;fill-rule:nonzero;stroke:none"
         id="path66" /><path
         d="m 2466.86,569.344 c 0,8.515 -0.88,13.672 -3.5,18.765 -3.48,6.985 -9.92,8.735 -14.3,8.735 -10.01,0 -13.67,-7.469 -14.78,-9.688 -2.86,-5.812 -3.01,-13.672 -3.01,-17.812 0,-5.235 0.23,-13.266 4.04,-19.625 3.66,-5.875 9.53,-7.391 13.75,-7.391 3.82,0 10.64,1.188 14.63,9.063 2.94,5.718 3.17,12.797 3.17,17.953 z m -17.8,-24.781 c -2.7,0 -8.18,1.265 -9.86,9.609 -0.87,4.531 -0.87,12 -0.87,16.125 0,5.484 0,11.047 0.87,15.422 1.68,8.109 7.88,8.906 9.86,8.906 2.71,0 8.19,-1.359 9.77,-8.578 0.95,-4.375 0.95,-10.344 0.95,-15.75 0,-4.688 0,-11.828 -0.95,-16.281 -1.66,-8.344 -7.14,-9.453 -9.77,-9.453"
         style="fill:#000000;fill-opacity:1;fill-rule:nonzero;stroke:none"
         id="path68" /><path
         d="m 2671.41,560.219 c 1.28,1.187 4.61,3.812 5.89,4.922 4.92,4.531 9.61,8.906 9.61,16.125 0,9.468 -7.96,15.578 -17.88,15.578 -9.55,0 -15.81,-7.235 -15.81,-14.297 0,-3.891 3.09,-4.453 4.2,-4.453 1.67,0 4.14,1.187 4.14,4.203 0,4.141 -3.98,4.141 -4.93,4.141 2.31,5.796 7.64,7.781 11.53,7.781 7.39,0 11.2,-6.266 11.2,-12.953 0,-8.266 -5.8,-14.297 -15.19,-23.922 l -10,-10.328 c -0.95,-0.875 -0.95,-1.032 -0.95,-3.016 h 31.39 l 2.3,14.219 h -2.47 c -0.24,-1.578 -0.88,-5.563 -1.83,-7.063 -0.47,-0.64 -6.52,-0.64 -7.78,-0.64 h -14.14 l 10.72,9.703"
         style="fill:#000000;fill-opacity:1;fill-rule:nonzero;stroke:none"
         id="path70" /><path
         d="m 2729.86,569.344 c 0,8.515 -0.88,13.672 -3.5,18.765 -3.48,6.985 -9.92,8.735 -14.3,8.735 -10.01,0 -13.67,-7.469 -14.78,-9.688 -2.86,-5.812 -3.01,-13.672 -3.01,-17.812 0,-5.235 0.23,-13.266 4.04,-19.625 3.66,-5.875 9.53,-7.391 13.75,-7.391 3.82,0 10.64,1.188 14.63,9.063 2.94,5.718 3.17,12.797 3.17,17.953 z m -17.8,-24.781 c -2.7,0 -8.18,1.265 -9.86,9.609 -0.87,4.531 -0.87,12 -0.87,16.125 0,5.484 0,11.047 0.87,15.422 1.68,8.109 7.88,8.906 9.86,8.906 2.71,0 8.19,-1.359 9.77,-8.578 0.95,-4.375 0.95,-10.344 0.95,-15.75 0,-4.688 0,-11.828 -0.95,-16.281 -1.66,-8.344 -7.14,-9.453 -9.77,-9.453"
         style="fill:#000000;fill-opacity:1;fill-rule:nonzero;stroke:none"
         id="path72" /><path
         d="m 2747.86,545.188 c 0,-2.375 0,-8.891 -6.03,-14.532 -0.25,-0.25 -0.49,-0.406 -0.49,-0.875 0,-0.718 0.72,-1.203 1.11,-1.203 1.03,0 7.64,6.203 7.64,15.735 0,4.375 -1.59,8.515 -5.4,8.515 -2.63,0 -4.38,-2.078 -4.38,-4.375 0,-2.39 1.67,-4.453 4.46,-4.453 1.75,0 2.86,0.953 3.09,1.188"
         style="fill:#000000;fill-opacity:1;fill-rule:nonzero;stroke:none"
         id="path74" /><path
         d="m 2795.86,569.344 c 0,8.515 -0.88,13.672 -3.5,18.765 -3.48,6.985 -9.92,8.735 -14.3,8.735 -10.01,0 -13.67,-7.469 -14.78,-9.688 -2.86,-5.812 -3.01,-13.672 -3.01,-17.812 0,-5.235 0.23,-13.266 4.04,-19.625 3.66,-5.875 9.53,-7.391 13.75,-7.391 3.82,0 10.64,1.188 14.63,9.063 2.94,5.718 3.17,12.797 3.17,17.953 z m -17.8,-24.781 c -2.7,0 -8.18,1.265 -9.86,9.609 -0.87,4.531 -0.87,12 -0.87,16.125 0,5.484 0,11.047 0.87,15.422 1.68,8.109 7.88,8.906 9.86,8.906 2.71,0 8.19,-1.359 9.77,-8.578 0.95,-4.375 0.95,-10.344 0.95,-15.75 0,-4.688 0,-11.828 -0.95,-16.281 -1.66,-8.344 -7.14,-9.453 -9.77,-9.453"
         style="fill:#000000;fill-opacity:1;fill-rule:nonzero;stroke:none"
         id="path76" /><path
         d="m 2837.86,569.344 c 0,8.515 -0.88,13.672 -3.5,18.765 -3.48,6.985 -9.92,8.735 -14.3,8.735 -10.01,0 -13.67,-7.469 -14.78,-9.688 -2.86,-5.812 -3.01,-13.672 -3.01,-17.812 0,-5.235 0.23,-13.266 4.04,-19.625 3.66,-5.875 9.53,-7.391 13.75,-7.391 3.82,0 10.64,1.188 14.63,9.063 2.94,5.718 3.17,12.797 3.17,17.953 z m -17.8,-24.781 c -2.7,0 -8.18,1.265 -9.86,9.609 -0.87,4.531 -0.87,12 -0.87,16.125 0,5.484 0,11.047 0.87,15.422 1.68,8.109 7.88,8.906 9.86,8.906 2.71,0 8.19,-1.359 9.77,-8.578 0.95,-4.375 0.95,-10.344 0.95,-15.75 0,-4.688 0,-11.828 -0.95,-16.281 -1.66,-8.344 -7.14,-9.453 -9.77,-9.453"
         style="fill:#000000;fill-opacity:1;fill-rule:nonzero;stroke:none"
         id="path78" /><path
         d="m 2880.86,569.344 c 0,8.515 -0.88,13.672 -3.5,18.765 -3.48,6.985 -9.92,8.735 -14.3,8.735 -10.01,0 -13.67,-7.469 -14.78,-9.688 -2.86,-5.812 -3.01,-13.672 -3.01,-17.812 0,-5.235 0.23,-13.266 4.04,-19.625 3.66,-5.875 9.53,-7.391 13.75,-7.391 3.82,0 10.64,1.188 14.63,9.063 2.94,5.718 3.17,12.797 3.17,17.953 z m -17.8,-24.781 c -2.7,0 -8.18,1.265 -9.86,9.609 -0.87,4.531 -0.87,12 -0.87,16.125 0,5.484 0,11.047 0.87,15.422 1.68,8.109 7.88,8.906 9.86,8.906 2.71,0 8.19,-1.359 9.77,-8.578 0.95,-4.375 0.95,-10.344 0.95,-15.75 0,-4.688 0,-11.828 -0.95,-16.281 -1.66,-8.344 -7.14,-9.453 -9.77,-9.453"
         style="fill:#000000;fill-opacity:1;fill-rule:nonzero;stroke:none"
         id="path80" /><path
         d="m 198.953,651.625 c 0,2.141 -0.156,2.219 -2.297,2.219 -3.265,-3.172 -7.484,-5.078 -15.031,-5.078 v -2.625 c 2.156,0 6.438,0 11.047,2.14 v -40.765 c 0,-2.938 -0.234,-3.891 -7.781,-3.891 h -2.782 V 601 c 3.25,0.234 10.094,0.234 13.672,0.234 3.563,0 10.485,0 13.735,-0.234 v 2.625 h -2.782 c -7.546,0 -7.781,0.953 -7.781,3.891 v 44.109"
         style="fill:#000000;fill-opacity:1;fill-rule:nonzero;stroke:none"
         id="path82" /><path
         d="m 254.859,626.344 c 0,8.515 -0.875,13.672 -3.5,18.765 -3.484,6.985 -9.921,8.735 -14.296,8.735 -10.016,0 -13.672,-7.469 -14.782,-9.688 -2.859,-5.812 -3.015,-13.672 -3.015,-17.812 0,-5.235 0.234,-13.266 4.047,-19.625 3.656,-5.875 9.531,-7.391 13.75,-7.391 3.812,0 10.64,1.188 14.625,9.063 2.937,5.718 3.171,12.797 3.171,17.953 z m -17.796,-24.781 c -2.704,0 -8.188,1.265 -9.86,9.609 -0.875,4.531 -0.875,12 -0.875,16.125 0,5.484 0,11.047 0.875,15.422 1.672,8.109 7.875,8.906 9.86,8.906 2.703,0 8.187,-1.359 9.765,-8.578 0.953,-4.375 0.953,-10.344 0.953,-15.75 0,-4.688 0,-11.828 -0.953,-16.281 -1.656,-8.344 -7.14,-9.453 -9.765,-9.453"
         style="fill:#000000;fill-opacity:1;fill-rule:nonzero;stroke:none"
         id="path84" /><path
         d="m 306.438,642.344 c 0.953,0 2.453,0 2.453,1.562 0,1.547 -1.5,1.547 -2.453,1.547 h -37.547 c -0.953,0 -2.438,0 -2.438,-1.547 0,-1.562 1.485,-1.562 2.438,-1.562 h 37.547"
         style="fill:#000000;fill-opacity:1;fill-rule:nonzero;stroke:none"
         id="path86" /><path
         d="m 337.391,666.844 c 0,1.797 -0.235,1.797 -2.016,1.797 -3.937,-3.813 -10.016,-3.813 -12.156,-3.813 V 662.5 c 1.547,0 5.469,0 9.047,1.672 v -30.109 c 0,-1.969 0,-2.735 -6.141,-2.735 h -2.562 V 629 c 3.281,0.234 7.937,0.234 11.265,0.234 3.344,0 8,0 11.266,-0.234 v 2.328 h -2.563 c -6.14,0 -6.14,0.766 -6.14,2.735 v 32.781"
         style="fill:#000000;fill-opacity:1;fill-rule:nonzero;stroke:none"
         id="path88" /><path
         d="m 386.609,638.781 v 2.313 h -6.968 v 26.344 c 0,1.375 0,1.796 -1.485,1.796 -1.078,0 -1.203,-0.187 -1.734,-0.89 l -20.688,-27.25 v -2.313 h 18.547 V 634 c 0,-1.953 0,-2.672 -5.015,-2.672 h -1.719 V 629 c 1.187,0.063 6.797,0.234 9.406,0.234 2.625,0 8.235,-0.171 9.422,-0.234 v 2.328 h -1.719 c -5.015,0 -5.015,0.719 -5.015,2.672 v 4.781 z m -11.921,23.953 v -21.64 h -16.391 z"
         style="fill:#000000;fill-opacity:1;fill-rule:nonzero;stroke:none"
         id="path90" /><path
         d="m 198.953,1044.63 c 0,2.14 -0.156,2.21 -2.297,2.21 -3.265,-3.17 -7.484,-5.07 -15.031,-5.07 v -2.63 c 2.156,0 6.438,0 11.047,2.14 v -40.76 c 0,-2.942 -0.234,-3.895 -7.781,-3.895 h -2.782 V 994 c 3.25,0.234 10.094,0.234 13.672,0.234 3.563,0 10.485,0 13.735,-0.234 v 2.625 h -2.782 c -7.546,0 -7.781,0.953 -7.781,3.895 v 44.11"
         style="fill:#000000;fill-opacity:1;fill-rule:nonzero;stroke:none"
         id="path92" /><path
         d="m 254.859,1019.34 c 0,8.52 -0.875,13.68 -3.5,18.77 -3.484,6.98 -9.921,8.73 -14.296,8.73 -10.016,0 -13.672,-7.46 -14.782,-9.68 -2.859,-5.82 -3.015,-13.68 -3.015,-17.82 0,-5.23 0.234,-13.26 4.047,-19.621 3.656,-5.875 9.531,-7.391 13.75,-7.391 3.812,0 10.64,1.188 14.625,9.062 2.937,5.72 3.171,12.8 3.171,17.95 z m -17.796,-24.777 c -2.704,0 -8.188,1.265 -9.86,9.607 -0.875,4.53 -0.875,12 -0.875,16.13 0,5.48 0,11.04 0.875,15.42 1.672,8.11 7.875,8.91 9.86,8.91 2.703,0 8.187,-1.36 9.765,-8.58 0.953,-4.38 0.953,-10.35 0.953,-15.75 0,-4.69 0,-11.83 -0.953,-16.28 -1.656,-8.348 -7.14,-9.457 -9.765,-9.457"
         style="fill:#000000;fill-opacity:1;fill-rule:nonzero;stroke:none"
         id="path94" /><path
         d="m 306.438,1035.34 c 0.953,0 2.453,0 2.453,1.57 0,1.54 -1.5,1.54 -2.453,1.54 h -37.547 c -0.953,0 -2.438,0 -2.438,-1.54 0,-1.57 1.485,-1.57 2.438,-1.57 h 37.547"
         style="fill:#000000;fill-opacity:1;fill-rule:nonzero;stroke:none"
         id="path96" /><path
         d="m 337.391,1059.84 c 0,1.8 -0.235,1.8 -2.016,1.8 -3.937,-3.81 -10.016,-3.81 -12.156,-3.81 v -2.33 c 1.547,0 5.469,0 9.047,1.67 v -30.11 c 0,-1.97 0,-2.73 -6.141,-2.73 h -2.562 V 1022 c 3.281,0.23 7.937,0.23 11.265,0.23 3.344,0 8,0 11.266,-0.23 v 2.33 h -2.563 c -6.14,0 -6.14,0.76 -6.14,2.73 v 32.78"
         style="fill:#000000;fill-opacity:1;fill-rule:nonzero;stroke:none"
         id="path98" /><path
         d="m 374.391,1059.84 c 0,1.8 -0.235,1.8 -2.016,1.8 -3.937,-3.81 -10.016,-3.81 -12.156,-3.81 v -2.33 c 1.547,0 5.469,0 9.047,1.67 v -30.11 c 0,-1.97 0,-2.73 -6.141,-2.73 h -2.562 V 1022 c 3.281,0.23 7.937,0.23 11.265,0.23 3.344,0 8,0 11.266,-0.23 v 2.33 h -2.563 c -6.14,0 -6.14,0.76 -6.14,2.73 v 32.78"
         style="fill:#000000;fill-opacity:1;fill-rule:nonzero;stroke:none"
         id="path100" /><path
         d="m 234.953,1436.63 c 0,2.14 -0.156,2.21 -2.297,2.21 -3.265,-3.17 -7.484,-5.07 -15.031,-5.07 v -2.63 c 2.156,0 6.438,0 11.047,2.14 v -40.76 c 0,-2.94 -0.234,-3.89 -7.781,-3.89 h -2.782 V 1386 c 3.25,0.23 10.094,0.23 13.672,0.23 3.563,0 10.485,0 13.735,-0.23 v 2.63 h -2.782 c -7.546,0 -7.781,0.95 -7.781,3.89 v 44.11"
         style="fill:#000000;fill-opacity:1;fill-rule:nonzero;stroke:none"
         id="path102" /><path
         d="m 291.859,1411.34 c 0,8.52 -0.875,13.68 -3.5,18.77 -3.484,6.98 -9.921,8.73 -14.296,8.73 -10.016,0 -13.672,-7.46 -14.782,-9.68 -2.859,-5.82 -3.015,-13.68 -3.015,-17.82 0,-5.23 0.234,-13.26 4.047,-19.62 3.656,-5.88 9.531,-7.39 13.75,-7.39 3.812,0 10.64,1.19 14.625,9.06 2.937,5.72 3.171,12.8 3.171,17.95 z m -17.796,-24.78 c -2.704,0 -8.188,1.27 -9.86,9.61 -0.875,4.53 -0.875,12 -0.875,16.13 0,5.48 0,11.04 0.875,15.42 1.672,8.11 7.875,8.91 9.86,8.91 2.703,0 8.187,-1.36 9.765,-8.58 0.953,-4.38 0.953,-10.35 0.953,-15.75 0,-4.69 0,-11.83 -0.953,-16.28 -1.656,-8.35 -7.14,-9.46 -9.765,-9.46"
         style="fill:#000000;fill-opacity:1;fill-rule:nonzero;stroke:none"
         id="path104" /><path
         d="m 342.438,1427.34 c 0.953,0 2.453,0 2.453,1.57 0,1.54 -1.5,1.54 -2.453,1.54 h -37.547 c -0.953,0 -2.438,0 -2.438,-1.54 0,-1.57 1.485,-1.57 2.438,-1.57 h 37.547"
         style="fill:#000000;fill-opacity:1;fill-rule:nonzero;stroke:none"
         id="path106" /><path
         d="m 375.953,1435.52 c 4.406,1.96 7.735,4.89 7.735,9.17 0,5.84 -6.25,8.95 -12.454,8.95 -6.734,0 -12.578,-4.06 -12.578,-10.08 0,-3.68 2.453,-6.56 4.953,-8.04 0.594,-0.36 2.032,-1.13 2.625,-1.49 -3.937,-1.5 -9.484,-4.83 -9.484,-10.86 0,-6.97 7.453,-10.42 14.375,-10.42 7.922,0 14.484,4.77 14.484,11.38 0,4.12 -2.515,6.56 -3.406,7.45 -1.125,1.08 -4.109,2.75 -6.25,3.94 z m -10.797,5.9 c -0.109,0.06 -3.156,1.72 -3.156,4.47 0,3.88 4.703,5.78 9.125,5.78 4.641,0 9.234,-2.56 9.234,-7.03 0,-4.59 -4.953,-7.03 -6.625,-7.87 z m 3.453,-8.64 c 0.657,-0.36 7.047,-3.94 8.657,-4.78 1.25,-0.77 4.515,-2.56 4.515,-5.95 0,-4.71 -5.484,-7.16 -10.547,-7.16 -5.546,0 -10.671,3.22 -10.671,8.28 0,5.08 4.781,8.41 8.046,9.61"
         style="fill:#000000;fill-opacity:1;fill-rule:nonzero;stroke:none"
         id="path108" /><path
         d="m 234.953,1829.63 c 0,2.14 -0.156,2.21 -2.297,2.21 -3.265,-3.17 -7.484,-5.07 -15.031,-5.07 v -2.63 c 2.156,0 6.438,0 11.047,2.14 v -40.76 c 0,-2.94 -0.234,-3.89 -7.781,-3.89 h -2.782 V 1779 c 3.25,0.23 10.094,0.23 13.672,0.23 3.563,0 10.485,0 13.735,-0.23 v 2.63 h -2.782 c -7.546,0 -7.781,0.95 -7.781,3.89 v 44.11"
         style="fill:#000000;fill-opacity:1;fill-rule:nonzero;stroke:none"
         id="path110" /><path
         d="m 291.859,1804.34 c 0,8.52 -0.875,13.68 -3.5,18.77 -3.484,6.98 -9.921,8.73 -14.296,8.73 -10.016,0 -13.672,-7.46 -14.782,-9.68 -2.859,-5.82 -3.015,-13.68 -3.015,-17.82 0,-5.23 0.234,-13.26 4.047,-19.62 3.656,-5.88 9.531,-7.39 13.75,-7.39 3.812,0 10.64,1.19 14.625,9.06 2.937,5.72 3.171,12.8 3.171,17.95 z m -17.796,-24.78 c -2.704,0 -8.188,1.27 -9.86,9.61 -0.875,4.53 -0.875,12 -0.875,16.13 0,5.48 0,11.04 0.875,15.42 1.672,8.11 7.875,8.91 9.86,8.91 2.703,0 8.187,-1.36 9.765,-8.58 0.953,-4.38 0.953,-10.35 0.953,-15.75 0,-4.69 0,-11.83 -0.953,-16.28 -1.656,-8.35 -7.14,-9.46 -9.765,-9.46"
         style="fill:#000000;fill-opacity:1;fill-rule:nonzero;stroke:none"
         id="path112" /><path
         d="m 342.438,1820.34 c 0.953,0 2.453,0 2.453,1.57 0,1.54 -1.5,1.54 -2.453,1.54 h -37.547 c -0.953,0 -2.438,0 -2.438,-1.54 0,-1.57 1.485,-1.57 2.438,-1.57 h 37.547"
         style="fill:#000000;fill-opacity:1;fill-rule:nonzero;stroke:none"
         id="path114" /><path
         d="m 363.125,1840.08 c 1.969,-0.53 4.063,-0.78 6.094,-0.78 1.297,0 4.64,0 8.39,2.09 1.016,0.59 4.719,3.05 4.719,4.3 0,0.76 -0.594,0.95 -0.844,0.95 -0.171,0 -0.234,0 -0.89,-0.25 -2.141,-0.83 -5.188,-1.66 -9.063,-1.66 -2.922,0 -6.14,0.54 -8.812,1.55 -0.594,0.24 -0.844,0.36 -1.078,0.36 -0.828,0 -0.828,-0.66 -0.828,-1.61 v -17.89 c 0,-1.01 0,-1.72 1.062,-1.72 0.547,0 0.719,0.24 1.141,0.71 1.484,1.92 4.109,3.93 8.765,3.93 7.328,0 7.328,-8.93 7.328,-10.84 0,-2.33 -0.187,-5.66 -2.156,-8.11 -1.844,-2.27 -4.578,-3.22 -7.14,-3.22 -4.125,0 -8.235,2.27 -9.657,5.72 2.922,0.06 3.282,2.39 3.282,3.11 0,1.61 -1.266,3.03 -3.11,3.03 -0.531,0 -3.031,-0.3 -3.031,-3.27 0,-5.48 5.187,-10.73 12.687,-10.73 8.172,0 15.079,5.78 15.079,13.23 0,6.8 -5.485,12.99 -13.172,12.99 -3.875,0 -6.844,-1.25 -8.766,-2.86 v 10.97"
         style="fill:#000000;fill-opacity:1;fill-rule:nonzero;stroke:none"
         id="path116" /><g
         id="g118"><g
           id="g120"
           clip-path="url(#clipPath124)"><path
             d="M 2781.18,1807.38 2588.44,1282.64 2289.14,808.543 1969.25,793.488"
             style="fill:none;stroke:#28508c;stroke-width:7.9701;stroke-linecap:butt;stroke-linejoin:miter;stroke-miterlimit:10;stroke-dasharray:none;stroke-opacity:1"
             id="path126" /><path
             d="M 2357.09,1827.29 2175.69,1341.25 1884.5,941.793 1597.21,793.488"
             style="fill:none;stroke:#28508c;stroke-width:7.9701;stroke-linecap:butt;stroke-linejoin:miter;stroke-miterlimit:10;stroke-dasharray:29.8883, 29.8883;stroke-dashoffset:0;stroke-opacity:1"
             id="path128" /><path
             d="M 2702.75,1806.57 2383.59,1305.76 1922.28,1007.86 1535.52,819.785"
             style="fill:none;stroke:#be2828;stroke-width:7.9701;stroke-linecap:butt;stroke-linejoin:miter;stroke-miterlimit:10;stroke-dasharray:none;stroke-opacity:1"
             id="path130" /><path
             d="m 2284.79,1833.5 -296.83,-424 -442.31,-380.41 -372.7,-222.43"
             style="fill:none;stroke:#be2828;stroke-width:7.9701;stroke-linecap:butt;stroke-linejoin:miter;stroke-miterlimit:10;stroke-dasharray:29.8883, 29.8883;stroke-dashoffset:0;stroke-opacity:1"
             id="path132" /><path
             d="m 2333.12,1851.78 -578.03,-405.8 -691.07,-276.43 -409.497,-55.31"
             style="fill:none;stroke:#000000;stroke-width:7.9701;stroke-linecap:butt;stroke-linejoin:miter;stroke-miterlimit:10;stroke-dasharray:none;stroke-opacity:1"
             id="path134" /><path
             d="M 1928.75,1840.15 1393.27,1488.36 733.082,1223.73 H 332.09"
             style="fill:none;stroke:#000000;stroke-width:7.9701;stroke-linecap:butt;stroke-linejoin:miter;stroke-miterlimit:10;stroke-dasharray:29.8883, 29.8883;stroke-dashoffset:0;stroke-opacity:1"
             id="path136" /></g></g><path
         d="m 2795.13,1807.38 c 0,7.71 -6.24,13.95 -13.95,13.95 -7.7,0 -13.95,-6.24 -13.95,-13.95 0,-7.7 6.25,-13.94 13.95,-13.94 7.71,0 13.95,6.24 13.95,13.94 z"
         style="fill:#28508c;fill-opacity:1;fill-rule:nonzero;stroke:#28508c;stroke-width:7.9701;stroke-linecap:butt;stroke-linejoin:miter;stroke-miterlimit:10;stroke-dasharray:none;stroke-opacity:1"
         id="path138" /><path
         d="m 2602.38,1282.64 c 0,7.7 -6.24,13.95 -13.94,13.95 -7.71,0 -13.95,-6.25 -13.95,-13.95 0,-7.7 6.24,-13.94 13.95,-13.94 7.7,0 13.94,6.24 13.94,13.94 z"
         style="fill:#28508c;fill-opacity:1;fill-rule:nonzero;stroke:#28508c;stroke-width:7.9701;stroke-linecap:butt;stroke-linejoin:miter;stroke-miterlimit:10;stroke-dasharray:none;stroke-opacity:1"
         id="path140" /><path
         d="m 2303.09,808.543 c 0,7.703 -6.25,13.945 -13.95,13.945 -7.7,0 -13.95,-6.242 -13.95,-13.945 0,-7.703 6.25,-13.949 13.95,-13.949 7.7,0 13.95,6.246 13.95,13.949 z"
         style="fill:#28508c;fill-opacity:1;fill-rule:nonzero;stroke:#28508c;stroke-width:7.9701;stroke-linecap:butt;stroke-linejoin:miter;stroke-miterlimit:10;stroke-dasharray:none;stroke-opacity:1"
         id="path142" /><path
         d="m 1983.19,793.488 c 0,7.703 -6.24,13.95 -13.94,13.95 -7.71,0 -13.95,-6.247 -13.95,-13.95 0,-7.703 6.24,-13.945 13.95,-13.945 7.7,0 13.94,6.242 13.94,13.945 z"
         style="fill:#28508c;fill-opacity:1;fill-rule:nonzero;stroke:#28508c;stroke-width:7.9701;stroke-linecap:butt;stroke-linejoin:miter;stroke-miterlimit:10;stroke-dasharray:none;stroke-opacity:1"
         id="path144" /><path
         d="m 2371.04,1827.29 c 0,7.71 -6.24,13.95 -13.95,13.95 -7.7,0 -13.95,-6.24 -13.95,-13.95 0,-7.7 6.25,-13.95 13.95,-13.95 7.71,0 13.95,6.25 13.95,13.95 z"
         style="fill:#28508c;fill-opacity:1;fill-rule:nonzero;stroke:#28508c;stroke-width:7.9701;stroke-linecap:butt;stroke-linejoin:miter;stroke-miterlimit:10;stroke-dasharray:29.8883, 29.8883;stroke-dashoffset:0;stroke-opacity:1"
         id="path146" /><path
         d="m 2189.64,1341.25 c 0,7.7 -6.25,13.95 -13.95,13.95 -7.7,0 -13.95,-6.25 -13.95,-13.95 0,-7.7 6.25,-13.95 13.95,-13.95 7.7,0 13.95,6.25 13.95,13.95 z"
         style="fill:#28508c;fill-opacity:1;fill-rule:nonzero;stroke:#28508c;stroke-width:7.9701;stroke-linecap:butt;stroke-linejoin:miter;stroke-miterlimit:10;stroke-dasharray:29.8883, 29.8883;stroke-dashoffset:0;stroke-opacity:1"
         id="path148" /><path
         d="m 1898.45,941.793 c 0,7.703 -6.24,13.949 -13.95,13.949 -7.7,0 -13.94,-6.246 -13.94,-13.949 0,-7.703 6.24,-13.945 13.94,-13.945 7.71,0 13.95,6.242 13.95,13.945 z"
         style="fill:#28508c;fill-opacity:1;fill-rule:nonzero;stroke:#28508c;stroke-width:7.9701;stroke-linecap:butt;stroke-linejoin:miter;stroke-miterlimit:10;stroke-dasharray:29.8883, 29.8883;stroke-dashoffset:0;stroke-opacity:1"
         id="path150" /><path
         d="m 1611.16,793.488 c 0,7.703 -6.25,13.95 -13.95,13.95 -7.71,0 -13.95,-6.247 -13.95,-13.95 0,-7.703 6.24,-13.945 13.95,-13.945 7.7,0 13.95,6.242 13.95,13.945 z"
         style="fill:#28508c;fill-opacity:1;fill-rule:nonzero;stroke:#28508c;stroke-width:7.9701;stroke-linecap:butt;stroke-linejoin:miter;stroke-miterlimit:10;stroke-dasharray:29.8883, 29.8883;stroke-dashoffset:0;stroke-opacity:1"
         id="path152" /><path
         d="m 2688.8,1792.63 h 27.8984 v 27.8945 H 2688.8 Z"
         style="fill:#be2828;fill-opacity:1;fill-rule:nonzero;stroke:#be2828;stroke-width:7.9701;stroke-linecap:butt;stroke-linejoin:miter;stroke-miterlimit:10;stroke-dasharray:none;stroke-opacity:1"
         id="path154" /><path
         d="m 2369.64,1291.81 h 27.8945 v 27.8945 H 2369.64 Z"
         style="fill:#be2828;fill-opacity:1;fill-rule:nonzero;stroke:#be2828;stroke-width:7.9701;stroke-linecap:butt;stroke-linejoin:miter;stroke-miterlimit:10;stroke-dasharray:none;stroke-opacity:1"
         id="path156" /><path
         d="m 1908.34,993.914 h 27.8945 v 27.8945 H 1908.34 Z"
         style="fill:#be2828;fill-opacity:1;fill-rule:nonzero;stroke:#be2828;stroke-width:7.9701;stroke-linecap:butt;stroke-linejoin:miter;stroke-miterlimit:10;stroke-dasharray:none;stroke-opacity:1"
         id="path158" /><path
         d="m 1521.57,805.836 h 27.8945 v 27.8945 H 1521.57 Z"
         style="fill:#be2828;fill-opacity:1;fill-rule:nonzero;stroke:#be2828;stroke-width:7.9701;stroke-linecap:butt;stroke-linejoin:miter;stroke-miterlimit:10;stroke-dasharray:none;stroke-opacity:1"
         id="path160" /><path
         d="m 2270.84,1819.55 h 27.8945 v 27.8984 H 2270.84 Z"
         style="fill:#be2828;fill-opacity:1;fill-rule:nonzero;stroke:#be2828;stroke-width:7.9701;stroke-linecap:butt;stroke-linejoin:miter;stroke-miterlimit:10;stroke-dasharray:29.8883, 29.8883;stroke-dashoffset:0;stroke-opacity:1"
         id="path162" /><path
         d="m 1974.01,1395.55 h 27.8945 v 27.8945 H 1974.01 Z"
         style="fill:#be2828;fill-opacity:1;fill-rule:nonzero;stroke:#be2828;stroke-width:7.9701;stroke-linecap:butt;stroke-linejoin:miter;stroke-miterlimit:10;stroke-dasharray:29.8883, 29.8883;stroke-dashoffset:0;stroke-opacity:1"
         id="path164" /><path
         d="m 1531.7,1015.14 h 27.8945 v 27.8945 H 1531.7 Z"
         style="fill:#be2828;fill-opacity:1;fill-rule:nonzero;stroke:#be2828;stroke-width:7.9701;stroke-linecap:butt;stroke-linejoin:miter;stroke-miterlimit:10;stroke-dasharray:29.8883, 29.8883;stroke-dashoffset:0;stroke-opacity:1"
         id="path166" /><path
         d="m 1159,792.711 h 27.8945 v 27.8984 H 1159 Z"
         style="fill:#be2828;fill-opacity:1;fill-rule:nonzero;stroke:#be2828;stroke-width:7.9701;stroke-linecap:butt;stroke-linejoin:miter;stroke-miterlimit:10;stroke-dasharray:29.8883, 29.8883;stroke-dashoffset:0;stroke-opacity:1"
         id="path168" /><path
         d="m 2333.12,1869.71 15.53,-26.9 h -31.06 z"
         style="fill:#000000;fill-opacity:1;fill-rule:nonzero;stroke:#000000;stroke-width:7.9701;stroke-linecap:butt;stroke-linejoin:miter;stroke-miterlimit:10;stroke-dasharray:none;stroke-opacity:1"
         id="path170" /><path
         d="m 1755.09,1463.91 15.53,-26.9 h -31.06 z"
         style="fill:#000000;fill-opacity:1;fill-rule:nonzero;stroke:#000000;stroke-width:7.9701;stroke-linecap:butt;stroke-linejoin:miter;stroke-miterlimit:10;stroke-dasharray:none;stroke-opacity:1"
         id="path172" /><path
         d="m 1064.02,1187.48 15.53,-26.9 h -31.06 z"
         style="fill:#000000;fill-opacity:1;fill-rule:nonzero;stroke:#000000;stroke-width:7.9701;stroke-linecap:butt;stroke-linejoin:miter;stroke-miterlimit:10;stroke-dasharray:none;stroke-opacity:1"
         id="path174" /><path
         d="m 654.523,1132.17 15.532,-26.9 h -31.063 z"
         style="fill:#000000;fill-opacity:1;fill-rule:nonzero;stroke:#000000;stroke-width:7.9701;stroke-linecap:butt;stroke-linejoin:miter;stroke-miterlimit:10;stroke-dasharray:none;stroke-opacity:1"
         id="path176" /><path
         d="m 1928.75,1858.09 15.54,-26.91 h -31.07 z"
         style="fill:#000000;fill-opacity:1;fill-rule:nonzero;stroke:#000000;stroke-width:7.9701;stroke-linecap:butt;stroke-linejoin:miter;stroke-miterlimit:10;stroke-dasharray:29.8883, 29.8883;stroke-dashoffset:0;stroke-opacity:1"
         id="path178" /><path
         d="m 1393.27,1506.29 15.53,-26.9 h -31.06 z"
         style="fill:#000000;fill-opacity:1;fill-rule:nonzero;stroke:#000000;stroke-width:7.9701;stroke-linecap:butt;stroke-linejoin:miter;stroke-miterlimit:10;stroke-dasharray:29.8883, 29.8883;stroke-dashoffset:0;stroke-opacity:1"
         id="path180" /><path
         d="m 733.082,1241.66 15.531,-26.9 h -31.062 z"
         style="fill:#000000;fill-opacity:1;fill-rule:nonzero;stroke:#000000;stroke-width:7.9701;stroke-linecap:butt;stroke-linejoin:miter;stroke-miterlimit:10;stroke-dasharray:29.8883, 29.8883;stroke-dashoffset:0;stroke-opacity:1"
         id="path182" /><path
         d="m 1446.09,416.344 v 6.562 l -14.31,-1.093 v -3.079 c 7.05,0 7.75,-0.593 7.75,-4.968 v -46.485 c 0,-4.468 -1.09,-4.468 -7.75,-4.468 v -3.079 c 3.38,0.094 8.55,0.297 11.13,0.297 2.68,0 7.75,-0.203 11.22,-0.297 v 3.079 c -6.65,0 -7.74,0 -7.74,4.468 v 16.688 0.89 c 0.49,-1.593 4.66,-6.953 12.22,-6.953 11.81,0 22.14,9.735 22.14,22.547 0,12.625 -9.62,22.453 -20.75,22.453 -7.75,0 -11.92,-4.375 -13.91,-6.562 z m 0.3,-26.016 v 22.156 c 2.88,5.063 7.74,7.938 12.81,7.938 7.25,0 13.32,-8.734 13.32,-19.969 0,-12.015 -6.96,-20.359 -14.32,-20.359 -3.97,0 -7.75,1.984 -10.42,6.062 -1.39,2.078 -1.39,2.188 -1.39,4.172"
         style="fill:#000000;fill-opacity:1;fill-rule:nonzero;stroke:none"
         id="path184" /><path
         d="m 1533.78,400.266 c 0,12.703 -9.92,23.234 -21.95,23.234 -12.41,0 -22.05,-10.828 -22.05,-23.234 0,-12.828 10.33,-22.36 21.95,-22.36 12.02,0 22.05,9.735 22.05,22.36 z m -21.95,-19.875 c -4.27,0 -8.64,2.093 -11.31,6.656 -2.49,4.375 -2.49,10.437 -2.49,14 0,3.875 0,9.25 2.38,13.609 2.68,4.578 7.36,6.657 11.32,6.657 4.38,0 8.65,-2.188 11.22,-6.454 2.6,-4.265 2.6,-10.031 2.6,-13.812 0,-3.563 0,-8.938 -2.19,-13.313 -2.19,-4.468 -6.56,-7.343 -11.53,-7.343"
         style="fill:#000000;fill-opacity:1;fill-rule:nonzero;stroke:none"
         id="path186" /><path
         d="m 1554.58,422.906 -13.91,-1.093 v -3.079 c 6.46,0 7.36,-0.593 7.36,-5.468 v -26.719 c 0,-4.469 -1.09,-4.469 -7.75,-4.469 V 379 c 3.17,0.094 8.55,0.297 10.92,0.297 3.49,0 6.96,-0.203 10.33,-0.297 v 3.078 c -6.55,0 -6.95,0.5 -6.95,4.375 z m 0.4,17.282 c 0,3.187 -2.48,5.265 -5.26,5.265 -3.08,0 -5.27,-2.672 -5.27,-5.265 0,-2.672 2.19,-5.266 5.27,-5.266 2.78,0 5.26,2.094 5.26,5.266"
         style="fill:#000000;fill-opacity:1;fill-rule:nonzero;stroke:none"
         id="path188" /><path
         d="m 1575.92,413.172 v -26.625 c 0,-4.469 -1.09,-4.469 -7.75,-4.469 V 379 c 3.49,0.094 8.55,0.297 11.24,0.297 2.57,0 7.75,-0.203 11.12,-0.297 v 3.078 c -6.65,0 -7.75,0 -7.75,4.469 v 18.281 c 0,10.328 7.05,15.891 13.41,15.891 6.26,0 7.36,-5.36 7.36,-11.031 v -23.141 c 0,-4.469 -1.1,-4.469 -7.75,-4.469 V 379 c 3.47,0.094 8.54,0.297 11.22,0.297 2.59,0 7.75,-0.203 11.12,-0.297 v 3.078 c -5.16,0 -7.64,0 -7.75,2.985 v 18.968 c 0,8.547 0,11.625 -3.08,15.203 -1.39,1.688 -4.65,3.672 -10.42,3.672 -7.25,0 -11.92,-4.265 -14.7,-10.422 v 10.422 l -14.02,-1.093 v -3.079 c 6.96,0 7.75,-0.687 7.75,-5.562"
         style="fill:#000000;fill-opacity:1;fill-rule:nonzero;stroke:none"
         id="path190" /><path
         d="m 1634.19,418.734 h 14.2 v 3.079 h -14.2 v 18.281 h -2.49 c -0.09,-8.141 -3.07,-18.781 -12.81,-19.172 v -2.188 h 8.44 v -27.421 c 0,-12.219 9.23,-13.407 12.81,-13.407 7.06,0 9.84,7.047 9.84,13.407 v 5.671 h -2.48 v -5.468 c 0,-7.344 -2.98,-11.125 -6.66,-11.125 -6.65,0 -6.65,9.047 -6.65,10.734 v 27.609"
         style="fill:#000000;fill-opacity:1;fill-rule:nonzero;stroke:none"
         id="path192" /><path
         d="m 1676.66,398.266 c 2.18,-0.391 10.34,-1.985 10.34,-9.141 0,-5.062 -3.48,-9.031 -11.23,-9.031 -8.35,0 -11.93,5.656 -13.82,14.109 -0.29,1.281 -0.39,1.688 -1.39,1.688 -1.28,0 -1.28,-0.703 -1.28,-2.485 v -13.109 c 0,-1.688 0,-2.391 1.1,-2.391 0.5,0 0.59,0.094 2.48,1.985 0.19,0.203 0.19,0.406 1.98,2.281 4.38,-4.172 8.85,-4.266 10.93,-4.266 11.42,0 16,6.657 16,13.813 0,5.265 -2.99,8.234 -4.18,9.437 -3.28,3.172 -7.15,3.969 -11.32,4.766 -5.57,1.094 -12.22,2.375 -12.22,8.141 0,3.484 2.58,7.546 11.12,7.546 10.92,0 11.42,-8.937 11.63,-12.015 0.09,-0.891 0.98,-0.891 1.18,-0.891 1.3,0 1.3,0.5 1.3,2.375 v 10.047 c 0,1.688 0,2.375 -1.09,2.375 -0.5,0 -0.71,0 -1.99,-1.187 -0.29,-0.407 -1.29,-1.297 -1.68,-1.594 -3.79,2.781 -7.86,2.781 -9.35,2.781 -12.12,0 -15.89,-6.656 -15.89,-12.219 0,-3.468 1.6,-6.25 4.27,-8.437 3.18,-2.578 5.97,-3.188 13.11,-4.578"
         style="fill:#000000;fill-opacity:1;fill-rule:nonzero;stroke:none"
         id="path194" /><path
         d="m 1738.52,449.734 c 0.48,1.282 0.48,1.579 0.48,1.782 0,1.093 -0.89,1.984 -1.98,1.984 -1.39,0 -1.79,-0.984 -2.08,-1.984 l -33.88,-93.578 c -0.5,-1.282 -0.5,-1.594 -0.5,-1.782 0,-1.093 0.89,-1.984 1.99,-1.984 1.39,0 1.79,0.984 2.09,1.984 l 33.88,93.578"
         style="fill:#000000;fill-opacity:1;fill-rule:nonzero;stroke:none"
         id="path196" /><path
         d="m 1765.66,398.266 c 2.18,-0.391 10.34,-1.985 10.34,-9.141 0,-5.062 -3.48,-9.031 -11.23,-9.031 -8.35,0 -11.93,5.656 -13.82,14.109 -0.29,1.281 -0.39,1.688 -1.39,1.688 -1.28,0 -1.28,-0.703 -1.28,-2.485 v -13.109 c 0,-1.688 0,-2.391 1.1,-2.391 0.5,0 0.59,0.094 2.48,1.985 0.19,0.203 0.19,0.406 1.98,2.281 4.38,-4.172 8.85,-4.266 10.93,-4.266 11.42,0 16,6.657 16,13.813 0,5.265 -2.99,8.234 -4.18,9.437 -3.28,3.172 -7.15,3.969 -11.32,4.766 -5.57,1.094 -12.22,2.375 -12.22,8.141 0,3.484 2.58,7.546 11.12,7.546 10.92,0 11.42,-8.937 11.63,-12.015 0.09,-0.891 0.98,-0.891 1.18,-0.891 1.3,0 1.3,0.5 1.3,2.375 v 10.047 c 0,1.688 0,2.375 -1.09,2.375 -0.5,0 -0.71,0 -1.99,-1.187 -0.29,-0.407 -1.29,-1.297 -1.68,-1.594 -3.79,2.781 -7.86,2.781 -9.35,2.781 -12.12,0 -15.89,-6.656 -15.89,-12.219 0,-3.468 1.6,-6.25 4.27,-8.437 3.18,-2.578 5.97,-3.188 13.11,-4.578"
         style="fill:#000000;fill-opacity:1;fill-rule:nonzero;stroke:none"
         id="path198" /><path
         d="m 1827.52,449.734 c 0.48,1.282 0.48,1.579 0.48,1.782 0,1.093 -0.89,1.984 -1.98,1.984 -1.39,0 -1.79,-0.984 -2.08,-1.984 l -33.88,-93.578 c -0.5,-1.282 -0.5,-1.594 -0.5,-1.782 0,-1.093 0.89,-1.984 1.99,-1.984 1.39,0 1.79,0.984 2.09,1.984 l 33.88,93.578"
         style="fill:#000000;fill-opacity:1;fill-rule:nonzero;stroke:none"
         id="path200" /><path
         d="m 1845.63,400.656 c 0,16.188 8.14,20.36 13.4,20.36 0.89,0 7.16,-0.094 10.63,-3.672 -4.07,-0.297 -4.66,-3.281 -4.66,-4.563 0,-2.593 1.78,-4.578 4.56,-4.578 2.58,0 4.57,1.688 4.57,4.672 0,6.75 -7.55,10.625 -15.19,10.625 -12.42,0 -21.56,-10.719 -21.56,-23.047 0,-12.719 9.84,-22.547 21.35,-22.547 13.32,0 16.49,11.922 16.49,12.922 0,0.985 -0.99,0.985 -1.28,0.985 -0.89,0 -1.1,-0.391 -1.3,-0.985 -2.87,-9.25 -9.34,-10.437 -13.01,-10.437 -5.27,0 -14,4.265 -14,20.265"
         style="fill:#000000;fill-opacity:1;fill-rule:nonzero;stroke:none"
         id="path202" /><path
         d="m 1924.78,400.266 c 0,12.703 -9.92,23.234 -21.95,23.234 -12.41,0 -22.05,-10.828 -22.05,-23.234 0,-12.828 10.33,-22.36 21.95,-22.36 12.02,0 22.05,9.735 22.05,22.36 z m -21.95,-19.875 c -4.27,0 -8.64,2.093 -11.31,6.656 -2.49,4.375 -2.49,10.437 -2.49,14 0,3.875 0,9.25 2.38,13.609 2.68,4.578 7.36,6.657 11.32,6.657 4.38,0 8.65,-2.188 11.22,-6.454 2.6,-4.265 2.6,-10.031 2.6,-13.812 0,-3.563 0,-8.938 -2.19,-13.313 -2.19,-4.468 -6.56,-7.343 -11.53,-7.343"
         style="fill:#000000;fill-opacity:1;fill-rule:nonzero;stroke:none"
         id="path204" /><path
         d="m 1944.59,411.984 v 10.922 l -13.81,-1.093 v -3.079 c 6.95,0 7.75,-0.687 7.75,-5.562 v -26.625 c 0,-4.469 -1.09,-4.469 -7.75,-4.469 V 379 c 3.88,0.094 8.55,0.297 11.33,0.297 3.97,0 8.64,0 12.61,-0.297 v 3.078 h -2.08 c -7.36,0 -7.55,1.094 -7.55,4.672 v 15.297 c 0,9.828 4.18,18.672 11.72,18.672 0.69,0 0.89,0 1.1,-0.094 -0.3,-0.109 -2.3,-1.297 -2.3,-3.875 0,-2.781 2.09,-4.266 4.28,-4.266 1.78,0 4.27,1.188 4.27,4.36 0,3.187 -3.08,6.062 -7.35,6.062 -7.25,0 -10.83,-6.656 -12.22,-10.922"
         style="fill:#000000;fill-opacity:1;fill-rule:nonzero;stroke:none"
         id="path206" /><path
         d="m 1978.13,404.031 c 0.59,14.797 8.93,17.282 12.31,17.282 10.23,0 11.23,-13.407 11.23,-17.282 z m -0.1,-2.078 h 27.7 c 2.19,0 2.49,0 2.49,2.078 0,9.844 -5.36,19.469 -17.78,19.469 -11.52,0 -20.66,-10.234 -20.66,-22.641 0,-13.312 10.44,-22.953 21.86,-22.953 12.11,0 16.58,11.032 16.58,12.922 0,0.985 -0.78,1.188 -1.28,1.188 -0.89,0 -1.1,-0.594 -1.3,-1.391 -3.47,-10.234 -12.42,-10.234 -13.41,-10.234 -4.96,0 -8.93,2.984 -11.23,6.656 -2.97,4.766 -2.97,11.328 -2.97,14.906"
         style="fill:#000000;fill-opacity:1;fill-rule:nonzero;stroke:none"
         id="path208" /><path
         d="m 73.9688,1194.13 c -14.7969,0.59 -17.2813,8.93 -17.2813,12.31 0,10.23 13.4063,11.23 17.2813,11.23 z m 2.0781,-0.1 v 27.7 c 0,2.19 0,2.49 -2.0781,2.49 -9.8438,0 -19.4688,-5.36 -19.4688,-17.78 0,-11.52 10.2344,-20.66 22.6406,-20.66 13.3125,0 22.9534,10.44 22.9534,21.86 0,12.11 -11.0315,16.58 -12.9221,16.58 -0.9844,0 -1.1875,-0.78 -1.1875,-1.28 0,-0.89 0.5937,-1.1 1.3906,-1.3 10.2344,-3.47 10.2344,-12.42 10.2344,-13.41 0,-4.96 -2.9844,-8.93 -6.6563,-11.23 -4.7656,-2.97 -11.3281,-2.97 -14.9062,-2.97"
         style="fill:#000000;fill-opacity:1;fill-rule:nonzero;stroke:none"
         id="path210" /><path
         d="M 66.0156,1243.59 H 55.0938 l 1.0937,-13.81 h 3.0781 c 0,6.95 0.6875,7.75 5.5625,7.75 h 26.625 c 4.4688,0 4.4688,-1.09 4.4688,-7.75 H 99 c -0.0937,3.88 -0.2969,8.55 -0.2969,11.33 0,3.97 0,8.64 0.2969,12.61 h -3.0781 v -2.08 c 0,-7.36 -1.0938,-7.55 -4.6719,-7.55 H 75.9531 c -9.8281,0 -18.6718,4.18 -18.6718,11.72 0,0.69 0,0.89 0.0937,1.1 0.1094,-0.3 1.2969,-2.3 3.875,-2.3 2.7813,0 4.2656,2.09 4.2656,4.28 0,1.78 -1.1875,4.27 -4.3593,4.27 -3.1875,0 -6.0625,-3.08 -6.0625,-7.35 0,-7.25 6.6562,-10.83 10.9218,-12.22"
         style="fill:#000000;fill-opacity:1;fill-rule:nonzero;stroke:none"
         id="path212" /><path
         d="M 66.0156,1282.59 H 55.0938 l 1.0937,-13.81 h 3.0781 c 0,6.95 0.6875,7.75 5.5625,7.75 h 26.625 c 4.4688,0 4.4688,-1.09 4.4688,-7.75 H 99 c -0.0937,3.88 -0.2969,8.55 -0.2969,11.33 0,3.97 0,8.64 0.2969,12.61 h -3.0781 v -2.08 c 0,-7.36 -1.0938,-7.55 -4.6719,-7.55 H 75.9531 c -9.8281,0 -18.6718,4.18 -18.6718,11.72 0,0.69 0,0.89 0.0937,1.1 0.1094,-0.3 1.2969,-2.3 3.875,-2.3 2.7813,0 4.2656,2.09 4.2656,4.28 0,1.78 -1.1875,4.27 -4.3593,4.27 -3.1875,0 -6.0625,-3.08 -6.0625,-7.35 0,-7.25 6.6562,-10.83 10.9218,-12.22"
         style="fill:#000000;fill-opacity:1;fill-rule:nonzero;stroke:none"
         id="path214" /><path
         d="m 77.7344,1351.78 c -12.7031,0 -23.2344,-9.92 -23.2344,-21.95 0,-12.41 10.8281,-22.05 23.2344,-22.05 12.8281,0 22.3596,10.33 22.3596,21.95 0,12.02 -9.7346,22.05 -22.3596,22.05 z m 19.875,-21.95 c 0,-4.27 -2.0938,-8.64 -6.6563,-11.31 -4.375,-2.49 -10.4375,-2.49 -14,-2.49 -3.875,0 -9.25,0 -13.6093,2.38 -4.5782,2.68 -6.6563,7.36 -6.6563,11.32 0,4.38 2.1875,8.65 6.4531,11.22 4.2657,2.6 10.0313,2.6 13.8125,2.6 3.5625,0 8.9375,0 13.3125,-2.19 4.4688,-2.19 7.3438,-6.56 7.3438,-11.53"
         style="fill:#000000;fill-opacity:1;fill-rule:nonzero;stroke:none"
         id="path216" /><path
         d="M 66.0156,1371.59 H 55.0938 l 1.0937,-13.81 h 3.0781 c 0,6.95 0.6875,7.75 5.5625,7.75 h 26.625 c 4.4688,0 4.4688,-1.09 4.4688,-7.75 H 99 c -0.0937,3.88 -0.2969,8.55 -0.2969,11.33 0,3.97 0,8.64 0.2969,12.61 h -3.0781 v -2.08 c 0,-7.36 -1.0938,-7.55 -4.6719,-7.55 H 75.9531 c -9.8281,0 -18.6718,4.18 -18.6718,11.72 0,0.69 0,0.89 0.0937,1.1 0.1094,-0.3 1.2969,-2.3 3.875,-2.3 2.7813,0 4.2656,2.09 4.2656,4.28 0,1.78 -1.1875,4.27 -4.3593,4.27 -3.1875,0 -6.0625,-3.08 -6.0625,-7.35 0,-7.25 6.6562,-10.83 10.9218,-12.22"
         style="fill:#000000;fill-opacity:1;fill-rule:nonzero;stroke:none"
         id="path218" /><path
         d="m 680.508,19.8945 h 2079.8 v 271.832 h -2079.8 z"
         style="fill:#ffffff;fill-opacity:1;fill-rule:nonzero;stroke:none"
         id="path220" /><path
         d="M 714.328,213.828 H 884.414"
         style="fill:none;stroke:#28508c;stroke-width:7.9701;stroke-linecap:butt;stroke-linejoin:miter;stroke-miterlimit:10;stroke-dasharray:none;stroke-opacity:1"
         id="path222" /><path
         d="m 813.32,213.828 c 0,7.703 -6.246,13.949 -13.949,13.949 -7.703,0 -13.949,-6.246 -13.949,-13.949 0,-7.703 6.246,-13.945 13.949,-13.945 7.703,0 13.949,6.242 13.949,13.945 z"
         style="fill:#28508c;fill-opacity:1;fill-rule:nonzero;stroke:#28508c;stroke-width:7.9701;stroke-linecap:butt;stroke-linejoin:miter;stroke-miterlimit:10;stroke-dasharray:none;stroke-opacity:1"
         id="path224" /><path
         d="m 957.188,212.656 h -2.454 c -0.953,-8.265 -2.156,-18.031 -16.687,-18.031 h -7.391 c -3.656,0 -3.828,0.547 -3.828,3.25 v 41.891 c 0,2.781 0,3.89 7.469,3.89 h 2.547 v 2.625 c -3.578,-0.234 -9.375,-0.234 -13.11,-0.234 -5.328,0 -5.484,0 -12.234,0.234 v -2.625 h 1.75 c 6.109,0 6.266,-0.875 6.266,-3.812 v -41.406 c 0,-2.938 -0.157,-3.813 -6.266,-3.813 H 911.5 V 192 h 43.391 l 2.297,20.656"
         style="fill:#000000;fill-opacity:1;fill-rule:nonzero;stroke:none"
         id="path226" /><path
         d="m 994.375,215.688 c 0,7.781 -7.547,11.75 -14.781,11.75 -6.594,0 -12.469,-2.532 -12.469,-7.782 0,-2.39 1.656,-3.812 3.734,-3.812 2.219,0 3.735,1.594 3.735,3.734 0,1.906 -1.203,3.25 -2.938,3.656 2.938,1.985 7.219,1.985 7.782,1.985 4.453,0 8.906,-3.094 8.906,-9.61 v -2.468 c -4.61,-0.235 -9.938,-0.485 -15.5,-2.782 -7,-3.015 -8.344,-7.625 -8.344,-10.25 0,-6.843 8.016,-8.906 13.5,-8.906 5.813,0 9.391,3.266 11.125,6.438 0.406,-3.016 2.469,-6.032 5.969,-6.032 0.797,0 7.546,0.313 7.546,7.547 v 4.36 h -2.47 v -4.36 c 0,-3.265 -1.186,-4.531 -2.857,-4.531 -2.938,0 -2.938,3.656 -2.938,4.531 z m -6.031,-12.485 c 0,-7.703 -6.516,-9.765 -9.703,-9.765 -4.125,0 -7.625,2.781 -7.625,6.593 0,5.235 4.922,10.641 17.328,11.047 v -7.875"
         style="fill:#000000;fill-opacity:1;fill-rule:nonzero;stroke:none"
         id="path228" /><path
         d="m 1024.91,179.203 c -5.1,0 -6.05,0 -6.05,3.578 v 13.11 c 3.73,-4.047 7.8,-4.688 10.33,-4.688 10.09,0 18.84,7.797 18.84,17.969 0,9.922 -8.03,17.875 -17.64,17.875 -3.11,0 -7.72,-0.797 -11.76,-4.922 v 4.922 l -11.85,-0.875 v -2.625 c 5.64,0 6.05,-0.469 6.05,-3.813 v -36.953 c 0,-3.578 -0.95,-3.578 -6.05,-3.578 v -2.625 c 3.42,0.25 6.91,0.25 9.06,0.25 2.3,0 5.64,0 9.07,-0.25 z m -6.05,39.266 c 1.83,3.172 5.8,6.109 10.81,6.109 6.11,0 11.28,-6.75 11.28,-15.406 0,-9.141 -5.72,-15.734 -12.15,-15.734 -2.78,0 -6.44,1.187 -8.99,5.156 -0.95,1.359 -0.95,1.437 -0.95,2.937 v 16.938"
         style="fill:#000000;fill-opacity:1;fill-rule:nonzero;stroke:none"
         id="path230" /><path
         d="m 1066.17,247.156 -11.83,-0.875 v -2.625 c 5.39,0 6.04,-0.562 6.04,-4.453 v -41 c 0,-3.578 -0.96,-3.578 -6.04,-3.578 V 192 c 3.1,0.234 7.55,0.234 8.89,0.234 1.6,0 5.9,0 8.99,-0.234 v 2.625 c -5.09,0 -6.05,0 -6.05,3.578 v 48.953"
         style="fill:#000000;fill-opacity:1;fill-rule:nonzero;stroke:none"
         id="path232" /><path
         d="m 1107.38,215.688 c 0,7.781 -7.55,11.75 -14.79,11.75 -6.59,0 -12.46,-2.532 -12.46,-7.782 0,-2.39 1.65,-3.812 3.73,-3.812 2.22,0 3.73,1.594 3.73,3.734 0,1.906 -1.2,3.25 -2.93,3.656 2.93,1.985 7.22,1.985 7.78,1.985 4.45,0 8.9,-3.094 8.9,-9.61 v -2.468 c -4.61,-0.235 -9.93,-0.485 -15.5,-2.782 -7,-3.015 -8.34,-7.625 -8.34,-10.25 0,-6.843 8.02,-8.906 13.5,-8.906 5.81,0 9.39,3.266 11.13,6.438 0.4,-3.016 2.46,-6.032 5.96,-6.032 0.8,0 7.55,0.313 7.55,7.547 v 4.36 h -2.47 v -4.36 c 0,-3.265 -1.19,-4.531 -2.86,-4.531 -2.93,0 -2.93,3.656 -2.93,4.531 z m -6.04,-12.485 c 0,-7.703 -6.51,-9.765 -9.7,-9.765 -4.12,0 -7.62,2.781 -7.62,6.593 0,5.235 4.92,10.641 17.32,11.047 v -7.875"
         style="fill:#000000;fill-opacity:1;fill-rule:nonzero;stroke:none"
         id="path234" /><path
         d="m 1145.25,223.547 c -2.23,-0.719 -2.55,-2.547 -2.55,-3.5 0,-2.141 1.52,-3.734 3.74,-3.734 2.06,0 3.73,1.437 3.73,3.812 0,4.938 -5.4,7.313 -12.87,7.313 -11.05,0 -18.52,-8.813 -18.52,-18.266 0,-10.094 8.27,-17.969 18.28,-17.969 11.21,0 13.99,9.375 13.99,10.328 0,0.953 -1.03,0.953 -1.27,0.953 -0.56,0 -0.95,-0.078 -1.2,-0.875 -0.55,-1.656 -2.78,-7.937 -10.72,-7.937 -4.94,0 -12,3.812 -12,15.578 0,11.438 5.87,15.734 11.67,15.734 0.72,0 4.94,0 7.72,-1.437"
         style="fill:#000000;fill-opacity:1;fill-rule:nonzero;stroke:none"
         id="path236" /><path
         d="m 1186.83,210.125 c 1.73,0 2.22,0 2.22,1.828 0,7.063 -3.89,15.485 -15.1,15.485 -9.86,0 -17.56,-8.172 -17.56,-18.032 0,-10.25 8.58,-18.203 18.59,-18.203 10.1,0 14.07,8.5 14.07,10.328 0,0.328 -0.24,1.125 -1.27,1.125 -0.87,0 -1.05,-0.562 -1.2,-1.047 -2.86,-7.703 -9.69,-7.937 -11.13,-7.937 -3.57,0 -7.23,1.672 -9.61,5.328 -2.39,3.656 -2.39,8.734 -2.39,11.125 z m -23.3,2.063 c 0.72,11.125 7.47,13.031 10.42,13.031 9.3,0 9.61,-11.203 9.69,-13.031 h -20.11"
         style="fill:#000000;fill-opacity:1;fill-rule:nonzero;stroke:none"
         id="path238" /><path
         d="m 1206.86,193.188 c 0,-2.375 0,-8.891 -6.03,-14.532 -0.25,-0.25 -0.49,-0.406 -0.49,-0.875 0,-0.718 0.72,-1.203 1.11,-1.203 1.03,0 7.64,6.203 7.64,15.735 0,4.375 -1.59,8.515 -5.4,8.515 -2.63,0 -4.38,-2.078 -4.38,-4.375 0,-2.39 1.67,-4.453 4.46,-4.453 1.75,0 2.86,0.953 3.09,1.188"
         style="fill:#000000;fill-opacity:1;fill-rule:nonzero;stroke:none"
         id="path240" /><path
         d="m 1265.56,221 h 9.14 c -1.65,-7.219 -3.09,-13.109 -3.09,-18.984 0,-0.563 0,-3.969 0.87,-6.844 1.04,-3.328 1.83,-3.969 3.25,-3.969 1.75,0 3.58,1.516 3.58,3.422 0,0.547 -0.08,0.719 -0.39,1.422 -1.67,3.656 -2.86,7.469 -2.86,14 0,1.828 0,5.156 1.19,10.953 h 9.63 c 1.26,0 2.14,0 2.93,0.641 0.96,0.875 1.19,1.906 1.19,2.39 0,2.219 -1.98,2.219 -3.34,2.219 h -28.69 c -1.67,0 -4.69,0 -8.58,-3.812 -2.86,-2.86 -5.09,-6.516 -5.09,-7.079 0,-0.703 0.56,-0.953 1.2,-0.953 0.8,0 0.95,0.25 1.42,0.875 3.91,5.719 8.6,5.719 10.42,5.719 h 4.61 c -2.31,-8.422 -6.51,-18.031 -9.47,-23.828 -0.54,-1.203 -1.34,-2.781 -1.34,-3.5 0,-1.672 1.34,-2.469 2.63,-2.469 3.01,0 3.81,3.016 5.48,9.531 l 5.31,20.266"
         style="fill:#000000;fill-opacity:1;fill-rule:nonzero;stroke:none"
         id="path242" /><path
         d="m 1331.95,248.266 c 0.49,1.109 0.49,1.265 0.49,1.515 0,1.032 -0.8,1.828 -1.83,1.828 -1.28,0 -1.59,-0.953 -1.92,-1.75 l -28.52,-74.39 c -0.48,-1.11 -0.48,-1.266 -0.48,-1.516 0,-1.031 0.79,-1.828 1.83,-1.828 1.26,0 1.59,0.969 1.9,1.75 l 28.53,74.391"
         style="fill:#000000;fill-opacity:1;fill-rule:nonzero;stroke:none"
         id="path244" /><path
         d="m 1347.97,218.297 c 0,6.609 0.55,12.406 3.42,17.25 2.38,3.969 6.44,7.234 11.44,7.234 1.59,0 5.25,-0.234 7.08,-3.015 -3.58,-0.157 -3.91,-2.86 -3.91,-3.735 0,-2.39 1.83,-3.734 3.73,-3.734 1.44,0 3.75,0.875 3.75,3.891 0,4.765 -3.57,8.656 -10.73,8.656 -11.05,0 -22.25,-10.485 -22.25,-27.656 0,-21.532 10.02,-26.86 17.72,-26.86 3.81,0 7.95,1.031 11.51,4.453 3.19,3.094 5.9,6.438 5.9,13.344 0,10.422 -7.88,17.734 -16.69,17.734 -5.72,0 -9.14,-3.656 -10.97,-7.562 z m 10.25,-25.578 c -4.22,0 -6.83,2.937 -8.03,5.156 -1.83,3.578 -1.99,8.984 -1.99,12 0,7.875 4.3,13.75 10.41,13.75 3.98,0 6.36,-2.062 7.87,-4.844 1.68,-2.937 1.68,-6.515 1.68,-10.562 0,-4.063 0,-7.563 -1.6,-10.422 -2.06,-3.656 -4.84,-5.078 -8.34,-5.078"
         style="fill:#000000;fill-opacity:1;fill-rule:nonzero;stroke:none"
         id="path246" /><path
         d="m 1403.57,213.828 h 170.08"
         style="fill:none;stroke:#28508c;stroke-width:7.9701;stroke-linecap:butt;stroke-linejoin:miter;stroke-miterlimit:10;stroke-dasharray:29.8883, 29.8883;stroke-dashoffset:0;stroke-opacity:1"
         id="path248" /><path
         d="m 1502.56,213.828 c 0,7.703 -6.25,13.949 -13.95,13.949 -7.7,0 -13.95,-6.246 -13.95,-13.949 0,-7.703 6.25,-13.945 13.95,-13.945 7.7,0 13.95,6.242 13.95,13.945 z"
         style="fill:#28508c;fill-opacity:1;fill-rule:nonzero;stroke:#28508c;stroke-width:7.9701;stroke-linecap:butt;stroke-linejoin:miter;stroke-miterlimit:10;stroke-dasharray:29.8883, 29.8883;stroke-dashoffset:0;stroke-opacity:1"
         id="path250" /><path
         d="m 1616.52,225.141 c -5.08,1.187 -8.83,5.25 -8.83,10.093 0,5.329 4.61,10.329 11.53,10.329 13.75,0 15.58,-12.875 15.97,-15.891 0.15,-0.875 0.25,-1.438 1.28,-1.438 1.26,0 1.26,0.563 1.26,2.063 v 15.578 c 0,1.281 0,2.078 -1.03,2.078 -0.64,0 -0.79,-0.25 -1.36,-1.125 l -2.78,-4.437 c -3.97,4.359 -9.04,5.562 -13.42,5.562 -9.45,0 -16.45,-7.156 -16.45,-15.265 0,-6.032 3.42,-9.375 4.92,-10.891 2.87,-2.859 5.48,-3.5 14.08,-5.484 6.83,-1.579 8.01,-1.829 10.64,-4.61 0.8,-0.875 2.78,-3.578 2.78,-7.469 0,-5.484 -4.2,-11.281 -11.67,-11.281 -8.75,0 -17.81,4.219 -18.28,15.266 -0.08,1.265 -0.08,1.828 -1.21,1.828 -1.26,0 -1.26,-0.641 -1.26,-2.156 v -15.5 c 0,-1.266 0,-2.063 1.03,-2.063 0.64,0 0.72,0.156 1.28,0.953 0.31,0.485 0.63,1.203 2.86,4.532 5,-4.454 10.87,-5.485 15.66,-5.485 9.92,0 16.61,7.875 16.61,16.375 0,6.906 -4.54,13.985 -12.65,15.891 l -10.96,2.547"
         style="fill:#000000;fill-opacity:1;fill-rule:nonzero;stroke:none"
         id="path252" /><path
         d="m 1659.78,223.625 h 11.85 v 2.625 h -11.85 v 14.625 h -2.47 c -0.08,-7.234 -3.33,-14.781 -10.72,-15.016 v -2.234 h 7.14 v -21.687 c 0,-9.297 7.16,-10.735 10.82,-10.735 5.33,0 8.5,4.766 8.5,10.735 v 4.453 h -2.46 v -4.297 c 0,-5.485 -2.46,-8.422 -5.48,-8.422 -5.33,0 -5.33,6.828 -5.33,8.109 v 21.844"
         style="fill:#000000;fill-opacity:1;fill-rule:nonzero;stroke:none"
         id="path254" /><path
         d="m 1717.73,208.922 c 0,9.937 -8.18,18.516 -18.67,18.516 -10.5,0 -18.67,-8.579 -18.67,-18.516 0,-9.922 8.5,-17.719 18.67,-17.719 10.25,0 18.67,7.797 18.67,17.719 z m -18.67,-15.25 c -4.29,0 -7.62,2.062 -9.37,4.844 -2,3.265 -2.24,7.156 -2.24,11.125 0,3.015 0,7.797 2.47,11.203 2.06,2.781 5.41,4.375 9.14,4.375 4.13,0 7.55,-1.985 9.38,-4.766 2.14,-3.344 2.22,-7.625 2.22,-10.812 0,-3.657 -0.16,-8.032 -2.38,-11.36 -2.15,-3.187 -5.72,-4.609 -9.22,-4.609"
         style="fill:#000000;fill-opacity:1;fill-rule:nonzero;stroke:none"
         id="path256" /><path
         d="m 1743.92,213.609 6.75,5.407 c 5.25,4.14 8.6,4.531 10.58,4.609 v 2.625 c -1.91,-0.234 -3.03,-0.234 -6.28,-0.234 -3.89,0 -5.02,0.078 -8.5,0.234 v -2.625 c 1.5,-0.078 1.83,-1.109 1.83,-1.578 0,-1.672 -1.6,-3.031 -2.24,-3.5 l -11.43,-9.219 v 37.828 l -11.85,-0.875 v -2.625 c 5.41,0 6.05,-0.562 6.05,-4.453 v -41 c 0,-3.578 -0.95,-3.578 -6.05,-3.578 V 192 c 3.1,0.234 7.39,0.234 8.74,0.234 1.59,0 5.73,0 8.82,-0.234 v 2.625 c -5.07,0 -6.04,0 -6.04,3.578 v 7.703 l 5.4,4.297 c 0.25,0 2.32,-2.781 3.58,-4.297 1.2,-1.672 2.47,-3.25 3.74,-4.843 1.11,-1.594 2.78,-3.657 2.78,-4.844 0,-1.36 -1.5,-1.594 -2.46,-1.594 V 192 c 3.41,0.234 6.99,0.234 8.35,0.234 3.01,0 4.61,0 7.39,-0.234 v 2.625 c -3.35,0 -4.78,0.313 -7.64,4.047 l -11.52,14.937"
         style="fill:#000000;fill-opacity:1;fill-rule:nonzero;stroke:none"
         id="path258" /><path
         d="m 1794.83,210.125 c 1.73,0 2.22,0 2.22,1.828 0,7.063 -3.89,15.485 -15.1,15.485 -9.86,0 -17.56,-8.172 -17.56,-18.032 0,-10.25 8.58,-18.203 18.59,-18.203 10.1,0 14.07,8.5 14.07,10.328 0,0.328 -0.24,1.125 -1.27,1.125 -0.87,0 -1.05,-0.562 -1.2,-1.047 -2.86,-7.703 -9.69,-7.937 -11.13,-7.937 -3.57,0 -7.23,1.672 -9.61,5.328 -2.39,3.656 -2.39,8.734 -2.39,11.125 z m -23.3,2.063 c 0.72,11.125 7.47,13.031 10.42,13.031 9.3,0 9.61,-11.203 9.69,-13.031 h -20.11"
         style="fill:#000000;fill-opacity:1;fill-rule:nonzero;stroke:none"
         id="path260" /><path
         d="m 1828.3,225.375 c 0,1.281 0,2.063 -1.03,2.063 -0.41,0 -0.64,0 -1.93,-1.266 -0.15,-0.078 -0.86,-0.797 -1.11,-0.797 -0.07,0 -0.23,0 -0.71,0.313 -1.27,0.875 -3.57,1.75 -7.14,1.75 -11.13,0 -13.6,-6.032 -13.6,-9.844 0,-3.985 2.94,-6.281 3.17,-6.516 3.19,-2.39 5.02,-2.703 10.35,-3.656 3.73,-0.719 9.84,-1.828 9.84,-7.234 0,-3.094 -2.06,-6.75 -9.37,-6.75 -8.04,0 -10.33,6.187 -11.36,10.406 -0.32,1.031 -0.41,1.422 -1.36,1.422 -1.27,0 -1.27,-0.625 -1.27,-2.141 v -9.859 c 0,-1.266 0,-2.063 1.03,-2.063 0.49,0 0.57,0.078 1.99,1.594 0.4,0.391 1.28,1.422 1.67,1.828 3.58,-3.266 7.31,-3.422 9.37,-3.422 10.1,0 13.6,5.797 13.6,11.047 0,3.813 -2.31,9.375 -11.77,11.125 -0.62,0.156 -5.08,0.953 -5.4,0.953 -2.46,0.563 -6.19,2.235 -6.19,5.406 0,2.391 1.75,5.719 9.3,5.719 8.89,0 9.29,-6.515 9.45,-8.734 0.08,-0.641 0.64,-0.875 1.19,-0.875 1.28,0 1.28,0.547 1.28,2.062 v 7.469"
         style="fill:#000000;fill-opacity:1;fill-rule:nonzero;stroke:none"
         id="path262" /><path
         d="m 1847.86,193.188 c 0,-2.375 0,-8.891 -6.03,-14.532 -0.25,-0.25 -0.49,-0.406 -0.49,-0.875 0,-0.718 0.72,-1.203 1.11,-1.203 1.03,0 7.64,6.203 7.64,15.735 0,4.375 -1.59,8.515 -5.4,8.515 -2.63,0 -4.38,-2.078 -4.38,-4.375 0,-2.39 1.67,-4.453 4.46,-4.453 1.75,0 2.86,0.953 3.09,1.188"
         style="fill:#000000;fill-opacity:1;fill-rule:nonzero;stroke:none"
         id="path264" /><path
         d="m 1907.56,221 h 9.14 c -1.65,-7.219 -3.09,-13.109 -3.09,-18.984 0,-0.563 0,-3.969 0.87,-6.844 1.04,-3.328 1.83,-3.969 3.25,-3.969 1.75,0 3.58,1.516 3.58,3.422 0,0.547 -0.08,0.719 -0.39,1.422 -1.67,3.656 -2.86,7.469 -2.86,14 0,1.828 0,5.156 1.19,10.953 h 9.63 c 1.26,0 2.14,0 2.93,0.641 0.96,0.875 1.19,1.906 1.19,2.39 0,2.219 -1.98,2.219 -3.34,2.219 h -28.69 c -1.67,0 -4.69,0 -8.58,-3.812 -2.86,-2.86 -5.09,-6.516 -5.09,-7.079 0,-0.703 0.56,-0.953 1.2,-0.953 0.8,0 0.95,0.25 1.42,0.875 3.91,5.719 8.6,5.719 10.42,5.719 h 4.61 c -2.31,-8.422 -6.51,-18.031 -9.47,-23.828 -0.54,-1.203 -1.34,-2.781 -1.34,-3.5 0,-1.672 1.34,-2.469 2.63,-2.469 3.01,0 3.81,3.016 5.48,9.531 l 5.31,20.266"
         style="fill:#000000;fill-opacity:1;fill-rule:nonzero;stroke:none"
         id="path266" /><path
         d="m 1973.95,248.266 c 0.49,1.109 0.49,1.265 0.49,1.515 0,1.032 -0.8,1.828 -1.83,1.828 -1.28,0 -1.59,-0.953 -1.92,-1.75 l -28.52,-74.39 c -0.48,-1.11 -0.48,-1.266 -0.48,-1.516 0,-1.031 0.79,-1.828 1.83,-1.828 1.26,0 1.59,0.969 1.9,1.75 l 28.53,74.391"
         style="fill:#000000;fill-opacity:1;fill-rule:nonzero;stroke:none"
         id="path268" /><path
         d="m 1989.97,218.297 c 0,6.609 0.55,12.406 3.42,17.25 2.38,3.969 6.44,7.234 11.44,7.234 1.59,0 5.25,-0.234 7.08,-3.015 -3.58,-0.157 -3.91,-2.86 -3.91,-3.735 0,-2.39 1.83,-3.734 3.73,-3.734 1.44,0 3.75,0.875 3.75,3.891 0,4.765 -3.57,8.656 -10.73,8.656 -11.05,0 -22.25,-10.485 -22.25,-27.656 0,-21.532 10.02,-26.86 17.72,-26.86 3.81,0 7.95,1.031 11.51,4.453 3.19,3.094 5.9,6.438 5.9,13.344 0,10.422 -7.88,17.734 -16.69,17.734 -5.72,0 -9.14,-3.656 -10.97,-7.562 z m 10.25,-25.578 c -4.22,0 -6.83,2.937 -8.03,5.156 -1.83,3.578 -1.99,8.984 -1.99,12 0,7.875 4.3,13.75 10.41,13.75 3.98,0 6.36,-2.062 7.87,-4.844 1.68,-2.937 1.68,-6.515 1.68,-10.562 0,-4.063 0,-7.563 -1.6,-10.422 -2.06,-3.656 -4.84,-5.078 -8.34,-5.078"
         style="fill:#000000;fill-opacity:1;fill-rule:nonzero;stroke:none"
         id="path270" /><path
         d="m 2045.09,213.828 h 170.08"
         style="fill:none;stroke:#be2828;stroke-width:7.9701;stroke-linecap:butt;stroke-linejoin:miter;stroke-miterlimit:10;stroke-dasharray:none;stroke-opacity:1"
         id="path272" /><path
         d="m 2116.18,199.883 h 27.8945 v 27.8945 H 2116.18 Z"
         style="fill:#be2828;fill-opacity:1;fill-rule:nonzero;stroke:#be2828;stroke-width:7.9701;stroke-linecap:butt;stroke-linejoin:miter;stroke-miterlimit:10;stroke-dasharray:none;stroke-opacity:1"
         id="path274" /><path
         d="m 2288.19,212.656 h -2.46 c -0.95,-8.265 -2.15,-18.031 -16.68,-18.031 h -7.39 c -3.66,0 -3.83,0.547 -3.83,3.25 v 41.891 c 0,2.781 0,3.89 7.47,3.89 h 2.54 v 2.625 c -3.57,-0.234 -9.37,-0.234 -13.11,-0.234 -5.32,0 -5.48,0 -12.23,0.234 v -2.625 h 1.75 c 6.11,0 6.27,-0.875 6.27,-3.812 v -41.406 c 0,-2.938 -0.16,-3.813 -6.27,-3.813 h -1.75 V 192 h 43.39 l 2.3,20.656"
         style="fill:#000000;fill-opacity:1;fill-rule:nonzero;stroke:none"
         id="path276" /><path
         d="m 2325.38,215.688 c 0,7.781 -7.55,11.75 -14.79,11.75 -6.59,0 -12.46,-2.532 -12.46,-7.782 0,-2.39 1.65,-3.812 3.73,-3.812 2.22,0 3.73,1.594 3.73,3.734 0,1.906 -1.2,3.25 -2.93,3.656 2.93,1.985 7.22,1.985 7.78,1.985 4.45,0 8.9,-3.094 8.9,-9.61 v -2.468 c -4.61,-0.235 -9.93,-0.485 -15.5,-2.782 -7,-3.015 -8.34,-7.625 -8.34,-10.25 0,-6.843 8.02,-8.906 13.5,-8.906 5.81,0 9.39,3.266 11.13,6.438 0.4,-3.016 2.46,-6.032 5.96,-6.032 0.8,0 7.55,0.313 7.55,7.547 v 4.36 h -2.47 v -4.36 c 0,-3.265 -1.19,-4.531 -2.86,-4.531 -2.93,0 -2.93,3.656 -2.93,4.531 z m -6.04,-12.485 c 0,-7.703 -6.51,-9.765 -9.7,-9.765 -4.12,0 -7.62,2.781 -7.62,6.593 0,5.235 4.92,10.641 17.32,11.047 v -7.875"
         style="fill:#000000;fill-opacity:1;fill-rule:nonzero;stroke:none"
         id="path278" /><path
         d="m 2354.91,179.203 c -5.1,0 -6.05,0 -6.05,3.578 v 13.11 c 3.73,-4.047 7.8,-4.688 10.33,-4.688 10.09,0 18.84,7.797 18.84,17.969 0,9.922 -8.03,17.875 -17.64,17.875 -3.11,0 -7.72,-0.797 -11.76,-4.922 v 4.922 l -11.85,-0.875 v -2.625 c 5.64,0 6.05,-0.469 6.05,-3.813 v -36.953 c 0,-3.578 -0.95,-3.578 -6.05,-3.578 v -2.625 c 3.42,0.25 6.91,0.25 9.06,0.25 2.3,0 5.64,0 9.07,-0.25 z m -6.05,39.266 c 1.83,3.172 5.8,6.109 10.81,6.109 6.11,0 11.28,-6.75 11.28,-15.406 0,-9.141 -5.72,-15.734 -12.15,-15.734 -2.78,0 -6.44,1.187 -8.99,5.156 -0.95,1.359 -0.95,1.437 -0.95,2.937 v 16.938"
         style="fill:#000000;fill-opacity:1;fill-rule:nonzero;stroke:none"
         id="path280" /><path
         d="m 2396.17,247.156 -11.83,-0.875 v -2.625 c 5.39,0 6.04,-0.562 6.04,-4.453 v -41 c 0,-3.578 -0.96,-3.578 -6.04,-3.578 V 192 c 3.1,0.234 7.55,0.234 8.89,0.234 1.6,0 5.9,0 8.99,-0.234 v 2.625 c -5.09,0 -6.05,0 -6.05,3.578 v 48.953"
         style="fill:#000000;fill-opacity:1;fill-rule:nonzero;stroke:none"
         id="path282" /><path
         d="m 2438.38,215.688 c 0,7.781 -7.55,11.75 -14.79,11.75 -6.59,0 -12.46,-2.532 -12.46,-7.782 0,-2.39 1.65,-3.812 3.73,-3.812 2.22,0 3.73,1.594 3.73,3.734 0,1.906 -1.2,3.25 -2.93,3.656 2.93,1.985 7.22,1.985 7.78,1.985 4.45,0 8.9,-3.094 8.9,-9.61 v -2.468 c -4.61,-0.235 -9.93,-0.485 -15.5,-2.782 -7,-3.015 -8.34,-7.625 -8.34,-10.25 0,-6.843 8.02,-8.906 13.5,-8.906 5.81,0 9.39,3.266 11.13,6.438 0.4,-3.016 2.46,-6.032 5.96,-6.032 0.8,0 7.55,0.313 7.55,7.547 v 4.36 h -2.47 v -4.36 c 0,-3.265 -1.19,-4.531 -2.86,-4.531 -2.93,0 -2.93,3.656 -2.93,4.531 z m -6.04,-12.485 c 0,-7.703 -6.51,-9.765 -9.7,-9.765 -4.12,0 -7.62,2.781 -7.62,6.593 0,5.235 4.92,10.641 17.32,11.047 v -7.875"
         style="fill:#000000;fill-opacity:1;fill-rule:nonzero;stroke:none"
         id="path284" /><path
         d="m 2476.25,223.547 c -2.23,-0.719 -2.55,-2.547 -2.55,-3.5 0,-2.141 1.52,-3.734 3.74,-3.734 2.06,0 3.73,1.437 3.73,3.812 0,4.938 -5.4,7.313 -12.87,7.313 -11.05,0 -18.52,-8.813 -18.52,-18.266 0,-10.094 8.27,-17.969 18.28,-17.969 11.21,0 13.99,9.375 13.99,10.328 0,0.953 -1.03,0.953 -1.27,0.953 -0.56,0 -0.95,-0.078 -1.2,-0.875 -0.55,-1.656 -2.78,-7.937 -10.72,-7.937 -4.94,0 -12,3.812 -12,15.578 0,11.438 5.87,15.734 11.67,15.734 0.72,0 4.94,0 7.72,-1.437"
         style="fill:#000000;fill-opacity:1;fill-rule:nonzero;stroke:none"
         id="path286" /><path
         d="m 2517.83,210.125 c 1.73,0 2.22,0 2.22,1.828 0,7.063 -3.89,15.485 -15.1,15.485 -9.86,0 -17.56,-8.172 -17.56,-18.032 0,-10.25 8.58,-18.203 18.59,-18.203 10.1,0 14.07,8.5 14.07,10.328 0,0.328 -0.24,1.125 -1.27,1.125 -0.87,0 -1.05,-0.562 -1.2,-1.047 -2.86,-7.703 -9.69,-7.937 -11.13,-7.937 -3.57,0 -7.23,1.672 -9.61,5.328 -2.39,3.656 -2.39,8.734 -2.39,11.125 z m -23.3,2.063 c 0.72,11.125 7.47,13.031 10.42,13.031 9.3,0 9.61,-11.203 9.69,-13.031 h -20.11"
         style="fill:#000000;fill-opacity:1;fill-rule:nonzero;stroke:none"
         id="path288" /><path
         d="m 2536.86,193.188 c 0,-2.375 0,-8.891 -6.03,-14.532 -0.25,-0.25 -0.49,-0.406 -0.49,-0.875 0,-0.718 0.72,-1.203 1.11,-1.203 1.03,0 7.64,6.203 7.64,15.735 0,4.375 -1.59,8.515 -5.4,8.515 -2.63,0 -4.38,-2.078 -4.38,-4.375 0,-2.39 1.67,-4.453 4.46,-4.453 1.75,0 2.86,0.953 3.09,1.188"
         style="fill:#000000;fill-opacity:1;fill-rule:nonzero;stroke:none"
         id="path290" /><path
         d="m 2596.56,221 h 9.14 c -1.65,-7.219 -3.09,-13.109 -3.09,-18.984 0,-0.563 0,-3.969 0.87,-6.844 1.04,-3.328 1.83,-3.969 3.25,-3.969 1.75,0 3.58,1.516 3.58,3.422 0,0.547 -0.08,0.719 -0.39,1.422 -1.67,3.656 -2.86,7.469 -2.86,14 0,1.828 0,5.156 1.19,10.953 h 9.63 c 1.26,0 2.14,0 2.93,0.641 0.96,0.875 1.19,1.906 1.19,2.39 0,2.219 -1.98,2.219 -3.34,2.219 h -28.69 c -1.67,0 -4.69,0 -8.58,-3.812 -2.86,-2.86 -5.09,-6.516 -5.09,-7.079 0,-0.703 0.56,-0.953 1.2,-0.953 0.8,0 0.95,0.25 1.42,0.875 3.91,5.719 8.6,5.719 10.42,5.719 h 4.61 c -2.31,-8.422 -6.51,-18.031 -9.47,-23.828 -0.54,-1.203 -1.34,-2.781 -1.34,-3.5 0,-1.672 1.34,-2.469 2.63,-2.469 3.01,0 3.81,3.016 5.48,9.531 l 5.31,20.266"
         style="fill:#000000;fill-opacity:1;fill-rule:nonzero;stroke:none"
         id="path292" /><path
         d="m 2662.95,248.266 c 0.49,1.109 0.49,1.265 0.49,1.515 0,1.032 -0.8,1.828 -1.83,1.828 -1.28,0 -1.59,-0.953 -1.92,-1.75 l -28.52,-74.39 c -0.48,-1.11 -0.48,-1.266 -0.48,-1.516 0,-1.031 0.79,-1.828 1.83,-1.828 1.26,0 1.59,0.969 1.9,1.75 l 28.53,74.391"
         style="fill:#000000;fill-opacity:1;fill-rule:nonzero;stroke:none"
         id="path294" /><path
         d="m 2690.41,208.219 c 1.28,1.187 4.61,3.812 5.89,4.922 4.92,4.531 9.61,8.906 9.61,16.125 0,9.468 -7.96,15.578 -17.88,15.578 -9.55,0 -15.81,-7.235 -15.81,-14.297 0,-3.891 3.09,-4.453 4.2,-4.453 1.67,0 4.14,1.187 4.14,4.203 0,4.141 -3.98,4.141 -4.93,4.141 2.31,5.796 7.64,7.781 11.53,7.781 7.39,0 11.2,-6.266 11.2,-12.953 0,-8.266 -5.8,-14.297 -15.19,-23.922 l -10,-10.328 c -0.95,-0.875 -0.95,-1.032 -0.95,-3.016 h 31.39 l 2.3,14.219 h -2.47 c -0.24,-1.578 -0.88,-5.563 -1.83,-7.063 -0.47,-0.64 -6.52,-0.64 -7.78,-0.64 h -14.14 l 10.72,9.703"
         style="fill:#000000;fill-opacity:1;fill-rule:nonzero;stroke:none"
         id="path296" /><path
         d="M 714.328,97.8516 H 884.414"
         style="fill:none;stroke:#be2828;stroke-width:7.9701;stroke-linecap:butt;stroke-linejoin:miter;stroke-miterlimit:10;stroke-dasharray:29.8883, 29.8883;stroke-dashoffset:0;stroke-opacity:1"
         id="path298" /><path
         d="m 785.422,83.9023 h 27.8984 v 27.8945 H 785.422 Z"
         style="fill:#be2828;fill-opacity:1;fill-rule:nonzero;stroke:#be2828;stroke-width:7.9701;stroke-linecap:butt;stroke-linejoin:miter;stroke-miterlimit:10;stroke-dasharray:29.8883, 29.8883;stroke-dashoffset:0;stroke-opacity:1"
         id="path300" /><path
         d="m 950.516,109.141 c -5.078,1.187 -8.828,5.25 -8.828,10.093 0,5.329 4.609,10.329 11.531,10.329 13.75,0 15.578,-12.875 15.969,-15.891 0.156,-0.875 0.25,-1.438 1.281,-1.438 1.265,0 1.265,0.563 1.265,2.063 v 15.578 c 0,1.281 0,2.078 -1.031,2.078 -0.64,0 -0.797,-0.25 -1.359,-1.125 l -2.781,-4.437 c -3.969,4.359 -9.047,5.562 -13.422,5.562 -9.453,0 -16.453,-7.156 -16.453,-15.265 0,-6.032 3.421,-9.375 4.921,-10.891 2.875,-2.859 5.485,-3.5 14.079,-5.484 6.828,-1.5786 8.015,-1.8286 10.64,-4.6099 0.797,-0.875 2.781,-3.5781 2.781,-7.4687 0,-5.4844 -4.203,-11.2813 -11.671,-11.2813 -8.75,0 -17.813,4.2188 -18.282,15.2657 -0.078,1.2656 -0.078,1.8281 -1.203,1.8281 -1.265,0 -1.265,-0.6406 -1.265,-2.1563 v -15.5 c 0,-1.2656 0,-2.0625 1.031,-2.0625 0.64,0 0.719,0.1563 1.281,0.9532 0.313,0.4843 0.625,1.2031 2.859,4.5312 5,-4.4531 10.875,-5.4844 15.657,-5.4844 9.922,0 16.609,7.875 16.609,16.375 0,6.9063 -4.531,13.9849 -12.641,15.8909 l -10.968,2.547"
         style="fill:#000000;fill-opacity:1;fill-rule:nonzero;stroke:none"
         id="path302" /><path
         d="m 993.781,107.625 h 11.849 v 2.625 h -11.849 v 14.625 h -2.468 c -0.079,-7.234 -3.329,-14.781 -10.719,-15.016 v -2.234 h 7.14 V 85.9375 c 0,-9.2969 7.157,-10.7344 10.813,-10.7344 5.333,0 8.503,4.7657 8.503,10.7344 v 4.4531 h -2.46 v -4.2968 c 0,-5.4844 -2.46,-8.4219 -5.481,-8.4219 -5.328,0 -5.328,6.8281 -5.328,8.1094 v 21.8437"
         style="fill:#000000;fill-opacity:1;fill-rule:nonzero;stroke:none"
         id="path304" /><path
         d="m 1051.73,92.9219 c 0,9.9371 -8.18,18.5161 -18.67,18.5161 -10.5,0 -18.67,-8.579 -18.67,-18.5161 0,-9.9219 8.5,-17.7188 18.67,-17.7188 10.25,0 18.67,7.7969 18.67,17.7188 z m -18.67,-15.25 c -4.29,0 -7.62,2.0625 -9.37,4.8437 -2,3.2657 -2.24,7.1563 -2.24,11.125 0,3.0157 0,7.7974 2.47,11.2034 2.06,2.781 5.41,4.375 9.14,4.375 4.13,0 7.55,-1.985 9.38,-4.766 2.14,-3.344 2.22,-7.6249 2.22,-10.8124 0,-3.6562 -0.16,-8.0312 -2.38,-11.3593 -2.15,-3.1875 -5.72,-4.6094 -9.22,-4.6094"
         style="fill:#000000;fill-opacity:1;fill-rule:nonzero;stroke:none"
         id="path306" /><path
         d="m 1078.92,97.6094 6.75,5.4066 c 5.25,4.14 8.6,4.531 10.58,4.609 v 2.625 c -1.91,-0.234 -3.03,-0.234 -6.28,-0.234 -3.89,0 -5.02,0.078 -8.5,0.234 v -2.625 c 1.5,-0.078 1.83,-1.109 1.83,-1.578 0,-1.672 -1.6,-3.031 -2.24,-3.5 l -11.43,-9.2189 v 37.8279 l -11.85,-0.875 v -2.625 c 5.41,0 6.05,-0.562 6.05,-4.453 V 82.2031 c 0,-3.5781 -0.95,-3.5781 -6.05,-3.5781 V 76 c 3.1,0.2344 7.39,0.2344 8.74,0.2344 1.59,0 5.73,0 8.82,-0.2344 v 2.625 c -5.07,0 -6.04,0 -6.04,3.5781 v 7.7032 l 5.4,4.2968 c 0.25,0 2.32,-2.7812 3.58,-4.2968 1.2,-1.6719 2.47,-3.25 3.74,-4.8438 1.11,-1.5937 2.78,-3.6562 2.78,-4.8437 0,-1.3594 -1.5,-1.5938 -2.46,-1.5938 V 76 c 3.41,0.2344 6.99,0.2344 8.35,0.2344 3.01,0 4.61,0 7.39,-0.2344 v 2.625 c -3.35,0 -4.78,0.3125 -7.64,4.0469 l -11.52,14.9375"
         style="fill:#000000;fill-opacity:1;fill-rule:nonzero;stroke:none"
         id="path308" /><path
         d="m 1129.83,94.125 c 1.73,0 2.22,0 2.22,1.8281 0,7.0629 -3.89,15.4849 -15.1,15.4849 -9.86,0 -17.56,-8.172 -17.56,-18.0317 0,-10.25 8.58,-18.2032 18.59,-18.2032 10.1,0 14.07,8.5 14.07,10.3282 0,0.3281 -0.24,1.125 -1.27,1.125 -0.87,0 -1.05,-0.5625 -1.2,-1.0469 -2.86,-7.7031 -9.69,-7.9375 -11.13,-7.9375 -3.57,0 -7.23,1.6719 -9.61,5.3281 -2.39,3.6563 -2.39,8.7344 -2.39,11.125 z m -23.3,2.0625 c 0.72,11.1255 7.47,13.0315 10.42,13.0315 9.3,0 9.61,-11.2034 9.69,-13.0315 h -20.11"
         style="fill:#000000;fill-opacity:1;fill-rule:nonzero;stroke:none"
         id="path310" /><path
         d="m 1162.3,109.375 c 0,1.281 0,2.063 -1.03,2.063 -0.41,0 -0.64,0 -1.93,-1.266 -0.15,-0.078 -0.86,-0.797 -1.11,-0.797 -0.07,0 -0.23,0 -0.71,0.313 -1.27,0.875 -3.57,1.75 -7.14,1.75 -11.13,0 -13.6,-6.032 -13.6,-9.844 0,-3.9846 2.94,-6.2815 3.17,-6.5159 3.19,-2.3906 5.02,-2.7031 10.35,-3.6562 3.73,-0.7188 9.84,-1.8281 9.84,-7.2344 0,-3.0937 -2.06,-6.75 -9.37,-6.75 -8.04,0 -10.33,6.1875 -11.36,10.4063 -0.32,1.0312 -0.41,1.4218 -1.36,1.4218 -1.27,0 -1.27,-0.625 -1.27,-2.1406 v -9.8594 c 0,-1.2656 0,-2.0625 1.03,-2.0625 0.49,0 0.57,0.0782 1.99,1.5938 0.4,0.3906 1.28,1.4219 1.67,1.8281 3.58,-3.2656 7.31,-3.4219 9.37,-3.4219 10.1,0 13.6,5.7969 13.6,11.0469 0,3.8125 -2.31,9.375 -11.77,11.125 -0.62,0.1563 -5.08,0.9531 -5.4,0.9531 -2.46,0.5625 -6.19,2.2349 -6.19,5.4059 0,2.391 1.75,5.719 9.3,5.719 8.89,0 9.29,-6.515 9.45,-8.734 0.08,-0.641 0.64,-0.8752 1.19,-0.8752 1.28,0 1.28,0.5472 1.28,2.0622 v 7.469"
         style="fill:#000000;fill-opacity:1;fill-rule:nonzero;stroke:none"
         id="path312" /><path
         d="m 1182.86,77.1875 c 0,-2.375 0,-8.8906 -6.03,-14.5312 -0.25,-0.25 -0.49,-0.4063 -0.49,-0.875 0,-0.7188 0.72,-1.2032 1.11,-1.2032 1.03,0 7.64,6.2032 7.64,15.7344 0,4.375 -1.59,8.5156 -5.4,8.5156 -2.63,0 -4.38,-2.0781 -4.38,-4.375 0,-2.3906 1.67,-4.4531 4.46,-4.4531 1.75,0 2.86,0.9531 3.09,1.1875"
         style="fill:#000000;fill-opacity:1;fill-rule:nonzero;stroke:none"
         id="path314" /><path
         d="m 1242.56,105 h 9.14 c -1.65,-7.2187 -3.09,-13.1094 -3.09,-18.9844 0,-0.5625 0,-3.9687 0.87,-6.8437 1.04,-3.3281 1.83,-3.9688 3.25,-3.9688 1.75,0 3.58,1.5157 3.58,3.4219 0,0.5469 -0.08,0.7188 -0.39,1.4219 -1.67,3.6562 -2.86,7.4687 -2.86,14 0,1.8281 0,5.1562 1.19,10.9531 h 9.63 c 1.26,0 2.14,0 2.93,0.641 0.96,0.875 1.19,1.906 1.19,2.39 0,2.219 -1.98,2.219 -3.34,2.219 h -28.69 c -1.67,0 -4.69,0 -8.58,-3.812 -2.86,-2.86 -5.09,-6.5161 -5.09,-7.0786 0,-0.7031 0.56,-0.9531 1.2,-0.9531 0.8,0 0.95,0.25 1.42,0.875 3.91,5.7187 8.6,5.7187 10.42,5.7187 h 4.61 c -2.31,-8.4219 -6.51,-18.0312 -9.47,-23.8281 -0.54,-1.2031 -1.34,-2.7813 -1.34,-3.5 0,-1.6719 1.34,-2.4688 2.63,-2.4688 3.01,0 3.81,3.0157 5.48,9.5313 L 1242.56,105"
         style="fill:#000000;fill-opacity:1;fill-rule:nonzero;stroke:none"
         id="path316" /><path
         d="m 1307.95,132.266 c 0.49,1.109 0.49,1.265 0.49,1.515 0,1.032 -0.8,1.828 -1.83,1.828 -1.28,0 -1.59,-0.953 -1.92,-1.75 l -28.52,-74.3902 c -0.48,-1.1094 -0.48,-1.2657 -0.48,-1.5157 0,-1.0312 0.79,-1.8281 1.83,-1.8281 1.26,0 1.59,0.9688 1.9,1.75 l 28.53,74.391"
         style="fill:#000000;fill-opacity:1;fill-rule:nonzero;stroke:none"
         id="path318" /><path
         d="m 1335.41,92.2188 c 1.28,1.1875 4.61,3.8125 5.89,4.9218 4.92,4.5314 9.61,8.9064 9.61,16.1254 0,9.468 -7.96,15.578 -17.88,15.578 -9.55,0 -15.81,-7.235 -15.81,-14.297 0,-3.891 3.09,-4.453 4.2,-4.453 1.67,0 4.14,1.187 4.14,4.203 0,4.141 -3.98,4.141 -4.93,4.141 2.31,5.796 7.64,7.781 11.53,7.781 7.39,0 11.2,-6.266 11.2,-12.953 0,-8.266 -5.8,-14.2972 -15.19,-23.9222 l -10,-10.3282 c -0.95,-0.875 -0.95,-1.0312 -0.95,-3.0156 h 31.39 l 2.3,14.2188 h -2.47 c -0.24,-1.5782 -0.88,-5.5625 -1.83,-7.0625 -0.47,-0.6407 -6.52,-0.6407 -7.78,-0.6407 h -14.14 l 10.72,9.7032"
         style="fill:#000000;fill-opacity:1;fill-rule:nonzero;stroke:none"
         id="path320" /><path
         d="m 1403.57,97.8516 h 170.08"
         style="fill:none;stroke:#000000;stroke-width:7.9701;stroke-linecap:butt;stroke-linejoin:miter;stroke-miterlimit:10;stroke-dasharray:none;stroke-opacity:1"
         id="path322" /><path
         d="m 1488.61,115.781 15.53,-26.8982 h -31.06 z"
         style="fill:#000000;fill-opacity:1;fill-rule:nonzero;stroke:#000000;stroke-width:7.9701;stroke-linecap:butt;stroke-linejoin:miter;stroke-miterlimit:10;stroke-dasharray:none;stroke-opacity:1"
         id="path324" /><path
         d="m 1665.19,98.6563 h -2.46 c -0.95,-8.2657 -2.15,-18.0313 -16.68,-18.0313 h -7.39 c -3.66,0 -3.83,0.5469 -3.83,3.25 v 41.891 c 0,2.781 0,3.89 7.47,3.89 h 2.54 v 2.625 c -3.57,-0.234 -9.37,-0.234 -13.11,-0.234 -5.32,0 -5.48,0 -12.23,0.234 v -2.625 h 1.75 c 6.11,0 6.27,-0.875 6.27,-3.812 V 84.4375 c 0,-2.9375 -0.16,-3.8125 -6.27,-3.8125 h -1.75 V 78 h 43.39 l 2.3,20.6563"
         style="fill:#000000;fill-opacity:1;fill-rule:nonzero;stroke:none"
         id="path326" /><path
         d="m 1702.38,101.688 c 0,7.781 -7.55,11.75 -14.79,11.75 -6.59,0 -12.46,-2.532 -12.46,-7.782 0,-2.39 1.65,-3.812 3.73,-3.812 2.22,0 3.73,1.594 3.73,3.734 0,1.906 -1.2,3.25 -2.93,3.656 2.93,1.985 7.22,1.985 7.78,1.985 4.45,0 8.9,-3.094 8.9,-9.61 v -2.4684 c -4.61,-0.2343 -9.93,-0.4843 -15.5,-2.7812 -7,-3.0156 -8.34,-7.625 -8.34,-10.25 0,-6.8438 8.02,-8.9063 13.5,-8.9063 5.81,0 9.39,3.2657 11.13,6.4375 0.4,-3.0156 2.46,-6.0312 5.96,-6.0312 0.8,0 7.55,0.3125 7.55,7.5469 v 4.3593 h -2.47 v -4.3593 c 0,-3.2657 -1.19,-4.5313 -2.86,-4.5313 -2.93,0 -2.93,3.6563 -2.93,4.5313 z m -6.04,-12.4849 c 0,-7.7031 -6.51,-9.7656 -9.7,-9.7656 -4.12,0 -7.62,2.7813 -7.62,6.5938 0,5.2343 4.92,10.6406 17.32,11.0468 v -7.875"
         style="fill:#000000;fill-opacity:1;fill-rule:nonzero;stroke:none"
         id="path328" /><path
         d="m 1731.91,65.2031 c -5.1,0 -6.05,0 -6.05,3.5782 v 13.1093 c 3.73,-4.0468 7.8,-4.6875 10.33,-4.6875 10.09,0 18.84,7.7969 18.84,17.9688 0,9.9221 -8.03,17.8751 -17.64,17.8751 -3.11,0 -7.72,-0.797 -11.76,-4.922 v 4.922 l -11.85,-0.875 v -2.625 c 5.64,0 6.05,-0.469 6.05,-3.813 V 68.7813 c 0,-3.5782 -0.95,-3.5782 -6.05,-3.5782 v -2.625 c 3.42,0.25 6.91,0.25 9.06,0.25 2.3,0 5.64,0 9.07,-0.25 z m -6.05,39.2659 c 1.83,3.172 5.8,6.109 10.81,6.109 6.11,0 11.28,-6.75 11.28,-15.4061 0,-9.1406 -5.72,-15.7344 -12.15,-15.7344 -2.78,0 -6.44,1.1875 -8.99,5.1563 -0.95,1.3593 -0.95,1.4375 -0.95,2.9375 v 16.9377"
         style="fill:#000000;fill-opacity:1;fill-rule:nonzero;stroke:none"
         id="path330" /><path
         d="m 1773.17,133.156 -11.83,-0.875 v -2.625 c 5.39,0 6.04,-0.562 6.04,-4.453 V 84.2031 c 0,-3.5781 -0.96,-3.5781 -6.04,-3.5781 V 78 c 3.1,0.2344 7.55,0.2344 8.89,0.2344 1.6,0 5.9,0 8.99,-0.2344 v 2.625 c -5.09,0 -6.05,0 -6.05,3.5781 v 48.9529"
         style="fill:#000000;fill-opacity:1;fill-rule:nonzero;stroke:none"
         id="path332" /><path
         d="m 1815.38,101.688 c 0,7.781 -7.55,11.75 -14.79,11.75 -6.59,0 -12.46,-2.532 -12.46,-7.782 0,-2.39 1.65,-3.812 3.73,-3.812 2.22,0 3.73,1.594 3.73,3.734 0,1.906 -1.2,3.25 -2.93,3.656 2.93,1.985 7.22,1.985 7.78,1.985 4.45,0 8.9,-3.094 8.9,-9.61 v -2.4684 c -4.61,-0.2343 -9.93,-0.4843 -15.5,-2.7812 -7,-3.0156 -8.34,-7.625 -8.34,-10.25 0,-6.8438 8.02,-8.9063 13.5,-8.9063 5.81,0 9.39,3.2657 11.13,6.4375 0.4,-3.0156 2.46,-6.0312 5.96,-6.0312 0.8,0 7.55,0.3125 7.55,7.5469 v 4.3593 h -2.47 v -4.3593 c 0,-3.2657 -1.19,-4.5313 -2.86,-4.5313 -2.93,0 -2.93,3.6563 -2.93,4.5313 z m -6.04,-12.4849 c 0,-7.7031 -6.51,-9.7656 -9.7,-9.7656 -4.12,0 -7.62,2.7813 -7.62,6.5938 0,5.2343 4.92,10.6406 17.32,11.0468 v -7.875"
         style="fill:#000000;fill-opacity:1;fill-rule:nonzero;stroke:none"
         id="path334" /><path
         d="m 1853.25,109.547 c -2.23,-0.719 -2.55,-2.547 -2.55,-3.5 0,-2.141 1.52,-3.734 3.74,-3.734 2.06,0 3.73,1.437 3.73,3.812 0,4.938 -5.4,7.313 -12.87,7.313 -11.05,0 -18.52,-8.813 -18.52,-18.2661 0,-10.0938 8.27,-17.9688 18.28,-17.9688 11.21,0 13.99,9.375 13.99,10.3282 0,0.9531 -1.03,0.9531 -1.27,0.9531 -0.56,0 -0.95,-0.0781 -1.2,-0.875 -0.55,-1.6563 -2.78,-7.9375 -10.72,-7.9375 -4.94,0 -12,3.8125 -12,15.5781 0,11.438 5.87,15.734 11.67,15.734 0.72,0 4.94,0 7.72,-1.437"
         style="fill:#000000;fill-opacity:1;fill-rule:nonzero;stroke:none"
         id="path336" /><path
         d="m 1894.83,96.125 c 1.73,0 2.22,0 2.22,1.8281 0,7.0629 -3.89,15.4849 -15.1,15.4849 -9.86,0 -17.56,-8.172 -17.56,-18.0317 0,-10.25 8.58,-18.2032 18.59,-18.2032 10.1,0 14.07,8.5 14.07,10.3282 0,0.3281 -0.24,1.125 -1.27,1.125 -0.87,0 -1.05,-0.5625 -1.2,-1.0469 -2.86,-7.7031 -9.69,-7.9375 -11.13,-7.9375 -3.57,0 -7.23,1.6719 -9.61,5.3281 -2.39,3.6563 -2.39,8.7344 -2.39,11.125 z m -23.3,2.0625 c 0.72,11.1255 7.47,13.0315 10.42,13.0315 9.3,0 9.61,-11.203 9.69,-13.0315 h -20.11"
         style="fill:#000000;fill-opacity:1;fill-rule:nonzero;stroke:none"
         id="path338" /><path
         d="m 1913.86,79.1875 c 0,-2.375 0,-8.8906 -6.03,-14.5312 -0.25,-0.25 -0.49,-0.4063 -0.49,-0.875 0,-0.7188 0.72,-1.2032 1.11,-1.2032 1.03,0 7.64,6.2032 7.64,15.7344 0,4.375 -1.59,8.5156 -5.4,8.5156 -2.63,0 -4.38,-2.0781 -4.38,-4.375 0,-2.3906 1.67,-4.4531 4.46,-4.4531 1.75,0 2.86,0.9531 3.09,1.1875"
         style="fill:#000000;fill-opacity:1;fill-rule:nonzero;stroke:none"
         id="path340" /><path
         d="m 1973.56,107 h 9.14 c -1.65,-7.2187 -3.09,-13.1094 -3.09,-18.9844 0,-0.5625 0,-3.9687 0.87,-6.8437 1.04,-3.3281 1.83,-3.9688 3.25,-3.9688 1.75,0 3.58,1.5157 3.58,3.4219 0,0.5469 -0.08,0.7188 -0.39,1.4219 -1.67,3.6562 -2.86,7.4687 -2.86,14 0,1.8281 0,5.1561 1.19,10.9531 h 9.63 c 1.26,0 2.14,0 2.93,0.641 0.96,0.875 1.19,1.906 1.19,2.39 0,2.219 -1.98,2.219 -3.34,2.219 h -28.69 c -1.67,0 -4.69,0 -8.58,-3.812 -2.86,-2.86 -5.09,-6.516 -5.09,-7.079 0,-0.703 0.56,-0.953 1.2,-0.953 0.8,0 0.95,0.25 1.42,0.875 3.91,5.719 8.6,5.719 10.42,5.719 h 4.61 c -2.31,-8.4219 -6.51,-18.0312 -9.47,-23.8281 -0.54,-1.2031 -1.34,-2.7813 -1.34,-3.5 0,-1.6719 1.34,-2.4688 2.63,-2.4688 3.01,0 3.81,3.0157 5.48,9.5313 L 1973.56,107"
         style="fill:#000000;fill-opacity:1;fill-rule:nonzero;stroke:none"
         id="path342" /><path
         d="m 2045.09,97.8516 h 170.08"
         style="fill:none;stroke:#000000;stroke-width:7.9701;stroke-linecap:butt;stroke-linejoin:miter;stroke-miterlimit:10;stroke-dasharray:29.8883, 29.8883;stroke-dashoffset:0;stroke-opacity:1"
         id="path344" /><path
         d="m 2130.13,115.781 15.53,-26.8982 h -31.06 z"
         style="fill:#000000;fill-opacity:1;fill-rule:nonzero;stroke:#000000;stroke-width:7.9701;stroke-linecap:butt;stroke-linejoin:miter;stroke-miterlimit:10;stroke-dasharray:29.8883, 29.8883;stroke-dashoffset:0;stroke-opacity:1"
         id="path346" /><path
         d="m 2323.52,111.141 c -5.08,1.187 -8.83,5.25 -8.83,10.093 0,5.329 4.61,10.329 11.53,10.329 13.75,0 15.58,-12.875 15.97,-15.891 0.15,-0.875 0.25,-1.438 1.28,-1.438 1.26,0 1.26,0.563 1.26,2.063 v 15.578 c 0,1.281 0,2.078 -1.03,2.078 -0.64,0 -0.79,-0.25 -1.36,-1.125 l -2.78,-4.437 c -3.97,4.359 -9.04,5.562 -13.42,5.562 -9.45,0 -16.45,-7.156 -16.45,-15.265 0,-6.032 3.42,-9.375 4.92,-10.891 2.87,-2.859 5.48,-3.5 14.08,-5.484 6.83,-1.579 8.01,-1.829 10.64,-4.6099 0.8,-0.875 2.78,-3.5781 2.78,-7.4687 0,-5.4844 -4.2,-11.2813 -11.67,-11.2813 -8.75,0 -17.81,4.2188 -18.28,15.2657 -0.08,1.2656 -0.08,1.8281 -1.21,1.8281 -1.26,0 -1.26,-0.6406 -1.26,-2.1563 v -15.5 c 0,-1.2656 0,-2.0625 1.03,-2.0625 0.64,0 0.72,0.1563 1.28,0.9532 0.31,0.4843 0.63,1.2031 2.86,4.5312 5,-4.4531 10.87,-5.4844 15.66,-5.4844 9.92,0 16.61,7.875 16.61,16.375 0,6.9063 -4.54,13.9849 -12.65,15.8909 l -10.96,2.547"
         style="fill:#000000;fill-opacity:1;fill-rule:nonzero;stroke:none"
         id="path348" /><path
         d="m 2366.78,109.625 h 11.85 v 2.625 h -11.85 v 14.625 h -2.47 c -0.08,-7.234 -3.33,-14.781 -10.72,-15.016 v -2.234 h 7.14 V 87.9375 c 0,-9.2969 7.16,-10.7344 10.82,-10.7344 5.33,0 8.5,4.7657 8.5,10.7344 v 4.4531 h -2.46 v -4.2968 c 0,-5.4844 -2.46,-8.4219 -5.48,-8.4219 -5.33,0 -5.33,6.8281 -5.33,8.1094 v 21.8437"
         style="fill:#000000;fill-opacity:1;fill-rule:nonzero;stroke:none"
         id="path350" /><path
         d="m 2424.73,94.9219 c 0,9.9371 -8.18,18.5161 -18.67,18.5161 -10.5,0 -18.67,-8.579 -18.67,-18.5161 0,-9.9219 8.5,-17.7188 18.67,-17.7188 10.25,0 18.67,7.7969 18.67,17.7188 z m -18.67,-15.25 c -4.29,0 -7.62,2.0625 -9.37,4.8437 -2,3.2657 -2.24,7.1563 -2.24,11.125 0,3.0157 0,7.7974 2.47,11.2034 2.06,2.781 5.41,4.375 9.14,4.375 4.13,0 7.55,-1.985 9.38,-4.766 2.14,-3.344 2.22,-7.6249 2.22,-10.8124 0,-3.6562 -0.16,-8.0312 -2.38,-11.3593 -2.15,-3.1875 -5.72,-4.6094 -9.22,-4.6094"
         style="fill:#000000;fill-opacity:1;fill-rule:nonzero;stroke:none"
         id="path352" /><path
         d="m 2451.92,99.6094 6.75,5.4066 c 5.25,4.14 8.6,4.531 10.58,4.609 v 2.625 c -1.91,-0.234 -3.03,-0.234 -6.28,-0.234 -3.89,0 -5.02,0.078 -8.5,0.234 v -2.625 c 1.5,-0.078 1.83,-1.109 1.83,-1.578 0,-1.672 -1.6,-3.031 -2.24,-3.5 l -11.43,-9.2189 v 37.8279 l -11.85,-0.875 v -2.625 c 5.41,0 6.05,-0.562 6.05,-4.453 V 84.2031 c 0,-3.5781 -0.95,-3.5781 -6.05,-3.5781 V 78 c 3.1,0.2344 7.39,0.2344 8.74,0.2344 1.59,0 5.73,0 8.82,-0.2344 v 2.625 c -5.07,0 -6.04,0 -6.04,3.5781 v 7.7032 l 5.4,4.2968 c 0.25,0 2.32,-2.7812 3.58,-4.2968 1.2,-1.6719 2.47,-3.25 3.74,-4.8438 1.11,-1.5937 2.78,-3.6562 2.78,-4.8437 0,-1.3594 -1.5,-1.5938 -2.46,-1.5938 V 78 c 3.41,0.2344 6.99,0.2344 8.35,0.2344 3.01,0 4.61,0 7.39,-0.2344 v 2.625 c -3.35,0 -4.78,0.3125 -7.64,4.0469 l -11.52,14.9375"
         style="fill:#000000;fill-opacity:1;fill-rule:nonzero;stroke:none"
         id="path354" /><path
         d="m 2502.83,96.125 c 1.73,0 2.22,0 2.22,1.8281 0,7.0629 -3.89,15.4849 -15.1,15.4849 -9.86,0 -17.56,-8.172 -17.56,-18.0317 0,-10.25 8.58,-18.2032 18.59,-18.2032 10.1,0 14.07,8.5 14.07,10.3282 0,0.3281 -0.24,1.125 -1.27,1.125 -0.87,0 -1.05,-0.5625 -1.2,-1.0469 -2.86,-7.7031 -9.69,-7.9375 -11.13,-7.9375 -3.57,0 -7.23,1.6719 -9.61,5.3281 -2.39,3.6563 -2.39,8.7344 -2.39,11.125 z m -23.3,2.0625 c 0.72,11.1255 7.47,13.0315 10.42,13.0315 9.3,0 9.61,-11.203 9.69,-13.0315 h -20.11"
         style="fill:#000000;fill-opacity:1;fill-rule:nonzero;stroke:none"
         id="path356" /><path
         d="m 2536.3,111.375 c 0,1.281 0,2.063 -1.03,2.063 -0.41,0 -0.64,0 -1.93,-1.266 -0.15,-0.078 -0.86,-0.797 -1.11,-0.797 -0.07,0 -0.23,0 -0.71,0.313 -1.27,0.875 -3.57,1.75 -7.14,1.75 -11.13,0 -13.6,-6.032 -13.6,-9.844 0,-3.9846 2.94,-6.2815 3.17,-6.5159 3.19,-2.3906 5.02,-2.7031 10.35,-3.6562 3.73,-0.7188 9.84,-1.8281 9.84,-7.2344 0,-3.0937 -2.06,-6.75 -9.37,-6.75 -8.04,0 -10.33,6.1875 -11.36,10.4063 -0.32,1.0312 -0.41,1.4218 -1.36,1.4218 -1.27,0 -1.27,-0.625 -1.27,-2.1406 v -9.8594 c 0,-1.2656 0,-2.0625 1.03,-2.0625 0.49,0 0.57,0.0782 1.99,1.5938 0.4,0.3906 1.28,1.4219 1.67,1.8281 3.58,-3.2656 7.31,-3.4219 9.37,-3.4219 10.1,0 13.6,5.7969 13.6,11.0469 0,3.8125 -2.31,9.375 -11.77,11.125 -0.62,0.1563 -5.08,0.953 -5.4,0.953 -2.46,0.563 -6.19,2.235 -6.19,5.406 0,2.391 1.75,5.719 9.3,5.719 8.89,0 9.29,-6.515 9.45,-8.734 0.08,-0.641 0.64,-0.875 1.19,-0.875 1.28,0 1.28,0.547 1.28,2.062 v 7.469"
         style="fill:#000000;fill-opacity:1;fill-rule:nonzero;stroke:none"
         id="path358" /><path
         d="m 2555.86,79.1875 c 0,-2.375 0,-8.8906 -6.03,-14.5312 -0.25,-0.25 -0.49,-0.4063 -0.49,-0.875 0,-0.7188 0.72,-1.2032 1.11,-1.2032 1.03,0 7.64,6.2032 7.64,15.7344 0,4.375 -1.59,8.5156 -5.4,8.5156 -2.63,0 -4.38,-2.0781 -4.38,-4.375 0,-2.3906 1.67,-4.4531 4.46,-4.4531 1.75,0 2.86,0.9531 3.09,1.1875"
         style="fill:#000000;fill-opacity:1;fill-rule:nonzero;stroke:none"
         id="path360" /><path
         d="m 2615.56,107 h 9.14 c -1.65,-7.2187 -3.09,-13.1094 -3.09,-18.9844 0,-0.5625 0,-3.9687 0.87,-6.8437 1.04,-3.3281 1.83,-3.9688 3.25,-3.9688 1.75,0 3.58,1.5157 3.58,3.4219 0,0.5469 -0.08,0.7188 -0.39,1.4219 -1.67,3.6562 -2.86,7.4687 -2.86,14 0,1.8281 0,5.1561 1.19,10.9531 h 9.63 c 1.26,0 2.14,0 2.93,0.641 0.96,0.875 1.19,1.906 1.19,2.39 0,2.219 -1.98,2.219 -3.34,2.219 h -28.69 c -1.67,0 -4.69,0 -8.58,-3.812 -2.86,-2.86 -5.09,-6.516 -5.09,-7.079 0,-0.703 0.56,-0.953 1.2,-0.953 0.8,0 0.95,0.25 1.42,0.875 3.91,5.719 8.6,5.719 10.42,5.719 h 4.61 c -2.31,-8.4219 -6.51,-18.0312 -9.47,-23.8281 -0.54,-1.2031 -1.34,-2.7813 -1.34,-3.5 0,-1.6719 1.34,-2.4688 2.63,-2.4688 3.01,0 3.81,3.0157 5.48,9.5313 L 2615.56,107"
         style="fill:#000000;fill-opacity:1;fill-rule:nonzero;stroke:none"
         id="path362" /></g></g></svg>
