<?xml version="1.0" encoding="UTF-8" standalone="no"?>
<!-- Created with Inkscape (http://www.inkscape.org/) -->

<svg
   version="1.1"
   id="svg2"
   xml:space="preserve"
   width="293.69333"
   height="140.03999"
   viewBox="0 0 293.69333 140.03999"
   xmlns="http://www.w3.org/2000/svg"
   xmlns:svg="http://www.w3.org/2000/svg"><defs
     id="defs6" /><g
     id="g8"
     transform="matrix(1.3333333,0,0,-1.3333333,0,140.04)"><g
       id="g10"
       transform="scale(0.1)"><path
         d="M 170.031,175.852 H 2033.85"
         style="fill:none;stroke:#000000;stroke-width:7.9701;stroke-linecap:butt;stroke-linejoin:miter;stroke-miterlimit:10;stroke-dasharray:none;stroke-opacity:1"
         id="path12" /><path
         d="m 2018.3,196.57 c 1.3,-7.769 15.55,-19.425 19.43,-20.718 -3.88,-1.297 -18.13,-12.954 -19.43,-20.723"
         style="fill:none;stroke:#000000;stroke-width:6.376;stroke-linecap:round;stroke-linejoin:round;stroke-miterlimit:10;stroke-dasharray:none;stroke-opacity:1"
         id="path14" /><path
         d="m 2097.89,147.109 c -0.41,-1.281 -0.5,-1.484 -0.5,-1.984 0,-2.187 1.89,-2.781 2.88,-2.781 0.5,0 2.68,0.297 3.68,2.578 0.3,0.797 0.78,4.078 3.47,18.187 0.89,-0.109 1.6,-0.203 3.28,-0.203 16.49,0 31.78,15.594 31.78,31.297 0,7.75 -3.87,13.703 -11.31,13.703 -14.4,0 -20.37,-19.265 -26.33,-38.64 -10.73,1.984 -16.29,7.547 -16.29,14.703 0,2.781 2.28,13.703 8.25,20.562 0.79,0.891 0.79,1.094 0.79,1.297 0,0.391 -0.2,0.985 -1.2,0.985 -2.78,0 -10.42,-14.407 -10.42,-23.938 0,-9.344 6.55,-16.594 17.19,-19.078 z m 13.7,21.563 c -0.79,0 -0.98,0 -1.78,0.094 -1.2,0 -1.29,0.109 -1.29,0.406 0,0.187 1.68,9.234 1.98,10.719 3.08,12.718 10.83,22.25 19.67,22.25 6.86,0 9.53,-5.36 9.53,-10.125 0,-11.235 -12.81,-23.344 -28.11,-23.344"
         style="fill:#000000;fill-opacity:1;fill-rule:nonzero;stroke:none"
         id="path16" /><path
         d="M 170.031,175.852 V 877.445"
         style="fill:none;stroke:#000000;stroke-width:7.9701;stroke-linecap:butt;stroke-linejoin:miter;stroke-miterlimit:10;stroke-dasharray:none;stroke-opacity:1"
         id="path18" /><path
         d="m 149.309,861.906 c 7.769,1.293 19.425,15.539 20.722,19.426 1.293,-3.887 12.949,-18.133 20.723,-19.426"
         style="fill:none;stroke:#000000;stroke-width:6.376;stroke-linecap:round;stroke-linejoin:round;stroke-miterlimit:10;stroke-dasharray:none;stroke-opacity:1"
         id="path20" /><path
         d="m 102.781,946.266 c 0,12.703 -9.9216,23.234 -21.9529,23.234 -12.4062,0 -22.0468,-10.828 -22.0468,-23.234 0,-12.828 10.3281,-22.36 21.9531,-22.36 12.0156,0 22.0466,9.735 22.0466,22.36 z M 80.8281,926.391 c -4.2656,0 -8.6406,2.093 -11.3125,6.656 -2.4843,4.375 -2.4843,10.437 -2.4843,14 0,3.875 0,9.25 2.375,13.609 2.6875,4.578 7.3593,6.657 11.3281,6.657 4.375,0 8.6406,-2.188 11.2187,-6.454 2.5938,-4.265 2.5938,-10.031 2.5938,-13.812 0,-3.563 0,-8.938 -2.1875,-13.313 -2.1875,-4.468 -6.5625,-7.343 -11.5313,-7.343"
         style="fill:#000000;fill-opacity:1;fill-rule:nonzero;stroke:none"
         id="path22" /><path
         d="m 122.594,957.984 v 10.922 l -13.813,-1.093 v -3.079 c 6.953,0 7.75,-0.687 7.75,-5.562 v -26.625 c 0,-4.469 -1.093,-4.469 -7.75,-4.469 V 925 c 3.875,0.094 8.547,0.297 11.328,0.297 3.969,0 8.641,0 12.61,-0.297 v 3.078 h -2.078 c -7.36,0 -7.547,1.094 -7.547,4.672 v 15.297 c 0,9.828 4.172,18.672 11.719,18.672 0.687,0 0.89,0 1.093,-0.094 -0.297,-0.109 -2.297,-1.297 -2.297,-3.875 0,-2.781 2.094,-4.266 4.282,-4.266 1.781,0 4.265,1.188 4.265,4.36 0,3.187 -3.078,6.062 -7.343,6.062 -7.25,0 -10.829,-6.656 -12.219,-10.922"
         style="fill:#000000;fill-opacity:1;fill-rule:nonzero;stroke:none"
         id="path24" /><path
         d="m 182.75,930.469 v -6.563 L 197.344,925 v 3.078 c -6.953,0 -7.735,0.703 -7.735,5.563 v 60.297 l -14.312,-1.094 v -3.078 c 6.953,0 7.75,-0.688 7.75,-5.563 V 962.75 c -2.875,3.578 -7.156,6.156 -12.516,6.156 -11.718,0 -22.156,-9.734 -22.156,-22.547 0,-12.625 9.734,-22.453 21.063,-22.453 6.359,0 10.828,3.375 13.312,6.563 z m 0,26.609 v -20.359 c 0,-1.781 0,-1.985 -1.094,-3.672 -2.984,-4.766 -7.453,-6.953 -11.718,-6.953 -4.469,0 -8.047,2.578 -10.438,6.359 -2.578,4.063 -2.875,9.735 -2.875,13.813 0,3.672 0.203,9.625 3.078,14.093 2.078,3.079 5.86,6.36 11.219,6.36 3.484,0 7.656,-1.485 10.734,-5.953 1.094,-1.688 1.094,-1.891 1.094,-3.688"
         style="fill:#000000;fill-opacity:1;fill-rule:nonzero;stroke:none"
         id="path26" /><path
         d="m 211.125,950.031 c 0.594,14.797 8.938,17.282 12.313,17.282 10.234,0 11.234,-13.407 11.234,-17.282 z m -0.094,-2.078 h 27.703 c 2.188,0 2.485,0 2.485,2.078 0,9.844 -5.36,19.469 -17.781,19.469 -11.516,0 -20.657,-10.234 -20.657,-22.641 0,-13.312 10.438,-22.953 21.86,-22.953 12.109,0 16.578,11.032 16.578,12.922 0,0.985 -0.781,1.188 -1.281,1.188 -0.891,0 -1.094,-0.594 -1.297,-1.391 -3.469,-10.234 -12.422,-10.234 -13.407,-10.234 -4.968,0 -8.937,2.984 -11.234,6.656 -2.969,4.766 -2.969,11.328 -2.969,14.906"
         style="fill:#000000;fill-opacity:1;fill-rule:nonzero;stroke:none"
         id="path28" /><path
         d="m 261.594,957.984 v 10.922 l -13.813,-1.093 v -3.079 c 6.953,0 7.75,-0.687 7.75,-5.562 v -26.625 c 0,-4.469 -1.093,-4.469 -7.75,-4.469 V 925 c 3.875,0.094 8.547,0.297 11.328,0.297 3.969,0 8.641,0 12.61,-0.297 v 3.078 h -2.078 c -7.36,0 -7.547,1.094 -7.547,4.672 v 15.297 c 0,9.828 4.172,18.672 11.719,18.672 0.687,0 0.89,0 1.093,-0.094 -0.297,-0.109 -2.297,-1.297 -2.297,-3.875 0,-2.781 2.094,-4.266 4.282,-4.266 1.781,0 4.265,1.188 4.265,4.36 0,3.187 -3.078,6.062 -7.343,6.062 -7.25,0 -10.829,-6.656 -12.219,-10.922"
         style="fill:#000000;fill-opacity:1;fill-rule:nonzero;stroke:none"
         id="path30" /><path
         d="M 170.031,192.855 V 158.844"
         style="fill:none;stroke:#000000;stroke-width:3.985;stroke-linecap:butt;stroke-linejoin:miter;stroke-miterlimit:10;stroke-dasharray:none;stroke-opacity:1"
         id="path32" /><path
         d="m 190.688,87.7813 c 0,7.9531 -0.485,15.9067 -3.969,23.2497 -4.563,9.532 -12.719,11.125 -16.891,11.125 -5.953,0 -13.203,-2.578 -17.281,-11.812 -3.172,-6.86 -3.672,-14.6096 -3.672,-22.5627 0,-7.4375 0.391,-16.3907 4.469,-23.9375 4.265,-8.0469 11.531,-10.0313 16.39,-10.0313 5.36,0 12.922,2.0938 17.282,11.5313 3.187,6.8437 3.672,14.5937 3.672,22.4375 z M 169.734,56 c -3.875,0 -9.734,2.4844 -11.515,12.0156 -1.094,5.9688 -1.094,15.1094 -1.094,20.9688 0,6.3594 0,12.9066 0.781,18.2816 1.891,11.812 9.344,12.703 11.828,12.703 3.282,0 9.829,-1.781 11.719,-11.625 1,-5.563 1,-13.1096 1,-19.3596 0,-7.4531 0,-14.2031 -1.094,-20.5625 C 179.875,58.9844 174.203,56 169.734,56"
         style="fill:#000000;fill-opacity:1;fill-rule:nonzero;stroke:none"
         id="path34" /><path
         d="M 736.965,192.855 V 158.844"
         style="fill:none;stroke:#000000;stroke-width:3.985;stroke-linecap:butt;stroke-linejoin:miter;stroke-miterlimit:10;stroke-dasharray:none;stroke-opacity:1"
         id="path36" /><path
         d="m 700.109,88.5781 v 2.3907 c 0,25.1252 12.329,28.7032 17.391,28.7032 2.375,0 6.547,-0.594 8.734,-3.969 -1.484,0 -5.453,0 -5.453,-4.469 0,-3.078 2.375,-4.578 4.563,-4.578 1.594,0 4.562,0.907 4.562,4.782 0,5.953 -4.359,10.718 -12.609,10.718 -12.719,0 -26.125,-12.812 -26.125,-34.7654 0,-26.5156 11.516,-33.5781 20.766,-33.5781 11.015,0 20.453,9.3438 20.453,22.4531 0,12.6094 -8.828,22.1563 -19.86,22.1563 -6.75,0 -10.437,-5.0781 -12.422,-9.8438 z m 11.829,-31.9843 c -6.266,0 -9.25,5.9687 -9.844,7.4531 -1.781,4.6719 -1.781,12.6094 -1.781,14.4062 0,7.75 3.171,17.6719 12.125,17.6719 1.578,0 6.156,0 9.234,-6.1562 1.781,-3.6719 1.781,-8.7344 1.781,-13.6094 0,-4.7656 0,-9.7344 -1.687,-13.3125 -2.985,-5.9531 -7.547,-6.4531 -9.828,-6.4531"
         style="fill:#000000;fill-opacity:1;fill-rule:nonzero;stroke:none"
         id="path38" /><path
         d="m 782.688,87.7813 c 0,7.9531 -0.485,15.9067 -3.969,23.2497 -4.563,9.532 -12.719,11.125 -16.891,11.125 -5.953,0 -13.203,-2.578 -17.281,-11.812 -3.172,-6.86 -3.672,-14.6096 -3.672,-22.5627 0,-7.4375 0.391,-16.3907 4.469,-23.9375 4.265,-8.0469 11.531,-10.0313 16.39,-10.0313 5.36,0 12.922,2.0938 17.282,11.5313 3.187,6.8437 3.672,14.5937 3.672,22.4375 z M 761.734,56 c -3.875,0 -9.734,2.4844 -11.515,12.0156 -1.094,5.9688 -1.094,15.1094 -1.094,20.9688 0,6.3594 0,12.9066 0.781,18.2816 1.891,11.812 9.344,12.703 11.828,12.703 3.282,0 9.829,-1.781 11.719,-11.625 1,-5.563 1,-13.1096 1,-19.3596 0,-7.4531 0,-14.2031 -1.094,-20.5625 C 771.875,58.9844 766.203,56 761.734,56"
         style="fill:#000000;fill-opacity:1;fill-rule:nonzero;stroke:none"
         id="path40" /><path
         d="M 1303.9,192.855 V 158.844"
         style="fill:none;stroke:#000000;stroke-width:3.985;stroke-linecap:butt;stroke-linejoin:miter;stroke-miterlimit:10;stroke-dasharray:none;stroke-opacity:1"
         id="path42" /><path
         d="m 1258.2,119.578 c 0,2.375 0,2.578 -2.28,2.578 -6.15,-6.359 -14.9,-6.359 -18.08,-6.359 v -3.078 c 1.99,0 7.85,0 13.02,2.578 V 63.8438 c 0,-3.5782 -0.3,-4.7657 -9.25,-4.7657 h -3.17 V 56 c 3.47,0.2969 12.12,0.2969 16.09,0.2969 3.97,0 12.61,0 16.1,-0.2969 v 3.0781 h -3.19 c -8.94,0 -9.24,1.0938 -9.24,4.7657 v 55.7342"
         style="fill:#000000;fill-opacity:1;fill-rule:nonzero;stroke:none"
         id="path44" /><path
         d="m 1291.61,63.6563 10.53,10.2187 c 15.5,13.7188 21.47,19.0781 21.47,29.016 0,11.328 -8.95,19.265 -21.06,19.265 -11.24,0 -18.58,-9.14 -18.58,-17.984 0,-5.5626 4.97,-5.5626 5.26,-5.5626 1.69,0 5.16,1.2031 5.16,5.2656 0,2.594 -1.78,5.172 -5.26,5.172 -0.79,0 -0.99,0 -1.29,-0.094 2.29,6.453 7.64,10.125 13.41,10.125 9.05,0 13.31,-8.047 13.31,-16.187 0,-7.9535 -4.97,-15.7972 -10.43,-21.9535 l -19.07,-21.2656 c -1.09,-1.0938 -1.09,-1.2813 -1.09,-3.6719 h 36.86 l 2.78,17.2813 h -2.48 c -0.5,-2.9844 -1.21,-7.3438 -2.19,-8.8438 -0.71,-0.7812 -7.25,-0.7812 -9.44,-0.7812 h -17.89"
         style="fill:#000000;fill-opacity:1;fill-rule:nonzero;stroke:none"
         id="path46" /><path
         d="m 1374.69,87.7813 c 0,7.9531 -0.49,15.9067 -3.97,23.2497 -4.56,9.532 -12.72,11.125 -16.89,11.125 -5.95,0 -13.2,-2.578 -17.28,-11.812 -3.17,-6.86 -3.67,-14.6096 -3.67,-22.5627 0,-7.4375 0.39,-16.3907 4.46,-23.9375 4.27,-8.0469 11.54,-10.0313 16.39,-10.0313 5.36,0 12.93,2.0938 17.29,11.5313 3.18,6.8437 3.67,14.5937 3.67,22.4375 z M 1353.73,56 c -3.87,0 -9.73,2.4844 -11.51,12.0156 -1.09,5.9688 -1.09,15.1094 -1.09,20.9688 0,6.3594 0,12.9066 0.78,18.2816 1.89,11.812 9.34,12.703 11.82,12.703 3.29,0 9.83,-1.781 11.72,-11.625 1,-5.563 1,-13.1096 1,-19.3596 0,-7.4531 0,-14.2031 -1.09,-20.5625 C 1363.88,58.9844 1358.2,56 1353.73,56"
         style="fill:#000000;fill-opacity:1;fill-rule:nonzero;stroke:none"
         id="path48" /><path
         d="M 1729.11,192.855 V 158.844"
         style="fill:none;stroke:#000000;stroke-width:3.985;stroke-linecap:butt;stroke-linejoin:miter;stroke-miterlimit:10;stroke-dasharray:none;stroke-opacity:1"
         id="path50" /><path
         d="m 1683.2,119.578 c 0,2.375 0,2.578 -2.28,2.578 -6.15,-6.359 -14.9,-6.359 -18.08,-6.359 v -3.078 c 1.99,0 7.85,0 13.02,2.578 V 63.8438 c 0,-3.5782 -0.3,-4.7657 -9.25,-4.7657 h -3.17 V 56 c 3.47,0.2969 12.12,0.2969 16.09,0.2969 3.97,0 12.61,0 16.1,-0.2969 v 3.0781 h -3.19 c -8.94,0 -9.24,1.0938 -9.24,4.7657 v 55.7342"
         style="fill:#000000;fill-opacity:1;fill-rule:nonzero;stroke:none"
         id="path52" /><path
         d="m 1717.11,88.5781 v 2.3907 c 0,25.1252 12.33,28.7032 17.39,28.7032 2.38,0 6.55,-0.594 8.73,-3.969 -1.48,0 -5.45,0 -5.45,-4.469 0,-3.078 2.38,-4.578 4.56,-4.578 1.6,0 4.57,0.907 4.57,4.782 0,5.953 -4.36,10.718 -12.61,10.718 -12.72,0 -26.13,-12.812 -26.13,-34.7654 0,-26.5156 11.52,-33.5781 20.77,-33.5781 11.01,0 20.45,9.3438 20.45,22.4531 0,12.6094 -8.83,22.1563 -19.86,22.1563 -6.75,0 -10.44,-5.0781 -12.42,-9.8438 z m 11.83,-31.9843 c -6.27,0 -9.25,5.9687 -9.85,7.4531 -1.78,4.6719 -1.78,12.6094 -1.78,14.4062 0,7.75 3.17,17.6719 12.13,17.6719 1.58,0 6.15,0 9.23,-6.1562 1.78,-3.6719 1.78,-8.7344 1.78,-13.6094 0,-4.7656 0,-9.7344 -1.68,-13.3125 -2.99,-5.9531 -7.55,-6.4531 -9.83,-6.4531"
         style="fill:#000000;fill-opacity:1;fill-rule:nonzero;stroke:none"
         id="path54" /><path
         d="m 1798.61,75.9688 c 0,11.8125 -8.16,21.75 -18.88,21.75 -4.78,0 -9.04,-1.5938 -12.62,-5.0625 v 19.3747 c 1.98,-0.593 5.27,-1.297 8.45,-1.297 12.22,0 19.17,9.047 19.17,10.329 0,0.593 -0.29,1.093 -1,1.093 -0.09,0 -0.29,0 -0.79,-0.297 -1.99,-0.89 -6.86,-2.875 -13.5,-2.875 -3.99,0 -8.55,0.688 -13.22,2.782 -0.8,0.297 -1,0.297 -1.19,0.297 -1,0 -1,-0.797 -1,-2.391 V 90.2656 c 0,-1.7812 0,-2.5781 1.39,-2.5781 0.71,0 0.89,0.2969 1.3,0.8906 1.09,1.5938 4.76,6.9532 12.81,6.9532 5.16,0 7.64,-4.5625 8.44,-6.3594 1.59,-3.6719 1.8,-7.5469 1.8,-12.5156 0,-3.4688 0,-9.4375 -2.39,-13.6094 -2.38,-3.875 -6.07,-6.4531 -10.63,-6.4531 -7.25,0 -12.92,5.2656 -14.61,11.125 0.3,-0.0938 0.59,-0.2032 1.69,-0.2032 3.28,0 4.97,2.4844 4.97,4.875 0,2.3907 -1.69,4.875 -4.97,4.875 -1.39,0 -4.86,-0.7031 -4.86,-5.2656 0,-8.5469 6.86,-18.1875 17.98,-18.1875 11.52,0 21.66,9.5313 21.66,22.1563"
         style="fill:#000000;fill-opacity:1;fill-rule:nonzero;stroke:none"
         id="path56" /><path
         d="M 170.031,331.758 H 1303.9 m 0,0 8.26,1.137 8.27,1.191 8.26,1.246 8.26,1.25 8.26,1.301 8.26,1.332 8.26,1.39 8.26,1.418 8.26,1.5 8.27,1.532 8.26,1.586 8.26,1.644 8.26,1.699 8.26,1.762 8.26,1.813 8.27,1.871 8.26,1.98 8.26,2.043 8.26,2.129 8.26,2.211 8.26,2.32 8.27,2.41 8.26,2.528 8.26,2.605 8.26,2.778 8.26,2.863 8.26,3.035 8.26,3.145 8.26,3.316 8.27,3.484 8.26,3.719 8.26,3.852 8.26,4.109 8.26,4.34 8.26,4.598 8.27,4.878 8.26,5.176 8.26,5.539 8.26,5.895 8.26,6.312 8.26,6.77 8.26,7.269 8.26,7.844 8.27,8.485 8.26,9.199 8.26,10.011 8.26,10.93 8.26,11.996 8.26,13.223 8.27,14.641 8.26,16.3 8.26,18.223 8.26,20.613 8.26,23.41 8.27,26.868 8.26,31.097 8.25,36.457 8.27,43.301 8.26,52.32"
         style="fill:none;stroke:#be2828;stroke-width:11.9553;stroke-linecap:butt;stroke-linejoin:miter;stroke-miterlimit:10;stroke-dasharray:none;stroke-opacity:1"
         id="path58" /><path
         d="m 1002.72,735.172 c -0.39,0 -1.99,-0.188 -2.28,-0.188 -7.846,0 -13.112,7.75 -16.487,12.907 -1,1.687 -3.687,5.765 -4.781,7.453 2.391,5.359 9.047,17.687 20.878,17.687 0.68,0 1.58,0 2.67,-0.297 0,2.579 -0.09,2.672 -0.3,2.875 -0.69,0.204 -2.19,0.297 -3.076,0.297 -12.61,0 -19.969,-12.125 -22.344,-17.078 -3.984,6.047 -5.375,8.235 -9.047,11.313 -6.062,5.265 -11.515,5.765 -14,5.765 -11.031,0 -17.39,-11.125 -17.39,-22.547 0,-11.125 6.156,-22.453 17.093,-22.453 12.61,0 19.953,12.125 22.344,17.094 3.969,-6.062 5.359,-8.25 9.047,-11.328 6.047,-5.266 11.516,-5.766 14,-5.766 1.183,0 2.783,0.203 3.673,0.391 z m -28.907,16.297 c -2.375,-5.36 -9.032,-17.688 -20.86,-17.688 -9.64,0 -14.203,10.532 -14.203,19.578 0,9.829 5.563,18.469 13.813,18.469 7.843,0 13.109,-7.75 16.484,-12.906 1,-1.688 3.672,-5.766 4.766,-7.453"
         style="fill:#be2828;fill-opacity:1;fill-rule:nonzero;stroke:none"
         id="path60" /><path
         d="m 1065.2,795.578 c 0,2.375 0,2.578 -2.28,2.578 -6.15,-6.359 -14.9,-6.359 -18.08,-6.359 v -3.078 c 1.99,0 7.85,0 13.02,2.578 v -51.453 c 0,-3.578 -0.3,-4.766 -9.25,-4.766 h -3.17 V 732 c 3.47,0.297 12.12,0.297 16.09,0.297 3.97,0 12.61,0 16.1,-0.297 v 3.078 h -3.19 c -8.94,0 -9.24,1.094 -9.24,4.766 v 55.734"
         style="fill:#be2828;fill-opacity:1;fill-rule:nonzero;stroke:none"
         id="path62" /><path
         d="m 1129.61,802.734 c 0.5,1.282 0.5,1.688 0.5,1.782 0,1.093 -0.89,1.984 -1.98,1.984 -0.71,0 -1.4,-0.297 -1.69,-0.891 l -34.49,-94.671 c -0.48,-1.282 -0.48,-1.688 -0.48,-1.782 0,-1.093 0.89,-1.984 1.98,-1.984 1.28,0 1.6,0.687 2.19,2.375 l 33.97,93.187"
         style="fill:#be2828;fill-opacity:1;fill-rule:nonzero;stroke:none"
         id="path64" /><path
         d="m 1168.88,708.156 c 0,0.297 0,0.5 -1.69,2.188 -12.41,12.515 -15.6,31.297 -15.6,46.484 0,17.297 3.79,34.578 16,47 1.29,1.188 1.29,1.391 1.29,1.688 0,0.687 -0.4,0.984 -0.99,0.984 -1,0 -9.94,-6.75 -15.8,-19.375 -5.06,-10.922 -6.26,-21.953 -6.26,-30.297 0,-7.734 1.09,-19.765 6.56,-30.984 5.95,-12.219 14.5,-18.672 15.5,-18.672 0.59,0 0.99,0.297 0.99,0.984"
         style="fill:#be2828;fill-opacity:1;fill-rule:nonzero;stroke:none"
         id="path66" /><path
         d="m 1204.2,795.578 c 0,2.375 0,2.578 -2.28,2.578 -6.15,-6.359 -14.9,-6.359 -18.08,-6.359 v -3.078 c 1.99,0 7.85,0 13.02,2.578 v -51.453 c 0,-3.578 -0.3,-4.766 -9.25,-4.766 h -3.17 V 732 c 3.47,0.297 12.12,0.297 16.09,0.297 3.97,0 12.61,0 16.1,-0.297 v 3.078 h -3.19 c -8.94,0 -9.24,1.094 -9.24,4.766 v 55.734"
         style="fill:#be2828;fill-opacity:1;fill-rule:nonzero;stroke:none"
         id="path68" /><path
         d="m 1241.19,777.391 c -4.56,2.984 -4.97,6.359 -4.97,8.047 0,6.062 6.47,10.234 13.51,10.234 7.25,0 13.61,-5.156 13.61,-12.313 0,-5.671 -3.87,-10.437 -9.82,-13.906 z m 14.5,-9.438 c 7.15,3.688 12.03,8.844 12.03,15.406 0,9.141 -8.84,14.797 -17.89,14.797 -9.92,0 -17.97,-7.343 -17.97,-16.593 0,-1.782 0.19,-6.25 4.36,-10.922 1.09,-1.188 4.78,-3.672 7.26,-5.36 -5.76,-2.89 -14.31,-8.453 -14.31,-18.281 0,-10.531 10.13,-17.187 20.56,-17.187 11.22,0 20.66,8.25 20.66,18.875 0,3.578 -1.09,8.046 -4.86,12.218 -1.89,2.094 -3.48,3.078 -9.84,7.047 z m -9.92,-4.172 12.21,-7.734 c 2.79,-1.891 7.46,-4.875 7.46,-10.938 0,-7.343 -7.46,-12.515 -15.61,-12.515 -8.53,0 -15.69,6.156 -15.69,14.406 0,5.766 3.17,12.125 11.63,16.781"
         style="fill:#be2828;fill-opacity:1;fill-rule:nonzero;stroke:none"
         id="path70" /><path
         d="m 1319.69,763.781 c 0,7.953 -0.49,15.907 -3.97,23.25 -4.56,9.532 -12.72,11.125 -16.89,11.125 -5.95,0 -13.2,-2.578 -17.28,-11.812 -3.17,-6.86 -3.67,-14.61 -3.67,-22.563 0,-7.437 0.39,-16.39 4.46,-23.937 4.27,-8.047 11.54,-10.031 16.39,-10.031 5.36,0 12.93,2.093 17.29,11.531 3.18,6.844 3.67,14.594 3.67,22.437 z M 1298.73,732 c -3.87,0 -9.73,2.484 -11.51,12.016 -1.09,5.968 -1.09,15.109 -1.09,20.968 0,6.36 0,12.907 0.78,18.282 1.89,11.812 9.34,12.703 11.82,12.703 3.29,0 9.83,-1.781 11.72,-11.625 1,-5.563 1,-13.11 1,-19.36 0,-7.453 0,-14.203 -1.09,-20.562 C 1308.88,734.984 1303.2,732 1298.73,732"
         style="fill:#be2828;fill-opacity:1;fill-rule:nonzero;stroke:none"
         id="path72" /><path
         d="m 1359.64,785.578 c 0,8.5 -6.81,15.11 -15.11,15.11 -8.44,0 -15.12,-6.813 -15.12,-15.047 0,-8.5 6.82,-15.11 15.12,-15.11 8.44,0 15.11,6.813 15.11,15.047 z m -15.11,-11.609 c -6.61,0 -11.67,5.344 -11.67,11.609 0,6.531 5.2,11.672 11.67,11.672 6.61,0 11.67,-5.344 11.67,-11.609 0,-6.532 -5.2,-11.672 -11.67,-11.672"
         style="fill:#be2828;fill-opacity:1;fill-rule:nonzero;stroke:none"
         id="path74" /><path
         d="m 1457.47,754.844 c 1.69,0 3.47,0 3.47,1.984 0,2 -1.78,2 -3.47,2 h -53.75 c -1.69,0 -3.47,0 -3.47,-2 0,-1.984 1.78,-1.984 3.47,-1.984 h 53.75"
         style="fill:#be2828;fill-opacity:1;fill-rule:nonzero;stroke:none"
         id="path76" /><path
         d="m 1508.89,715.109 c -0.41,-1.281 -0.5,-1.484 -0.5,-1.984 0,-2.187 1.89,-2.781 2.88,-2.781 0.5,0 2.68,0.297 3.68,2.578 0.3,0.797 0.78,4.078 3.47,18.187 0.89,-0.109 1.6,-0.203 3.28,-0.203 16.49,0 31.78,15.594 31.78,31.297 0,7.75 -3.87,13.703 -11.31,13.703 -14.4,0 -20.37,-19.265 -26.33,-38.64 -10.73,1.984 -16.29,7.547 -16.29,14.703 0,2.781 2.28,13.703 8.25,20.562 0.79,0.891 0.79,1.094 0.79,1.297 0,0.391 -0.2,0.985 -1.2,0.985 -2.78,0 -10.42,-14.407 -10.42,-23.938 0,-9.344 6.55,-16.594 17.19,-19.078 z m 13.7,21.563 c -0.79,0 -0.98,0 -1.78,0.094 -1.2,0 -1.29,0.109 -1.29,0.406 0,0.187 1.68,9.234 1.98,10.719 3.08,12.718 10.83,22.25 19.67,22.25 6.86,0 9.53,-5.36 9.53,-10.125 0,-11.235 -12.81,-23.344 -28.11,-23.344"
         style="fill:#be2828;fill-opacity:1;fill-rule:nonzero;stroke:none"
         id="path78" /><path
         d="m 1585.7,756.828 c 0,7.75 -1.09,19.781 -6.54,31 -5.97,12.219 -14.5,18.672 -15.5,18.672 -0.6,0 -1,-0.391 -1,-0.984 0,-0.297 0,-0.5 1.89,-2.297 9.73,-9.828 15.4,-25.625 15.4,-46.391 0,-16.984 -3.68,-34.469 -16,-46.984 -1.29,-1.188 -1.29,-1.391 -1.29,-1.688 0,-0.593 0.4,-0.984 1,-0.984 1,0 9.93,6.75 15.79,19.359 5.07,10.938 6.25,21.953 6.25,30.297"
         style="fill:#be2828;fill-opacity:1;fill-rule:nonzero;stroke:none"
         id="path80" /><path
         d="M 1473.98,728.613 1672.41,558.535"
         style="fill:none;stroke:#be2828;stroke-width:3.985;stroke-linecap:butt;stroke-linejoin:miter;stroke-miterlimit:10;stroke-dasharray:none;stroke-opacity:1"
         id="path82" /><path
         d="M 1303.9,175.852 V 331.758"
         style="fill:none;stroke:#787878;stroke-width:3.985;stroke-linecap:butt;stroke-linejoin:miter;stroke-miterlimit:10;stroke-dasharray:29.8883, 29.8883;stroke-dashoffset:0;stroke-opacity:1"
         id="path84" /><path
         d="m 704.047,265.734 v -32.187 c 0,-4.469 -1.094,-4.469 -7.75,-4.469 V 226 c 3.281,0.094 8.547,0.297 11.031,0.297 2.485,0 7.344,-0.203 11.016,-0.297 v 3.078 c -6.656,0 -7.735,0 -7.735,4.469 v 61.391 l -3.578,-0.594 c -0.406,0 -0.5,0.094 -0.906,0.297 -3.172,1.39 -7.25,1.39 -8.344,1.39 -10.422,0 -21.25,-5.562 -21.25,-15.89 v -11.328 h -7.843 v -3.079 h 7.843 v -32.187 c 0,-4.469 -1.093,-4.469 -7.75,-4.469 V 226 c 3.282,0.094 8.547,0.297 11.032,0.297 2.484,0 7.343,-0.203 11.015,-0.297 v 3.078 c -6.656,0 -7.734,0 -7.734,4.469 v 32.187 z m 0,3.079 h -21.266 v 11.234 c 0,9.234 7.563,13.797 14.907,13.797 0.89,0 3.578,0 6.359,-0.891 -0.891,-0.39 -2.484,-1.39 -2.484,-3.969 0,-1.796 0.796,-3.281 2.484,-3.875 v -16.296"
         style="fill:#787878;fill-opacity:1;fill-rule:nonzero;stroke:none"
         id="path86" /><path
         d="m 754.078,233.547 c 0.406,-3.969 3.078,-8.141 7.75,-8.141 2.078,0 8.141,1.391 8.141,9.438 v 5.562 h -2.485 v -5.562 c 0,-5.766 -2.484,-6.36 -3.578,-6.36 -3.265,0 -3.672,4.469 -3.672,4.969 v 19.86 c 0,4.171 0,8.046 -3.578,11.734 -3.875,3.859 -8.828,5.453 -13.609,5.453 -8.141,0 -15,-4.672 -15,-11.219 0,-2.984 2,-4.672 4.578,-4.672 2.781,0 4.563,1.985 4.563,4.563 0,1.203 -0.5,4.484 -5.063,4.578 2.688,3.469 7.547,4.563 10.734,4.563 4.86,0 10.532,-3.875 10.532,-12.704 v -3.687 c -5.078,-0.297 -12.032,-0.594 -18.282,-3.578 -7.453,-3.375 -9.937,-8.531 -9.937,-12.906 0,-8.047 9.641,-10.532 15.891,-10.532 6.562,0 11.125,3.969 13.015,8.641 z m -0.687,16.297 v -9.938 c 0,-9.437 -7.157,-12.812 -11.625,-12.812 -4.875,0 -8.938,3.469 -8.938,8.437 0,5.469 4.172,13.719 20.563,14.313"
         style="fill:#787878;fill-opacity:1;fill-rule:nonzero;stroke:none"
         id="path88" /><path
         d="m 788.188,265.734 h 14.203 v 3.079 h -14.203 v 18.281 h -2.485 c -0.094,-8.141 -3.078,-18.781 -12.812,-19.172 v -2.188 h 8.437 v -27.421 c 0,-12.219 9.235,-13.407 12.813,-13.407 7.062,0 9.843,7.047 9.843,13.407 v 5.671 H 801.5 v -5.468 c 0,-7.344 -2.984,-11.125 -6.656,-11.125 -6.656,0 -6.656,9.047 -6.656,10.734 v 27.609"
         style="fill:#787878;fill-opacity:1;fill-rule:nonzero;stroke:none"
         id="path90" /><path
         d="m 860.188,265.734 h 14.203 v 3.079 h -14.203 v 18.281 h -2.485 c -0.094,-8.141 -3.078,-18.781 -12.812,-19.172 v -2.188 h 8.437 v -27.421 c 0,-12.219 9.235,-13.407 12.813,-13.407 7.062,0 9.843,7.047 9.843,13.407 v 5.671 H 873.5 v -5.468 c 0,-7.344 -2.984,-11.125 -6.656,-11.125 -6.656,0 -6.656,9.047 -6.656,10.734 v 27.609"
         style="fill:#787878;fill-opacity:1;fill-rule:nonzero;stroke:none"
         id="path92" /><path
         d="m 927.781,247.266 c 0,12.703 -9.922,23.234 -21.953,23.234 -12.406,0 -22.047,-10.828 -22.047,-23.234 0,-12.828 10.328,-22.36 21.953,-22.36 12.016,0 22.047,9.735 22.047,22.36 z m -21.953,-19.875 c -4.265,0 -8.64,2.093 -11.312,6.656 -2.485,4.375 -2.485,10.437 -2.485,14 0,3.875 0,9.25 2.375,13.609 2.688,4.578 7.36,6.657 11.328,6.657 4.375,0 8.641,-2.188 11.219,-6.454 2.594,-4.265 2.594,-10.031 2.594,-13.812 0,-3.563 0,-8.938 -2.188,-13.313 -2.187,-4.468 -6.562,-7.343 -11.531,-7.343"
         style="fill:#787878;fill-opacity:1;fill-rule:nonzero;stroke:none"
         id="path94" /><path
         d="m 1035.72,259.172 c 0,2.187 -0.59,3.187 -1.39,3.187 -0.5,0 -1.28,-0.703 -1.39,-2.578 -0.39,-9.547 -6.96,-15 -13.91,-15 -6.25,0 -11.03,4.266 -15.89,8.532 -5.062,4.578 -10.234,9.14 -16.984,9.14 -10.828,0 -16.687,-10.922 -16.687,-19.969 0,-3.171 1.281,-3.171 1.39,-3.171 1.094,0 1.391,1.984 1.391,2.281 0.391,10.922 7.844,15.297 13.906,15.297 6.25,0 11.016,-4.266 15.894,-8.547 5.06,-4.563 10.23,-9.125 16.98,-9.125 10.83,0 16.69,10.922 16.69,19.953"
         style="fill:#787878;fill-opacity:1;fill-rule:nonzero;stroke:none"
         id="path96" /><path
         d="m 1071.2,289.578 c 0,2.375 0,2.578 -2.28,2.578 -6.15,-6.359 -14.9,-6.359 -18.08,-6.359 v -3.078 c 1.99,0 7.85,0 13.02,2.578 v -51.453 c 0,-3.578 -0.3,-4.766 -9.25,-4.766 h -3.17 V 226 c 3.47,0.297 12.12,0.297 16.09,0.297 3.97,0 12.61,0 16.1,-0.297 v 3.078 h -3.19 c -8.94,0 -9.24,1.094 -9.24,4.766 v 55.734"
         style="fill:#787878;fill-opacity:1;fill-rule:nonzero;stroke:none"
         id="path98" /><path
         d="m 1104.61,233.656 10.53,10.219 c 15.5,13.719 21.47,19.078 21.47,29.016 0,11.328 -8.95,19.265 -21.06,19.265 -11.24,0 -18.58,-9.14 -18.58,-17.984 0,-5.563 4.97,-5.563 5.26,-5.563 1.69,0 5.16,1.204 5.16,5.266 0,2.594 -1.78,5.172 -5.26,5.172 -0.79,0 -0.99,0 -1.29,-0.094 2.29,6.453 7.64,10.125 13.41,10.125 9.05,0 13.31,-8.047 13.31,-16.187 0,-7.953 -4.97,-15.797 -10.43,-21.953 l -19.07,-21.266 c -1.09,-1.094 -1.09,-1.281 -1.09,-3.672 h 36.86 l 2.78,17.281 h -2.48 c -0.5,-2.984 -1.21,-7.343 -2.19,-8.843 -0.71,-0.782 -7.25,-0.782 -9.44,-0.782 h -17.89"
         style="fill:#787878;fill-opacity:1;fill-rule:nonzero;stroke:none"
         id="path100" /><path
         d="m 1187.69,257.781 c 0,7.953 -0.49,15.907 -3.97,23.25 -4.56,9.532 -12.72,11.125 -16.89,11.125 -5.95,0 -13.2,-2.578 -17.28,-11.812 -3.17,-6.86 -3.67,-14.61 -3.67,-22.563 0,-7.437 0.39,-16.39 4.46,-23.937 4.27,-8.047 11.54,-10.031 16.39,-10.031 5.36,0 12.93,2.093 17.29,11.531 3.18,6.844 3.67,14.594 3.67,22.437 z M 1166.73,226 c -3.87,0 -9.73,2.484 -11.51,12.016 -1.09,5.968 -1.09,15.109 -1.09,20.968 0,6.36 0,12.907 0.78,18.282 1.89,11.812 9.34,12.703 11.82,12.703 3.29,0 9.83,-1.781 11.72,-11.625 1,-5.563 1,-13.11 1,-19.36 0,-7.453 0,-14.203 -1.09,-20.562 C 1176.88,228.984 1171.2,226 1166.73,226"
         style="fill:#787878;fill-opacity:1;fill-rule:nonzero;stroke:none"
         id="path102" /><path
         d="m 1226.64,279.578 c 0,8.5 -6.81,15.11 -15.11,15.11 -8.44,0 -15.12,-6.813 -15.12,-15.047 0,-8.5 6.82,-15.11 15.12,-15.11 8.44,0 15.11,6.813 15.11,15.047 z m -15.11,-11.609 c -6.61,0 -11.67,5.344 -11.67,11.609 0,6.531 5.2,11.672 11.67,11.672 6.61,0 11.67,-5.344 11.67,-11.609 0,-6.532 -5.2,-11.672 -11.67,-11.672"
         style="fill:#787878;fill-opacity:1;fill-rule:nonzero;stroke:none"
         id="path104" /></g></g></svg>
