<?xml version="1.0" encoding="UTF-8" standalone="no"?>
<!-- Created with Inkscape (http://www.inkscape.org/) -->

<svg
   version="1.1"
   id="svg2"
   xml:space="preserve"
   width="209.01334"
   height="88.666664"
   viewBox="0 0 209.01334 88.666664"
   xmlns="http://www.w3.org/2000/svg"
   xmlns:svg="http://www.w3.org/2000/svg"><defs
     id="defs6" /><g
     id="g8"
     transform="matrix(1.3333333,0,0,-1.3333333,0,88.666667)"><g
       id="g10"
       transform="scale(0.1)"><path
         d="m 181.461,204.02 c 0,0 25.199,7.918 34.879,10.921 9.68,3 25.199,7.801 34.879,10.723 9.679,2.922 25.203,7.551 34.879,10.34 9.679,2.789 25.203,7.164 34.882,9.766 9.676,2.605 25.2,6.628 34.879,9.003 9.68,2.372 25.2,6.004 34.879,8.106 9.68,2.101 25.203,5.25 34.879,7.039 9.68,1.789 25.203,4.41 34.879,5.855 9.68,1.446 25.203,3.481 34.883,4.555 9.676,1.078 25.199,2.512 34.879,3.199 9.68,0.688 25.199,1.469 34.879,1.754 9.679,0.285 25.203,0.422 34.879,0.301 9.679,-0.117 25.203,-0.637 34.882,-1.164 9.676,-0.523 25.2,-1.703 34.879,-2.625 9.68,-0.922 25.2,-2.719 34.879,-4.016 9.68,-1.3 25.203,-3.683 34.879,-5.336 9.68,-1.652 25.203,-4.593 34.879,-6.574 9.68,-1.976 25.203,-5.422 34.883,-7.691 9.676,-2.266 25.199,-6.141 34.879,-8.656 9.679,-2.516 25.199,-6.758 34.879,-9.477 9.679,-2.719 25.203,-7.25 34.879,-10.121 9.679,-2.875 25.203,-7.621 34.882,-10.602 9.676,-2.976 25.2,-7.843 34.879,-10.867 9.68,-3.023 25.195,-7.914 34.875,-10.93 9.68,-3.019 25.21,-7.867 34.88,-10.828 9.68,-2.965 25.21,-7.675 34.88,-10.527 9.68,-2.852 25.21,-7.332 34.88,-10.016 9.68,-2.687 25.2,-6.859 34.88,-9.332 9.68,-2.476 25.2,-6.277 34.88,-8.492 9.68,-2.219 25.21,-5.566 34.88,-7.484 9.68,-1.918 25.2,-4.754 34.88,-6.344 9.68,-1.59 25.2,-3.879 34.88,-5.109 9.68,-1.227 25.2,-2.903 34.88,-3.746 9.68,-0.844 25.21,-1.899 34.88,-2.348 9.68,-0.449 25.2,-0.848 34.88,-0.891 9.68,-0.047 25.2,0.211 34.88,0.571 9.68,0.363 25.2,1.273 34.88,2.035 9.68,0.761 25.2,2.308 34.88,3.457 9.68,1.144 34.88,4.804 34.88,4.804"
         style="fill:none;stroke:#28508c;stroke-width:11.9553;stroke-linecap:butt;stroke-linejoin:miter;stroke-miterlimit:10;stroke-dasharray:none;stroke-opacity:1"
         id="path12" /><path
         d="m 132.828,192.281 c 0.219,0.547 0.531,1.297 0.531,1.516 0,0.109 0,1.203 -1.296,1.203 -0.969,0 -1.188,-0.656 -1.407,-1.312 -7.062,-16.047 -11.078,-23.329 -29.625,-23.329 H 85.1875 c -1.5156,0 -1.7344,0 -2.3906,0.11 -1.0781,0.109 -1.4063,0.219 -1.4063,1.094 0,0.312 0,0.531 0.5469,2.484 l 7.375,29.625 h 10.7345 c 9.234,0 9.234,-2.281 9.234,-4.984 0,-0.766 0,-2.063 -0.765,-5.329 -0.219,-0.531 -0.328,-0.859 -0.328,-1.187 0,-0.547 0.437,-1.188 1.421,-1.188 0.86,0 1.188,0.532 1.625,2.172 l 6.188,25.391 c 0,0.641 -0.547,1.187 -1.313,1.187 -0.968,0 -1.187,-0.656 -1.515,-1.953 -2.281,-8.25 -4.235,-10.75 -14.219,-10.75 H 90.1719 l 6.5156,26.157 c 0.9844,3.796 1.0938,4.234 5.8595,4.234 h 15.297 c 13.25,0 16.5,-3.141 16.5,-12.047 0,-2.609 0,-2.812 -0.438,-5.75 0,-0.656 -0.109,-1.406 -0.109,-1.953 0,-0.547 0.328,-1.297 1.297,-1.297 1.203,0 1.312,0.641 1.531,2.703 l 2.172,18.781 c 0.312,2.922 -0.219,2.922 -2.938,2.922 H 81.0625 c -2.1719,0 -3.25,0 -3.25,-2.172 0,-1.187 0.9688,-1.187 3.0313,-1.187 4.0156,0 7.0625,0 7.0625,-1.953 0,-0.438 0,-0.656 -0.5469,-2.61 l -14.3281,-57.39 c -1.0782,-4.235 -1.2969,-5.11 -9.875,-5.11 -1.8438,0 -3.0313,0 -3.0313,-2.062 0,-1.297 0.9688,-1.297 3.0313,-1.297 h 56.3127 c 2.5,0 2.609,0.109 3.375,1.844 l 9.984,23.437"
         style="fill:#28508c;fill-opacity:1;fill-rule:nonzero;stroke:none"
         id="path14" /><path
         d="m 978.793,489.754 c 0,8.266 -6.699,14.969 -14.969,14.969 -8.265,0 -14.969,-6.703 -14.969,-14.969 0,-8.266 6.704,-14.969 14.969,-14.969 8.27,0 14.969,6.703 14.969,14.969 z"
         style="fill:#be2828;fill-opacity:1;fill-rule:nonzero;stroke:none"
         id="path16" /><path
         d="m 803.188,586.734 h 14.203 v 3.079 h -14.203 v 18.281 h -2.485 c -0.094,-8.141 -3.078,-18.781 -12.812,-19.172 v -2.188 h 8.437 v -27.421 c 0,-12.219 9.235,-13.407 12.813,-13.407 7.062,0 9.843,7.047 9.843,13.407 v 5.671 H 816.5 v -5.468 c 0,-7.344 -2.984,-11.125 -6.656,-11.125 -6.656,0 -6.656,9.047 -6.656,10.734 v 27.609"
         style="fill:#be2828;fill-opacity:1;fill-rule:nonzero;stroke:none"
         id="path18" /><path
         d="m 858.078,554.547 c 0.406,-3.969 3.078,-8.141 7.75,-8.141 2.078,0 8.141,1.391 8.141,9.438 v 5.562 h -2.485 v -5.562 c 0,-5.766 -2.484,-6.36 -3.578,-6.36 -3.265,0 -3.672,4.469 -3.672,4.969 v 19.86 c 0,4.171 0,8.046 -3.578,11.734 -3.875,3.859 -8.828,5.453 -13.609,5.453 -8.141,0 -15,-4.672 -15,-11.219 0,-2.984 2,-4.672 4.578,-4.672 2.781,0 4.563,1.985 4.563,4.563 0,1.203 -0.5,4.484 -5.063,4.578 2.688,3.469 7.547,4.563 10.734,4.563 4.86,0 10.532,-3.875 10.532,-12.704 v -3.687 c -5.078,-0.297 -12.032,-0.594 -18.282,-3.578 -7.453,-3.375 -9.937,-8.531 -9.937,-12.906 0,-8.047 9.641,-10.532 15.891,-10.532 6.562,0 11.125,3.969 13.015,8.641 z m -0.687,16.297 v -9.938 c 0,-9.437 -7.157,-12.812 -11.625,-12.812 -4.875,0 -8.938,3.469 -8.938,8.437 0,5.469 4.172,13.719 20.563,14.313"
         style="fill:#be2828;fill-opacity:1;fill-rule:nonzero;stroke:none"
         id="path20" /><path
         d="m 891.594,579.984 v 10.922 l -13.813,-1.093 v -3.079 c 6.953,0 7.75,-0.687 7.75,-5.562 v -26.625 c 0,-4.469 -1.093,-4.469 -7.75,-4.469 V 547 c 3.875,0.094 8.547,0.297 11.328,0.297 3.969,0 8.641,0 12.61,-0.297 v 3.078 h -2.078 c -7.36,0 -7.547,1.094 -7.547,4.672 v 15.297 c 0,9.828 4.172,18.672 11.719,18.672 0.687,0 0.89,0 1.093,-0.094 -0.297,-0.109 -2.297,-1.297 -2.297,-3.875 0,-2.781 2.094,-4.266 4.282,-4.266 1.781,0 4.265,1.188 4.265,4.36 0,3.187 -3.078,6.062 -7.343,6.062 -7.25,0 -10.829,-6.656 -12.219,-10.922"
         style="fill:#be2828;fill-opacity:1;fill-rule:nonzero;stroke:none"
         id="path22" /><path
         d="m 936.047,564.094 c -8.641,0 -8.641,9.922 -8.641,12.203 0,2.687 0.11,5.875 1.594,8.359 0.797,1.188 3.078,3.969 7.047,3.969 8.641,0 8.641,-9.937 8.641,-12.219 0,-2.687 -0.094,-5.859 -1.579,-8.343 -0.796,-1.188 -3.078,-3.969 -7.062,-3.969 z m -11.516,-3.875 c 0,0.39 0,2.672 1.688,4.656 3.875,-2.781 7.953,-3.078 9.828,-3.078 9.25,0 16.094,6.859 16.094,14.5 0,3.687 -1.578,7.359 -4.063,9.641 3.578,3.375 7.141,3.875 8.938,3.875 0.203,0 0.687,0 0.984,-0.094 -1.094,-0.406 -1.578,-1.5 -1.578,-2.688 0,-1.687 1.281,-2.875 2.875,-2.875 1,0 2.875,0.688 2.875,2.969 0,1.703 -1.188,4.875 -5.063,4.875 -1.984,0 -6.359,-0.594 -10.531,-4.672 -4.172,3.281 -8.344,3.578 -10.531,3.578 -9.234,0 -16.094,-6.859 -16.094,-14.5 0,-4.375 2.188,-8.14 4.672,-10.234 -1.281,-1.484 -3.078,-4.766 -3.078,-8.25 0,-3.078 1.297,-6.844 4.375,-8.828 -5.969,-1.703 -9.141,-5.969 -9.141,-9.938 0,-7.156 9.828,-12.625 21.953,-12.625 11.719,0 22.047,5.078 22.047,12.813 0,3.484 -1.39,8.547 -6.453,11.328 -5.265,2.781 -11.031,2.781 -17.078,2.781 -2.484,0 -6.766,0 -7.453,0.11 -3.188,0.39 -5.266,3.468 -5.266,6.656 z m 14.297,-31.391 c -10.031,0 -16.875,5.063 -16.875,10.328 0,4.563 3.766,8.235 8.141,8.547 h 5.859 c 8.547,0 19.672,0 19.672,-8.547 0,-5.375 -7.062,-10.328 -16.797,-10.328"
         style="fill:#be2828;fill-opacity:1;fill-rule:nonzero;stroke:none"
         id="path24" /><path
         d="m 974.125,572.031 c 0.594,14.797 8.938,17.282 12.313,17.282 10.234,0 11.234,-13.407 11.234,-17.282 z m -0.094,-2.078 h 27.699 c 2.19,0 2.49,0 2.49,2.078 0,9.844 -5.361,19.469 -17.782,19.469 -11.516,0 -20.657,-10.234 -20.657,-22.641 0,-13.312 10.438,-22.953 21.86,-22.953 12.109,0 16.579,11.032 16.579,12.922 0,0.985 -0.78,1.188 -1.28,1.188 -0.89,0 -1.1,-0.594 -1.3,-1.391 -3.468,-10.234 -12.421,-10.234 -13.406,-10.234 -4.968,0 -8.937,2.984 -11.234,6.656 -2.969,4.766 -2.969,11.328 -2.969,14.906"
         style="fill:#be2828;fill-opacity:1;fill-rule:nonzero;stroke:none"
         id="path26" /><path
         d="m 1025.19,586.734 h 14.2 v 3.079 h -14.2 v 18.281 h -2.49 c -0.09,-8.141 -3.07,-18.781 -12.81,-19.172 v -2.188 h 8.44 v -27.421 c 0,-12.219 9.23,-13.407 12.81,-13.407 7.06,0 9.84,7.047 9.84,13.407 v 5.671 h -2.48 v -5.468 c 0,-7.344 -2.98,-11.125 -6.66,-11.125 -6.65,0 -6.65,9.047 -6.65,10.734 v 27.609"
         style="fill:#be2828;fill-opacity:1;fill-rule:nonzero;stroke:none"
         id="path28" /><path
         d="m 1130.27,584.344 c 0.68,1.39 1,2.094 7.34,2.094 v 4.671 c -2.38,-0.203 -5.36,-0.296 -7.84,-0.296 -2.49,0 -6.96,0.187 -9.04,0.296 v -4.671 c 0.19,0 4.66,0 4.66,-1.188 0,-0.109 -0.39,-1.094 -0.48,-1.203 l -11.43,-24.438 -12.62,26.829 h 5.36 v 4.671 c -3.27,-0.203 -12.22,-0.296 -12.31,-0.296 -2.78,0 -7.25,0.187 -11.33,0.296 v -4.671 h 6.36 l 18.58,-39.438 -2.29,-4.766 c -2.18,-4.765 -5.35,-11.531 -12.42,-11.531 -1.39,0 -1.59,0.11 -2.37,0.406 0.89,0.391 3.17,1.782 3.17,5.266 0,3.281 -2.39,5.656 -5.77,5.656 -2.78,0 -5.65,-1.89 -5.65,-5.765 0,-5.063 4.67,-9.141 10.62,-9.141 7.66,0 13.41,6.172 16.1,11.828 l 21.36,45.391"
         style="fill:#be2828;fill-opacity:1;fill-rule:nonzero;stroke:none"
         id="path30" /><path
         d="m 976.074,214.672 c 0,6.766 -5.484,12.246 -12.25,12.246 -6.765,0 -12.25,-5.48 -12.25,-12.246 0,-6.766 5.485,-12.25 12.25,-12.25 6.766,0 12.25,5.484 12.25,12.25 z"
         style="fill:#000000;fill-opacity:1;fill-rule:nonzero;stroke:none"
         id="path32" /><path
         d="m 937.875,57.1563 c 0,0.2968 0,0.5 -1.687,2.1875 -12.407,12.5156 -15.594,31.2968 -15.594,46.4842 0,17.297 3.781,34.578 16,47 1.281,1.188 1.281,1.391 1.281,1.688 0,0.687 -0.391,0.984 -0.984,0.984 -1,0 -9.938,-6.75 -15.797,-19.375 -5.063,-10.922 -6.266,-21.953 -6.266,-30.297 0,-7.7342 1.094,-19.7655 6.563,-30.9842 5.953,-12.2188 14.5,-18.6719 15.5,-18.6719 0.593,0 0.984,0.2969 0.984,0.9844"
         style="fill:#000000;fill-opacity:1;fill-rule:nonzero;stroke:none"
         id="path34" /><path
         d="m 977.766,86.5625 c 1.093,-4.0781 4.578,-6.6562 8.843,-6.6562 3.469,0 5.766,2.2812 7.344,5.4687 1.703,3.5781 2.985,9.625 2.985,9.8281 0,1 -0.891,1 -1.188,1 -1,0 -1.094,-0.4062 -1.391,-1.7968 -1.39,-5.5625 -3.281,-12.3125 -7.453,-12.3125 -2.078,0 -3.078,1.2968 -3.078,4.5625 0,2.1875 1.188,6.8593 1.985,10.3437 l 2.781,10.719 c 0.297,1.5 1.297,5.265 1.687,6.765 0.5,2.282 1.5,6.047 1.5,6.641 0,1.797 -1.39,2.688 -2.89,2.688 -0.5,0 -3.078,-0.094 -3.875,-3.469 -1.891,-7.266 -6.25,-24.6409 -7.453,-29.9065 -0.094,-0.3906 -4.063,-8.3437 -11.313,-8.3437 -5.172,0 -6.156,4.4687 -6.156,8.1406 0,5.5625 2.781,13.4216 5.359,20.2656 1.188,2.984 1.688,4.375 1.688,6.266 0,4.468 -3.188,8.14 -8.141,8.14 -9.437,0 -13.125,-14.406 -13.125,-15.297 0,-1 1,-1 1.203,-1 0.985,0 1.094,0.204 1.578,1.797 2.485,8.641 6.266,12.313 10.032,12.313 0.906,0 2.484,-0.094 2.484,-3.281 0,-2.375 -1.078,-5.266 -1.688,-6.75 -3.671,-9.829 -5.75,-16.0005 -5.75,-20.8599 0,-9.4375 6.844,-11.9218 12.219,-11.9218 6.547,0 10.125,4.4687 11.813,6.6562"
         style="fill:#000000;fill-opacity:1;fill-rule:nonzero;stroke:none"
         id="path36" /><path
         d="m 1023.7,134.5 c 5.77,2.531 8.38,3.516 10.13,4.359 1.34,0.563 1.97,0.844 1.97,2.188 0,1.187 -0.91,2.25 -2.17,2.25 -0.5,0 -0.65,0 -1.49,-0.641 l -9.56,-6.39 1.06,10.406 c 0.14,1.266 0,3.016 -2.11,3.016 -0.84,0 -2.19,-0.563 -2.19,-2.11 0,-0.625 0.29,-2.734 0.36,-3.437 0.14,-1.203 0.63,-6.266 0.77,-7.875 l -9.49,6.39 c -0.7,0.422 -0.92,0.641 -1.54,0.641 -1.27,0 -2.19,-1.063 -2.19,-2.25 0,-1.406 0.84,-1.766 1.48,-2.047 l 10.61,-4.422 c -5.76,-2.531 -8.36,-3.515 -10.12,-4.359 -1.33,-0.563 -1.97,-0.844 -1.97,-2.188 0,-1.187 0.92,-2.25 2.19,-2.25 0.48,0 0.62,0 1.47,0.641 l 9.56,6.391 -1.13,-11.313 c 0,-1.547 1.35,-2.109 2.19,-2.109 0.85,0 2.17,0.562 2.17,2.109 0,0.625 -0.28,2.734 -0.34,3.438 -0.14,1.203 -0.64,6.265 -0.78,7.875 l 8.44,-5.625 c 1.82,-1.407 1.96,-1.407 2.61,-1.407 1.26,0 2.17,1.063 2.17,2.25 0,1.407 -0.85,1.766 -1.47,2.047 l -10.63,4.422"
         style="fill:#000000;fill-opacity:1;fill-rule:nonzero;stroke:none"
         id="path38" /><path
         d="m 1066.17,81.0938 c 0,6.5625 -2.48,10.4375 -6.36,10.4375 -3.28,0 -5.26,-2.4844 -5.26,-5.2657 0,-2.6875 1.98,-5.2656 5.26,-5.2656 1.19,0 2.49,0.3906 3.47,1.2969 0.3,0.1875 0.41,0.2969 0.5,0.2969 0.1,0 0.2,-0.1094 0.2,-1.5 0,-7.3438 -3.48,-13.3125 -6.76,-16.5782 -1.09,-1.0937 -1.09,-1.2968 -1.09,-1.5937 0,-0.7031 0.5,-1.0938 1,-1.0938 1.09,0 9.04,7.6563 9.04,19.2657"
         style="fill:#000000;fill-opacity:1;fill-rule:nonzero;stroke:none"
         id="path40" /><path
         d="m 1137.48,117.953 c 0,5.36 -2.57,6.953 -4.35,6.953 -2.49,0 -4.88,-2.578 -4.88,-4.765 0,-1.297 0.5,-1.891 1.59,-2.985 2.08,-1.984 3.38,-4.562 3.38,-8.14 0,-4.172 -6.06,-26.9222 -17.69,-26.9222 -5.06,0 -7.34,3.4687 -7.34,8.6406 0,5.5625 2.69,12.8126 5.76,21.0626 0.69,1.687 1.19,3.078 1.19,4.969 0,4.468 -3.19,8.14 -8.14,8.14 -9.34,0 -13.12,-14.406 -13.12,-15.297 0,-1 1,-1 1.2,-1 0.98,0 1.09,0.204 1.58,1.797 2.89,10.032 7.15,12.313 10.03,12.313 0.79,0 2.48,0 2.48,-3.172 0,-2.484 -0.98,-5.172 -1.69,-6.953 -4.35,-11.531 -5.65,-16.094 -5.65,-20.3752 0,-10.7188 8.73,-12.3125 13.31,-12.3125 16.69,0 22.34,32.8747 22.34,38.0467"
         style="fill:#000000;fill-opacity:1;fill-rule:nonzero;stroke:none"
         id="path42" /><path
         d="m 1164.7,134.5 c 5.77,2.531 8.38,3.516 10.13,4.359 1.34,0.563 1.97,0.844 1.97,2.188 0,1.187 -0.91,2.25 -2.17,2.25 -0.5,0 -0.65,0 -1.49,-0.641 l -9.56,-6.39 1.06,10.406 c 0.14,1.266 0,3.016 -2.11,3.016 -0.84,0 -2.19,-0.563 -2.19,-2.11 0,-0.625 0.29,-2.734 0.36,-3.437 0.14,-1.203 0.63,-6.266 0.77,-7.875 l -9.49,6.39 c -0.7,0.422 -0.92,0.641 -1.54,0.641 -1.27,0 -2.19,-1.063 -2.19,-2.25 0,-1.406 0.84,-1.766 1.48,-2.047 l 10.61,-4.422 c -5.76,-2.531 -8.36,-3.515 -10.12,-4.359 -1.33,-0.563 -1.97,-0.844 -1.97,-2.188 0,-1.187 0.92,-2.25 2.19,-2.25 0.48,0 0.62,0 1.47,0.641 l 9.56,6.391 -1.13,-11.313 c 0,-1.547 1.35,-2.109 2.19,-2.109 0.85,0 2.17,0.562 2.17,2.109 0,0.625 -0.28,2.734 -0.34,3.438 -0.14,1.203 -0.64,6.265 -0.78,7.875 l 8.44,-5.625 c 1.82,-1.407 1.96,-1.407 2.61,-1.407 1.26,0 2.17,1.063 2.17,2.25 0,1.407 -0.85,1.766 -1.47,2.047 l -10.63,4.422"
         style="fill:#000000;fill-opacity:1;fill-rule:nonzero;stroke:none"
         id="path44" /><path
         d="m 1216.7,105.828 c 0,7.75 -1.09,19.781 -6.54,31 -5.97,12.219 -14.5,18.672 -15.5,18.672 -0.6,0 -1,-0.391 -1,-0.984 0,-0.297 0,-0.5 1.89,-2.297 9.73,-9.828 15.4,-25.625 15.4,-46.391 0,-16.9842 -3.68,-34.4686 -16,-46.9842 -1.29,-1.1875 -1.29,-1.3907 -1.29,-1.6875 0,-0.5938 0.4,-0.9844 1,-0.9844 1,0 9.93,6.75 15.79,19.3594 5.07,10.9375 6.25,21.9531 6.25,30.2967"
         style="fill:#000000;fill-opacity:1;fill-rule:nonzero;stroke:none"
         id="path46" /><path
         d="M 963.824,489.754 V 214.672"
         style="fill:none;stroke:#be2828;stroke-width:3.985;stroke-linecap:butt;stroke-linejoin:miter;stroke-miterlimit:10;stroke-dasharray:29.8883, 29.8883;stroke-dashoffset:0;stroke-opacity:1"
         id="path48" /><path
         d="m 1067.27,413.844 c 0,0.109 0,1.094 -1.3,1.094 -1.5,0 -10.92,-0.891 -12.63,-1.094 -0.78,-0.094 -1.39,-0.594 -1.39,-1.891 0,-1.187 0.91,-1.187 2.39,-1.187 4.77,0 4.97,-0.688 4.97,-1.688 l -0.29,-1.984 -5.97,-23.547 c -1.78,3.672 -4.66,6.359 -9.14,6.359 -11.61,0 -23.94,-14.609 -23.94,-29.109 0,-9.328 5.47,-15.891 13.22,-15.891 1.98,0 6.95,0.391 12.9,7.453 0.8,-4.171 4.29,-7.453 9.05,-7.453 3.47,0 5.77,2.282 7.34,5.469 1.69,3.578 2.99,9.625 2.99,9.828 0,1 -0.89,1 -1.19,1 -1,0 -1.09,-0.406 -1.39,-1.797 -1.69,-6.453 -3.48,-12.312 -7.55,-12.312 -2.68,0 -2.98,2.578 -2.98,4.562 0,2.391 0.2,3.078 0.59,4.782 z m -20.68,-56.016 c -0.5,-1.797 -0.5,-2 -1.98,-3.687 -4.38,-5.453 -8.44,-7.047 -11.22,-7.047 -4.97,0 -6.36,5.469 -6.36,9.344 0,4.953 3.17,17.171 5.45,21.75 3.08,5.859 7.57,9.531 11.54,9.531 6.45,0 7.84,-8.141 7.84,-8.735 0,-0.593 -0.2,-1.203 -0.3,-1.687 l -4.97,-19.469"
         style="fill:#be2828;fill-opacity:1;fill-rule:nonzero;stroke:none"
         id="path50" /></g></g></svg>
